0
SECTION
2
HEADER
9
$INSUNITS
70
4
9
$ACADVER
1
AC1014
9
$HANDSEED
5
FFFF
0
ENDSEC
0
SECTION
2
TABLES
0
TABLE
2
VPORT
5
8
100
AcDbSymbolTable
0
ENDTAB
0
TABLE
2
LTYPE
5
5
100
AcDbSymbolTable
0
LTYPE
5
14
100
AcDbSymbolTableRecord
100
AcDbLinetypeTableRecord
2
BYBLOCK
70
0
0
LTYPE
5
15
100
AcDbSymbolTableRecord
100
AcDbLinetypeTableRecord
2
BYLAYER
70
0
0
ENDTAB
0
TABLE
2
LAYER
5
2
100
AcDbSymbolTable
70
2
0
LAYER
5
50
100
AcDbSymbolTableRecord
100
AcDbLayerTableRecord
2
0
70
0
6
CONTINUOUS
0
ENDTAB
0
TABLE
2
STYLE
5
3
100
AcDbSymbolTable
70
1
0
STYLE
5
11
100
AcDbSymbolTableRecord
100
AcDbTextStyleTableRecord
2
STANDARD
70
0
0
ENDTAB
0
TABLE
2
VIEW
5
6
100
AcDbSymbolTable
70
0
0
ENDTAB
0
TABLE
2
UCS
5
7
100
AcDbSymbolTable
70
0
0
ENDTAB
0
TABLE
2
APPID
5
9
100
AcDbSymbolTable
70
2
0
APPID
5
12
100
AcDbSymbolTableRecord
100
AcDbRegAppTableRecord
2
ACAD
70
0
0
ENDTAB
0
TABLE
2
DIMSTYLE
5
A
100
AcDbSymbolTable
70
1
0
ENDTAB
0
TABLE
2
BLOCK_RECORD
5
1
100
AcDbSymbolTable
70
1
0
BLOCK_RECORD
5
1F
100
AcDbSymbolTableRecord
100
AcDbBlockTableRecord
2
*MODEL_SPACE
0
BLOCK_RECORD
5
1B
100
AcDbSymbolTableRecord
100
AcDbBlockTableRecord
2
*PAPER_SPACE
0
ENDTAB
0
ENDSEC
0
SECTION
2
BLOCKS
0
BLOCK
5
20
100
AcDbEntity
100
AcDbBlockBegin
2
*MODEL_SPACE
0
ENDBLK
5
21
100
AcDbEntity
100
AcDbBlockEnd
0
BLOCK
5
1C
100
AcDbEntity
100
AcDbBlockBegin
2
*PAPER_SPACE
0
ENDBLK
5
1D
100
AcDbEntity
100
AcDbBlockEnd
0
ENDSEC
0
SECTION
2
ENTITIES
0
LWPOLYLINE
5
100
100
AcDbEntity
8
0
100
AcDbPolyline
90
19
70
1
43
0.0
10
-49.097351890300729
20
44.408936144046081
10
-61.328447654165643
20
23.549976339016347
42
0.11394679789348315
10
-63.134996212398548
20
15.990256524914628
10
-63.147000796261196
20
9.8500814952478777
10
-63.135000000000005
20
2.4835927235938104
10
-63.135000000000005
20
-14.638
42
0.41422323246817339
10
-61.884958730428906
20
-15.887999999318721
10
-44.252275268305098
20
-15.885089226862101
42
-0.40830308133165732
10
-42.722008267933667
20
-17.325381978546066
10
-42.721647132424991
20
-32.862459366125861
42
0.29757234235457342
10
-41.975063501186291
20
-34.006916676002739
42
0.064985440352737817
10
-4.3131663414167853
20
-42.299354379867907
10
3.737055882066882
20
-42.289977743553578
42
0.12036972257687978
10
45.179779959962893
20
-25.43942411382352
42
0.16031417565291395
10
46.81000659469408
20
-23.098376037329295
10
46.769620882775627
20
26.262623740800819
42
0.4028094255281538
10
44.225333093491741
20
28.581122779176205
42
-0.053420305199752612
10
-24.289137808752681
20
36.04748999863051
42
-0.06806821982504116
10
-45.673947290631389
20
45.172668229837186
42
0.417469275037539
0
CIRCLE
5
101
100
AcDbEntity
8
0
100
AcDbCircle
10
-54.000000804662704
20
-7.0000001043081284
30
0
40
2.5
210
0
220
0
230
1
0
CIRCLE
5
102
100
AcDbEntity
8
0
100
AcDbCircle
10
25.000000372529033
20
22.000000327825543
30
0
40
2.5
210
0
220
0
230
1
0
CIRCLE
5
103
100
AcDbEntity
8
0
100
AcDbCircle
10
-38.000000566244125
20
24.000000357627869
30
0
40
2.5
210
0
220
0
230
1
0
CIRCLE
5
104
100
AcDbEntity
8
0
100
AcDbCircle
10
38.000000566244125
20
-23.000000342726707
30
0
40
2.5
210
0
220
0
230
1
0
CIRCLE
5
105
100
AcDbEntity
8
0
100
AcDbCircle
10
-7.5800000000000001
20
-36.07
30
0
40
2.5000000000000022
210
0
220
0
230
1
0
CIRCLE
5
106
100
AcDbEntity
8
0
100
AcDbCircle
10
11.469999999999994
20
-17.02
30
0
40
2.5
210
0
220
0
230
1
0
CIRCLE
5
107
100
AcDbEntity
8
0
100
AcDbCircle
10
-7.5800000000000001
20
2.0300000000000029
30
0
40
2.5
210
0
220
0
230
1
0
CIRCLE
5
108
100
AcDbEntity
8
0
100
AcDbCircle
10
-26.630000000000003
20
-17.02
30
0
40
2.5
210
0
220
0
230
1
0
LWPOLYLINE
5
109
100
AcDbEntity
8
0
100
AcDbPolyline
90
19
70
1
43
0.0
10
46.309944999779312
20
-23.023296861240858
10
46.269635125224852
20
26.245011518631838
42
0.40154788727546697
10
44.232000000205616
20
28.081110000005189
42
-0.053436237485874456
10
-24.408666696802058
20
35.561813149890391
42
-0.068130982975990573
10
-45.938002643622262
20
44.747995499385794
42
0.41754478851651688
10
-48.670044056277263
20
44.149184591612084
10
-60.888355358170116
20
23.312027459339792
42
0.11366738442824373
10
-62.634999975018985
20
15.987843226156047
10
-62.647000000000013
20
9.8500000000000032
10
-62.635000000000005
20
2.4840000000000027
10
-62.635000000000005
20
-14.638
42
0.41421033902675625
10
-61.885008253904005
20
-15.387999999954573
10
-44.256999999994314
20
-15.385089999999813
42
-0.40909868953614936
10
-42.22200848583033
20
-17.316001633235757
10
-42.221647129911034
20
-32.862561712555973
42
0.29224154383938067
10
-41.78728741038455
20
-33.543121200481224
42
0.064915910793573839
10
-4.2916910706520106
20
-41.799329027002216
10
3.7000030442656939
20
-41.790020562320024
42
0.12025825557083775
10
44.88300020842015
20
-25.036999849405753
42
0.15553327145153364
0
CIRCLE
5
110
100
AcDbEntity
8
0
100
AcDbCircle
10
38.000000566244125
20
-23.000000342726707
30
0
40
2.75
210
0
220
0
230
1
0
CIRCLE
5
111
100
AcDbEntity
8
0
100
AcDbCircle
10
11.469999999999994
20
-17.02
30
0
40
2.75
210
0
220
0
230
1
0
CIRCLE
5
112
100
AcDbEntity
8
0
100
AcDbCircle
10
-7.5800000000000001
20
-36.07
30
0
40
2.75
210
0
220
0
230
1
0
CIRCLE
5
113
100
AcDbEntity
8
0
100
AcDbCircle
10
-7.5800000000000001
20
2.0300000000000029
30
0
40
2.75
210
0
220
0
230
1
0
CIRCLE
5
114
100
AcDbEntity
8
0
100
AcDbCircle
10
-26.630000000000003
20
-17.02
30
0
40
2.75
210
0
220
0
230
1
0
CIRCLE
5
115
100
AcDbEntity
8
0
100
AcDbCircle
10
25.000000372529033
20
22.000000327825543
30
0
40
2.75
210
0
220
0
230
1
0
CIRCLE
5
116
100
AcDbEntity
8
0
100
AcDbCircle
10
-38.000000566244125
20
24.000000357627869
30
0
40
2.75
210
0
220
0
230
1
0
CIRCLE
5
117
100
AcDbEntity
8
0
100
AcDbCircle
10
-54.000000804662704
20
-7.0000001043081284
30
0
40
2.75
210
0
220
0
230
1
0
ENDSEC
0
SECTION
2
OBJECTS
0
DICTIONARY
5
C
100
AcDbDictionary
3
ACAD_GROUP
350
D
3
ACAD_MLINESTYLE
350
17
0
DICTIONARY
5
D
100
AcDbDictionary
0
DICTIONARY
5
1A
330
C
100
AcDbDictionary
0
DICTIONARY
5
17
100
AcDbDictionary
0
ENDSEC
0
EOF
