<?xml version="1.0" encoding="UTF-8" standalone="yes"?>
<!-- Created with sK1/UniConvertor (http://sk1project.org/) -->
<svg xmlns="http://www.w3.org/2000/svg" xmlns:xlink="http://www.w3.org/1999/xlink"
  width="595.276pt" height="841.89pt" viewBox="0 0 595.276 841.89"
  fill-rule="evenodd">
<g>
<path style="stroke:#000000; stroke-width:0.850394; stroke-linejoin:round; stroke-linecap:round; fill:none" d="M -49.0974 797.481L -61.3284 818.34L -63.135 825.9L -63.147 832.04L -63.135 839.406L -63.135 856.528L -61.885 857.778L -44.2523 857.775L -42.722 859.215L -42.7216 874.752L -41.9751 875.897L -4.31317 884.189L 3.73706 884.18L 45.1798 867.329L 46.81 864.988L 46.7696 815.627L 44.2253 813.309L -24.2891 805.842L -45.6739 796.717L -49.0974 797.481z"/>
<path style="stroke:#000000; stroke-width:0.850394; stroke-linejoin:round; stroke-linecap:round; fill:none" d="M -51.5 848.89C -51.5 847.51 -52.6201 846.39 -54 846.39C -55.3799 846.39 -56.5 847.51 -56.5 848.89C -56.5 850.27 -55.3799 851.39 -54 851.39C -52.6201 851.39 -51.5 850.27 -51.5 848.89z"/>
<path style="stroke:#000000; stroke-width:0.850394; stroke-linejoin:round; stroke-linecap:round; fill:none" d="M 27.5 819.89C 27.5 818.51 26.3799 817.39 25 817.39C 23.6201 817.39 22.5 818.51 22.5 819.89C 22.5 821.27 23.6201 822.39 25 822.39C 26.3799 822.39 27.5 821.27 27.5 819.89z"/>
<path style="stroke:#000000; stroke-width:0.850394; stroke-linejoin:round; stroke-linecap:round; fill:none" d="M -35.5 817.89C -35.5 816.51 -36.6201 815.39 -38 815.39C -39.3799 815.39 -40.5 816.51 -40.5 817.89C -40.5 819.27 -39.3799 820.39 -38 820.39C -36.6201 820.39 -35.5 819.27 -35.5 817.89z"/>
<path style="stroke:#000000; stroke-width:0.850394; stroke-linejoin:round; stroke-linecap:round; fill:none" d="M 40.5 864.89C 40.5 863.51 39.3799 862.39 38 862.39C 36.6201 862.39 35.5 863.51 35.5 864.89C 35.5 866.27 36.6201 867.39 38 867.39C 39.3799 867.39 40.5 866.27 40.5 864.89z"/>
<path style="stroke:#000000; stroke-width:0.850394; stroke-linejoin:round; stroke-linecap:round; fill:none" d="M -5.08 877.96C -5.08 876.58 -6.20008 875.46 -7.58 875.46C -8.95992 875.46 -10.08 876.58 -10.08 877.96C -10.08 879.34 -8.95992 880.46 -7.58 880.46C -6.20008 880.46 -5.08 879.34 -5.08 877.96z"/>
<path style="stroke:#000000; stroke-width:0.850394; stroke-linejoin:round; stroke-linecap:round; fill:none" d="M 13.97 858.91C 13.97 857.53 12.8499 856.41 11.47 856.41C 10.0901 856.41 8.97 857.53 8.97 858.91C 8.97 860.29 10.0901 861.41 11.47 861.41C 12.8499 861.41 13.97 860.29 13.97 858.91z"/>
<path style="stroke:#000000; stroke-width:0.850394; stroke-linejoin:round; stroke-linecap:round; fill:none" d="M -5.08 839.86C -5.08 838.48 -6.20008 837.36 -7.58 837.36C -8.95992 837.36 -10.08 838.48 -10.08 839.86C -10.08 841.24 -8.95992 842.36 -7.58 842.36C -6.20008 842.36 -5.08 841.24 -5.08 839.86z"/>
<path style="stroke:#000000; stroke-width:0.850394; stroke-linejoin:round; stroke-linecap:round; fill:none" d="M -24.13 858.91C -24.13 857.53 -25.2501 856.41 -26.63 856.41C -28.0099 856.41 -29.13 857.53 -29.13 858.91C -29.13 860.29 -28.0099 861.41 -26.63 861.41C -25.2501 861.41 -24.13 860.29 -24.13 858.91z"/>
<path style="stroke:#000000; stroke-width:0.850394; stroke-linejoin:round; stroke-linecap:round; fill:none" d="M 46.3099 864.913L 46.2696 815.645L 44.232 813.809L -24.4087 806.328L -45.938 797.142L -48.67 797.741L -60.8884 818.578L -62.635 825.902L -62.647 832.04L -62.635 839.406L -62.635 856.528L -61.885 857.278L -44.257 857.275L -42.222 859.206L -42.2216 874.752L -41.7873 875.433L -4.29169 883.689L 3.7 883.68L 44.883 866.927L 46.3099 864.913z"/>
<path style="stroke:#000000; stroke-width:0.850394; stroke-linejoin:round; stroke-linecap:round; fill:none" d="M 40.75 864.89C 40.75 863.372 39.5179 862.14 38 862.14C 36.4821 862.14 35.25 863.372 35.25 864.89C 35.25 866.408 36.4821 867.64 38 867.64C 39.5179 867.64 40.75 866.408 40.75 864.89z"/>
<path style="stroke:#000000; stroke-width:0.850394; stroke-linejoin:round; stroke-linecap:round; fill:none" d="M 14.22 858.91C 14.22 857.392 12.9879 856.16 11.47 856.16C 9.95208 856.16 8.72 857.392 8.72 858.91C 8.72 860.428 9.95208 861.66 11.47 861.66C 12.9879 861.66 14.22 860.428 14.22 858.91z"/>
<path style="stroke:#000000; stroke-width:0.850394; stroke-linejoin:round; stroke-linecap:round; fill:none" d="M -4.83 877.96C -4.83 876.442 -6.06208 875.21 -7.58 875.21C -9.09792 875.21 -10.33 876.442 -10.33 877.96C -10.33 879.478 -9.09792 880.71 -7.58 880.71C -6.06208 880.71 -4.83 879.478 -4.83 877.96z"/>
<path style="stroke:#000000; stroke-width:0.850394; stroke-linejoin:round; stroke-linecap:round; fill:none" d="M -4.83 839.86C -4.83 838.342 -6.06208 837.11 -7.58 837.11C -9.09792 837.11 -10.33 838.342 -10.33 839.86C -10.33 841.378 -9.09792 842.61 -7.58 842.61C -6.06208 842.61 -4.83 841.378 -4.83 839.86z"/>
<path style="stroke:#000000; stroke-width:0.850394; stroke-linejoin:round; stroke-linecap:round; fill:none" d="M -23.88 858.91C -23.88 857.392 -25.1121 856.16 -26.63 856.16C -28.1479 856.16 -29.38 857.392 -29.38 858.91C -29.38 860.428 -28.1479 861.66 -26.63 861.66C -25.1121 861.66 -23.88 860.428 -23.88 858.91z"/>
<path style="stroke:#000000; stroke-width:0.850394; stroke-linejoin:round; stroke-linecap:round; fill:none" d="M 27.75 819.89C 27.75 818.372 26.5179 817.14 25 817.14C 23.4821 817.14 22.25 818.372 22.25 819.89C 22.25 821.408 23.4821 822.64 25 822.64C 26.5179 822.64 27.75 821.408 27.75 819.89z"/>
<path style="stroke:#000000; stroke-width:0.850394; stroke-linejoin:round; stroke-linecap:round; fill:none" d="M -35.25 817.89C -35.25 816.372 -36.4821 815.14 -38 815.14C -39.5179 815.14 -40.75 816.372 -40.75 817.89C -40.75 819.408 -39.5179 820.64 -38 820.64C -36.4821 820.64 -35.25 819.408 -35.25 817.89z"/>
<path style="stroke:#000000; stroke-width:0.850394; stroke-linejoin:round; stroke-linecap:round; fill:none" d="M -51.25 848.89C -51.25 847.372 -52.4821 846.14 -54 846.14C -55.5179 846.14 -56.75 847.372 -56.75 848.89C -56.75 850.408 -55.5179 851.64 -54 851.64C -52.4821 851.64 -51.25 850.408 -51.25 848.89z"/>
</g>
</svg>