%TF.GenerationSoftware,KiCad,Pcbnew,(6.0.10-0)*%
%TF.CreationDate,2023-04-12T09:40:14-04:00*%
%TF.ProjectId,half-swept,68616c66-2d73-4776-9570-742e6b696361,rev?*%
%TF.SameCoordinates,Original*%
%TF.FileFunction,Drillmap*%
%TF.FilePolarity,Positive*%
%FSLAX45Y45*%
G04 Gerber Fmt 4.5, Leading zero omitted, Abs format (unit mm)*
G04 Created by KiCad (PCBNEW (6.0.10-0)) date 2023-04-12 09:40:14*
%MOMM*%
%LPD*%
G01*
G04 APERTURE LIST*
%ADD10C,0.050000*%
%ADD11C,0.200000*%
%ADD12C,0.040000*%
%ADD13C,0.081280*%
%ADD14C,0.090000*%
%ADD15C,0.110000*%
%ADD16C,0.150000*%
%ADD17C,0.220000*%
G04 APERTURE END LIST*
D10*
X12763500Y-4536200D02*
G75*
G03*
X12688500Y-4461200I-75000J0D01*
G01*
X1869005Y-3697670D02*
X1873025Y-8624502D01*
X10722200Y-2713742D02*
G75*
G03*
X10678729Y-2645689I-75000J2D01*
G01*
X11093800Y-10474800D02*
G75*
G03*
X8940913Y-9556195I-4431600J-7404000D01*
G01*
X2011700Y-3496300D02*
G75*
G03*
X1869005Y-3697670I244500J-324500D01*
G01*
X10722200Y-4268400D02*
G75*
G03*
X10925700Y-4461492I200000J7000D01*
G01*
X10678729Y-2645689D02*
G75*
G03*
X6929178Y-1820068I-5040949J-13966341D01*
G01*
X11093800Y-10474800D02*
G75*
G03*
X11367000Y-10414927I107000J165000D01*
G01*
X8940913Y-9556195D02*
G75*
G03*
X2076800Y-8808112I-6921916J-31647541D01*
G01*
X1873025Y-8624502D02*
G75*
G03*
X2076800Y-8808112I197800J14641D01*
G01*
X12763500Y-4536200D02*
X12763500Y-6248400D01*
X10722200Y-4268400D02*
X10722205Y-2713742D01*
X10925700Y-4461492D02*
X12688500Y-4461200D01*
X6130043Y-1821289D02*
G75*
G03*
X2011700Y-3496300I1370658J-9270415D01*
G01*
X12588830Y-8331200D02*
X11367000Y-10414927D01*
X12588831Y-8331200D02*
G75*
G03*
X12763500Y-7598785I-1502721J745410D01*
G01*
X6929178Y-1820068D02*
X6130000Y-1821000D01*
X12763500Y-6248400D02*
X12764700Y-6985000D01*
X12764700Y-6985000D02*
X12763500Y-7598785D01*
D11*
D12*
X8712520Y-2205040D02*
X8752520Y-2245040D01*
X8752520Y-2205040D02*
X8712520Y-2245040D01*
X8915720Y-2225360D02*
X8955720Y-2265360D01*
X8955720Y-2225360D02*
X8915720Y-2265360D01*
X9357680Y-2753680D02*
X9397680Y-2793680D01*
X9397680Y-2753680D02*
X9357680Y-2793680D01*
X9413560Y-2509840D02*
X9453560Y-2549840D01*
X9453560Y-2509840D02*
X9413560Y-2549840D01*
X9469440Y-2423480D02*
X9509440Y-2463480D01*
X9509440Y-2423480D02*
X9469440Y-2463480D01*
X10581960Y-6980240D02*
X10621960Y-7020240D01*
X10621960Y-6980240D02*
X10581960Y-7020240D01*
X10835960Y-6121720D02*
X10875960Y-6161720D01*
X10875960Y-6121720D02*
X10835960Y-6161720D01*
X10835960Y-6731320D02*
X10875960Y-6771320D01*
X10875960Y-6731320D02*
X10835960Y-6771320D01*
X10841040Y-7183440D02*
X10881040Y-7223440D01*
X10881040Y-7183440D02*
X10841040Y-7223440D01*
X10917240Y-4546920D02*
X10957240Y-4586920D01*
X10957240Y-4546920D02*
X10917240Y-4586920D01*
X10993440Y-5532440D02*
X11033440Y-5572440D01*
X11033440Y-5532440D02*
X10993440Y-5572440D01*
X11384600Y-4765360D02*
X11424600Y-4805360D01*
X11424600Y-4765360D02*
X11384600Y-4805360D01*
X11496360Y-5207320D02*
X11536360Y-5247320D01*
X11536360Y-5207320D02*
X11496360Y-5247320D01*
X11501440Y-4687242D02*
X11541440Y-4727242D01*
X11541440Y-4687242D02*
X11501440Y-4727242D01*
X11831000Y-4902200D02*
G75*
G03*
X11831000Y-4902200I-20000J0D01*
G01*
X11831000Y-5156200D02*
G75*
G03*
X11831000Y-5156200I-20000J0D01*
G01*
X11831000Y-5410200D02*
G75*
G03*
X11831000Y-5410200I-20000J0D01*
G01*
X11831000Y-5664200D02*
G75*
G03*
X11831000Y-5664200I-20000J0D01*
G01*
X11831000Y-5918200D02*
G75*
G03*
X11831000Y-5918200I-20000J0D01*
G01*
X11831000Y-6172200D02*
G75*
G03*
X11831000Y-6172200I-20000J0D01*
G01*
X11831000Y-6426200D02*
G75*
G03*
X11831000Y-6426200I-20000J0D01*
G01*
X11831000Y-6680200D02*
G75*
G03*
X11831000Y-6680200I-20000J0D01*
G01*
X11831000Y-6934200D02*
G75*
G03*
X11831000Y-6934200I-20000J0D01*
G01*
X11831000Y-7188200D02*
G75*
G03*
X11831000Y-7188200I-20000J0D01*
G01*
X11831000Y-7442200D02*
G75*
G03*
X11831000Y-7442200I-20000J0D01*
G01*
X11831000Y-7696200D02*
G75*
G03*
X11831000Y-7696200I-20000J0D01*
G01*
X11983400Y-4902200D02*
G75*
G03*
X11983400Y-4902200I-20000J0D01*
G01*
X11983400Y-5156200D02*
G75*
G03*
X11983400Y-5156200I-20000J0D01*
G01*
X11983400Y-5410200D02*
G75*
G03*
X11983400Y-5410200I-20000J0D01*
G01*
X11983400Y-5664200D02*
G75*
G03*
X11983400Y-5664200I-20000J0D01*
G01*
X11983400Y-5918200D02*
G75*
G03*
X11983400Y-5918200I-20000J0D01*
G01*
X11983400Y-6172200D02*
G75*
G03*
X11983400Y-6172200I-20000J0D01*
G01*
X11983400Y-6426200D02*
G75*
G03*
X11983400Y-6426200I-20000J0D01*
G01*
X11983400Y-6680200D02*
G75*
G03*
X11983400Y-6680200I-20000J0D01*
G01*
X11983400Y-6934200D02*
G75*
G03*
X11983400Y-6934200I-20000J0D01*
G01*
X11983400Y-7188200D02*
G75*
G03*
X11983400Y-7188200I-20000J0D01*
G01*
X11983400Y-7442200D02*
G75*
G03*
X11983400Y-7442200I-20000J0D01*
G01*
X11983400Y-7696200D02*
G75*
G03*
X11983400Y-7696200I-20000J0D01*
G01*
D13*
X11125200Y-4556760D02*
X11125200Y-4638040D01*
X11084560Y-4597400D02*
X11165840Y-4597400D01*
X12649200Y-4556760D02*
X12649200Y-4638040D01*
X12608560Y-4597400D02*
X12689840Y-4597400D01*
D14*
X11269620Y-8533820D02*
X11269620Y-8470180D01*
X11205980Y-8470180D01*
X11205980Y-8533820D01*
X11269620Y-8533820D01*
D11*
X11217800Y-8547000D02*
X11257800Y-8547000D01*
X11217800Y-8457000D02*
X11257800Y-8457000D01*
X11257800Y-8547000D02*
G75*
G03*
X11257800Y-8457000I0J45000D01*
G01*
X11217800Y-8457000D02*
G75*
G03*
X11217800Y-8547000I0J-45000D01*
G01*
D14*
X11271620Y-8076820D02*
X11271620Y-8013180D01*
X11207980Y-8013180D01*
X11207980Y-8076820D01*
X11271620Y-8076820D01*
D11*
X11259800Y-8000000D02*
X11219800Y-8000000D01*
X11259800Y-8090000D02*
X11219800Y-8090000D01*
X11219800Y-8000000D02*
G75*
G03*
X11219800Y-8090000I0J-45000D01*
G01*
X11259800Y-8090000D02*
G75*
G03*
X11259800Y-8000000I0J45000D01*
G01*
D14*
X11379620Y-8073820D02*
X11379620Y-8010180D01*
X11315980Y-8010180D01*
X11315980Y-8073820D01*
X11379620Y-8073820D01*
D11*
X11327800Y-8087000D02*
X11367800Y-8087000D01*
X11327800Y-7997000D02*
X11367800Y-7997000D01*
X11367800Y-8087000D02*
G75*
G03*
X11367800Y-7997000I0J45000D01*
G01*
X11327800Y-7997000D02*
G75*
G03*
X11327800Y-8087000I0J-45000D01*
G01*
D14*
X11381620Y-8536820D02*
X11381620Y-8473180D01*
X11317980Y-8473180D01*
X11317980Y-8536820D01*
X11381620Y-8536820D01*
D11*
X11369800Y-8460000D02*
X11329800Y-8460000D01*
X11369800Y-8550000D02*
X11329800Y-8550000D01*
X11329800Y-8460000D02*
G75*
G03*
X11329800Y-8550000I0J-45000D01*
G01*
X11369800Y-8550000D02*
G75*
G03*
X11369800Y-8460000I0J45000D01*
G01*
D14*
X11779620Y-8073820D02*
X11779620Y-8010180D01*
X11715980Y-8010180D01*
X11715980Y-8073820D01*
X11779620Y-8073820D01*
D11*
X11727800Y-8087000D02*
X11767800Y-8087000D01*
X11727800Y-7997000D02*
X11767800Y-7997000D01*
X11767800Y-8087000D02*
G75*
G03*
X11767800Y-7997000I0J45000D01*
G01*
X11727800Y-7997000D02*
G75*
G03*
X11727800Y-8087000I0J-45000D01*
G01*
D14*
X11781620Y-8536820D02*
X11781620Y-8473180D01*
X11717980Y-8473180D01*
X11717980Y-8536820D01*
X11781620Y-8536820D01*
D11*
X11769800Y-8460000D02*
X11729800Y-8460000D01*
X11769800Y-8550000D02*
X11729800Y-8550000D01*
X11729800Y-8460000D02*
G75*
G03*
X11729800Y-8550000I0J-45000D01*
G01*
X11769800Y-8550000D02*
G75*
G03*
X11769800Y-8460000I0J45000D01*
G01*
D14*
X12079620Y-8073820D02*
X12079620Y-8010180D01*
X12015980Y-8010180D01*
X12015980Y-8073820D01*
X12079620Y-8073820D01*
D11*
X12027800Y-8087000D02*
X12067800Y-8087000D01*
X12027800Y-7997000D02*
X12067800Y-7997000D01*
X12067800Y-8087000D02*
G75*
G03*
X12067800Y-7997000I0J45000D01*
G01*
X12027800Y-7997000D02*
G75*
G03*
X12027800Y-8087000I0J-45000D01*
G01*
D14*
X12081620Y-8536820D02*
X12081620Y-8473180D01*
X12017980Y-8473180D01*
X12017980Y-8536820D01*
X12081620Y-8536820D01*
D11*
X12069800Y-8460000D02*
X12029800Y-8460000D01*
X12069800Y-8550000D02*
X12029800Y-8550000D01*
X12029800Y-8460000D02*
G75*
G03*
X12029800Y-8550000I0J-45000D01*
G01*
X12069800Y-8550000D02*
G75*
G03*
X12069800Y-8460000I0J45000D01*
G01*
D15*
X11125200Y-4957200D02*
X11180200Y-4902200D01*
X11125200Y-4847200D01*
X11070200Y-4902200D01*
X11125200Y-4957200D01*
X11125200Y-4957200D02*
X11180200Y-4902200D01*
X11125200Y-4847200D01*
X11070200Y-4902200D01*
X11125200Y-4957200D01*
X11125200Y-5211200D02*
X11180200Y-5156200D01*
X11125200Y-5101200D01*
X11070200Y-5156200D01*
X11125200Y-5211200D01*
X11125200Y-5465200D02*
X11180200Y-5410200D01*
X11125200Y-5355200D01*
X11070200Y-5410200D01*
X11125200Y-5465200D01*
X11125200Y-5719200D02*
X11180200Y-5664200D01*
X11125200Y-5609200D01*
X11070200Y-5664200D01*
X11125200Y-5719200D01*
X11125200Y-5973200D02*
X11180200Y-5918200D01*
X11125200Y-5863200D01*
X11070200Y-5918200D01*
X11125200Y-5973200D01*
X11125200Y-6227200D02*
X11180200Y-6172200D01*
X11125200Y-6117200D01*
X11070200Y-6172200D01*
X11125200Y-6227200D01*
X11125200Y-6481200D02*
X11180200Y-6426200D01*
X11125200Y-6371200D01*
X11070200Y-6426200D01*
X11125200Y-6481200D01*
X11125200Y-6735200D02*
X11180200Y-6680200D01*
X11125200Y-6625200D01*
X11070200Y-6680200D01*
X11125200Y-6735200D01*
X11125200Y-6989200D02*
X11180200Y-6934200D01*
X11125200Y-6879200D01*
X11070200Y-6934200D01*
X11125200Y-6989200D01*
X11125200Y-7243200D02*
X11180200Y-7188200D01*
X11125200Y-7133200D01*
X11070200Y-7188200D01*
X11125200Y-7243200D01*
X11125200Y-7497200D02*
X11180200Y-7442200D01*
X11125200Y-7387200D01*
X11070200Y-7442200D01*
X11125200Y-7497200D01*
X11125200Y-7751200D02*
X11180200Y-7696200D01*
X11125200Y-7641200D01*
X11070200Y-7696200D01*
X11125200Y-7751200D01*
X12649200Y-4957200D02*
X12704200Y-4902200D01*
X12649200Y-4847200D01*
X12594200Y-4902200D01*
X12649200Y-4957200D01*
X12649200Y-4957200D02*
X12704200Y-4902200D01*
X12649200Y-4847200D01*
X12594200Y-4902200D01*
X12649200Y-4957200D01*
X12649200Y-5211200D02*
X12704200Y-5156200D01*
X12649200Y-5101200D01*
X12594200Y-5156200D01*
X12649200Y-5211200D01*
X12649200Y-5465200D02*
X12704200Y-5410200D01*
X12649200Y-5355200D01*
X12594200Y-5410200D01*
X12649200Y-5465200D01*
X12649200Y-5719200D02*
X12704200Y-5664200D01*
X12649200Y-5609200D01*
X12594200Y-5664200D01*
X12649200Y-5719200D01*
X12649200Y-5973200D02*
X12704200Y-5918200D01*
X12649200Y-5863200D01*
X12594200Y-5918200D01*
X12649200Y-5973200D01*
X12649200Y-6227200D02*
X12704200Y-6172200D01*
X12649200Y-6117200D01*
X12594200Y-6172200D01*
X12649200Y-6227200D01*
X12649200Y-6481200D02*
X12704200Y-6426200D01*
X12649200Y-6371200D01*
X12594200Y-6426200D01*
X12649200Y-6481200D01*
X12649200Y-6735200D02*
X12704200Y-6680200D01*
X12649200Y-6625200D01*
X12594200Y-6680200D01*
X12649200Y-6735200D01*
X12649200Y-6989200D02*
X12704200Y-6934200D01*
X12649200Y-6879200D01*
X12594200Y-6934200D01*
X12649200Y-6989200D01*
X12649200Y-7243200D02*
X12704200Y-7188200D01*
X12649200Y-7133200D01*
X12594200Y-7188200D01*
X12649200Y-7243200D01*
X12649200Y-7497200D02*
X12704200Y-7442200D01*
X12649200Y-7387200D01*
X12594200Y-7442200D01*
X12649200Y-7497200D01*
X12649200Y-7751200D02*
X12704200Y-7696200D01*
X12649200Y-7641200D01*
X12594200Y-7696200D01*
X12649200Y-7751200D01*
D16*
X2133000Y-4913000D02*
X2283000Y-5063000D01*
X2283000Y-4913000D02*
X2133000Y-5063000D01*
X2283000Y-4988000D02*
G75*
G03*
X2283000Y-4988000I-75000J0D01*
G01*
X2133000Y-6613000D02*
X2283000Y-6763000D01*
X2283000Y-6613000D02*
X2133000Y-6763000D01*
X2283000Y-6688000D02*
G75*
G03*
X2283000Y-6688000I-75000J0D01*
G01*
X2133000Y-8313000D02*
X2283000Y-8463000D01*
X2283000Y-8313000D02*
X2133000Y-8463000D01*
X2283000Y-8388000D02*
G75*
G03*
X2283000Y-8388000I-75000J0D01*
G01*
X2633000Y-5123000D02*
X2783000Y-5273000D01*
X2783000Y-5123000D02*
X2633000Y-5273000D01*
X2783000Y-5198000D02*
G75*
G03*
X2783000Y-5198000I-75000J0D01*
G01*
X2633000Y-6823000D02*
X2783000Y-6973000D01*
X2783000Y-6823000D02*
X2633000Y-6973000D01*
X2783000Y-6898000D02*
G75*
G03*
X2783000Y-6898000I-75000J0D01*
G01*
X2633000Y-8523000D02*
X2783000Y-8673000D01*
X2783000Y-8523000D02*
X2633000Y-8673000D01*
X2783000Y-8598000D02*
G75*
G03*
X2783000Y-8598000I-75000J0D01*
G01*
X3133000Y-4913000D02*
X3283000Y-5063000D01*
X3283000Y-4913000D02*
X3133000Y-5063000D01*
X3283000Y-4988000D02*
G75*
G03*
X3283000Y-4988000I-75000J0D01*
G01*
X3133000Y-6613000D02*
X3283000Y-6763000D01*
X3283000Y-6613000D02*
X3133000Y-6763000D01*
X3283000Y-6688000D02*
G75*
G03*
X3283000Y-6688000I-75000J0D01*
G01*
X3133000Y-8313000D02*
X3283000Y-8463000D01*
X3283000Y-8313000D02*
X3133000Y-8463000D01*
X3283000Y-8388000D02*
G75*
G03*
X3283000Y-8388000I-75000J0D01*
G01*
X3933000Y-3713000D02*
X4083000Y-3863000D01*
X4083000Y-3713000D02*
X3933000Y-3863000D01*
X4083000Y-3788000D02*
G75*
G03*
X4083000Y-3788000I-75000J0D01*
G01*
X3933000Y-5410400D02*
X4083000Y-5560400D01*
X4083000Y-5410400D02*
X3933000Y-5560400D01*
X4083000Y-5485400D02*
G75*
G03*
X4083000Y-5485400I-75000J0D01*
G01*
X3933000Y-7112200D02*
X4083000Y-7262200D01*
X4083000Y-7112200D02*
X3933000Y-7262200D01*
X4083000Y-7187200D02*
G75*
G03*
X4083000Y-7187200I-75000J0D01*
G01*
X4433000Y-3923000D02*
X4583000Y-4073000D01*
X4583000Y-3923000D02*
X4433000Y-4073000D01*
X4583000Y-3998000D02*
G75*
G03*
X4583000Y-3998000I-75000J0D01*
G01*
X4433000Y-5620400D02*
X4583000Y-5770400D01*
X4583000Y-5620400D02*
X4433000Y-5770400D01*
X4583000Y-5695400D02*
G75*
G03*
X4583000Y-5695400I-75000J0D01*
G01*
X4433000Y-7322200D02*
X4583000Y-7472200D01*
X4583000Y-7322200D02*
X4433000Y-7472200D01*
X4583000Y-7397200D02*
G75*
G03*
X4583000Y-7397200I-75000J0D01*
G01*
X4933000Y-3713000D02*
X5083000Y-3863000D01*
X5083000Y-3713000D02*
X4933000Y-3863000D01*
X5083000Y-3788000D02*
G75*
G03*
X5083000Y-3788000I-75000J0D01*
G01*
X4933000Y-5410400D02*
X5083000Y-5560400D01*
X5083000Y-5410400D02*
X4933000Y-5560400D01*
X5083000Y-5485400D02*
G75*
G03*
X5083000Y-5485400I-75000J0D01*
G01*
X4933000Y-7112200D02*
X5083000Y-7262200D01*
X5083000Y-7112200D02*
X4933000Y-7262200D01*
X5083000Y-7187200D02*
G75*
G03*
X5083000Y-7187200I-75000J0D01*
G01*
X5733000Y-3013000D02*
X5883000Y-3163000D01*
X5883000Y-3013000D02*
X5733000Y-3163000D01*
X5883000Y-3088000D02*
G75*
G03*
X5883000Y-3088000I-75000J0D01*
G01*
X5733000Y-4724600D02*
X5883000Y-4874600D01*
X5883000Y-4724600D02*
X5733000Y-4874600D01*
X5883000Y-4799600D02*
G75*
G03*
X5883000Y-4799600I-75000J0D01*
G01*
X5733000Y-6426400D02*
X5883000Y-6576400D01*
X5883000Y-6426400D02*
X5733000Y-6576400D01*
X5883000Y-6501400D02*
G75*
G03*
X5883000Y-6501400I-75000J0D01*
G01*
X6233000Y-3223000D02*
X6383000Y-3373000D01*
X6383000Y-3223000D02*
X6233000Y-3373000D01*
X6383000Y-3298000D02*
G75*
G03*
X6383000Y-3298000I-75000J0D01*
G01*
X6233000Y-4934600D02*
X6383000Y-5084600D01*
X6383000Y-4934600D02*
X6233000Y-5084600D01*
X6383000Y-5009600D02*
G75*
G03*
X6383000Y-5009600I-75000J0D01*
G01*
X6233000Y-6636400D02*
X6383000Y-6786400D01*
X6383000Y-6636400D02*
X6233000Y-6786400D01*
X6383000Y-6711400D02*
G75*
G03*
X6383000Y-6711400I-75000J0D01*
G01*
X6733000Y-3013000D02*
X6883000Y-3163000D01*
X6883000Y-3013000D02*
X6733000Y-3163000D01*
X6883000Y-3088000D02*
G75*
G03*
X6883000Y-3088000I-75000J0D01*
G01*
X6733000Y-4724600D02*
X6883000Y-4874600D01*
X6883000Y-4724600D02*
X6733000Y-4874600D01*
X6883000Y-4799600D02*
G75*
G03*
X6883000Y-4799600I-75000J0D01*
G01*
X6733000Y-6426400D02*
X6883000Y-6576400D01*
X6883000Y-6426400D02*
X6733000Y-6576400D01*
X6883000Y-6501400D02*
G75*
G03*
X6883000Y-6501400I-75000J0D01*
G01*
X7533000Y-3563000D02*
X7683000Y-3713000D01*
X7683000Y-3563000D02*
X7533000Y-3713000D01*
X7683000Y-3638000D02*
G75*
G03*
X7683000Y-3638000I-75000J0D01*
G01*
X7533000Y-5258000D02*
X7683000Y-5408000D01*
X7683000Y-5258000D02*
X7533000Y-5408000D01*
X7683000Y-5333000D02*
G75*
G03*
X7683000Y-5333000I-75000J0D01*
G01*
X7533000Y-6959800D02*
X7683000Y-7109800D01*
X7683000Y-6959800D02*
X7533000Y-7109800D01*
X7683000Y-7034800D02*
G75*
G03*
X7683000Y-7034800I-75000J0D01*
G01*
X8033000Y-3773000D02*
X8183000Y-3923000D01*
X8183000Y-3773000D02*
X8033000Y-3923000D01*
X8183000Y-3848000D02*
G75*
G03*
X8183000Y-3848000I-75000J0D01*
G01*
X8033000Y-5468000D02*
X8183000Y-5618000D01*
X8183000Y-5468000D02*
X8033000Y-5618000D01*
X8183000Y-5543000D02*
G75*
G03*
X8183000Y-5543000I-75000J0D01*
G01*
X8033000Y-7169800D02*
X8183000Y-7319800D01*
X8183000Y-7169800D02*
X8033000Y-7319800D01*
X8183000Y-7244800D02*
G75*
G03*
X8183000Y-7244800I-75000J0D01*
G01*
X8533000Y-3563000D02*
X8683000Y-3713000D01*
X8683000Y-3563000D02*
X8533000Y-3713000D01*
X8683000Y-3638000D02*
G75*
G03*
X8683000Y-3638000I-75000J0D01*
G01*
X8533000Y-5258000D02*
X8683000Y-5408000D01*
X8683000Y-5258000D02*
X8533000Y-5408000D01*
X8683000Y-5333000D02*
G75*
G03*
X8683000Y-5333000I-75000J0D01*
G01*
X8533000Y-6959800D02*
X8683000Y-7109800D01*
X8683000Y-6959800D02*
X8533000Y-7109800D01*
X8683000Y-7034800D02*
G75*
G03*
X8683000Y-7034800I-75000J0D01*
G01*
X8619988Y-8131539D02*
X8769988Y-8281539D01*
X8769988Y-8131539D02*
X8619988Y-8281539D01*
X8769988Y-8206539D02*
G75*
G03*
X8769988Y-8206539I-75000J0D01*
G01*
X9157303Y-8058104D02*
X9307303Y-8208104D01*
X9307303Y-8058104D02*
X9157303Y-8208104D01*
X9307303Y-8133104D02*
G75*
G03*
X9307303Y-8133104I-75000J0D01*
G01*
X9331000Y-5512000D02*
X9481000Y-5662000D01*
X9481000Y-5512000D02*
X9331000Y-5662000D01*
X9481000Y-5587000D02*
G75*
G03*
X9481000Y-5587000I-75000J0D01*
G01*
X9331000Y-7213800D02*
X9481000Y-7363800D01*
X9481000Y-7213800D02*
X9331000Y-7363800D01*
X9481000Y-7288800D02*
G75*
G03*
X9481000Y-7288800I-75000J0D01*
G01*
X9333000Y-3813000D02*
X9483000Y-3963000D01*
X9483000Y-3813000D02*
X9333000Y-3963000D01*
X9483000Y-3888000D02*
G75*
G03*
X9483000Y-3888000I-75000J0D01*
G01*
X9585914Y-8390358D02*
X9735914Y-8540358D01*
X9735914Y-8390358D02*
X9585914Y-8540358D01*
X9735914Y-8465358D02*
G75*
G03*
X9735914Y-8465358I-75000J0D01*
G01*
X9831000Y-5722000D02*
X9981000Y-5872000D01*
X9981000Y-5722000D02*
X9831000Y-5872000D01*
X9981000Y-5797000D02*
G75*
G03*
X9981000Y-5797000I-75000J0D01*
G01*
X9831000Y-7423800D02*
X9981000Y-7573800D01*
X9981000Y-7423800D02*
X9831000Y-7573800D01*
X9981000Y-7498800D02*
G75*
G03*
X9981000Y-7498800I-75000J0D01*
G01*
X9833000Y-4023000D02*
X9983000Y-4173000D01*
X9983000Y-4023000D02*
X9833000Y-4173000D01*
X9983000Y-4098000D02*
G75*
G03*
X9983000Y-4098000I-75000J0D01*
G01*
X10331000Y-5512000D02*
X10481000Y-5662000D01*
X10481000Y-5512000D02*
X10331000Y-5662000D01*
X10481000Y-5587000D02*
G75*
G03*
X10481000Y-5587000I-75000J0D01*
G01*
X10331000Y-7213800D02*
X10481000Y-7363800D01*
X10481000Y-7213800D02*
X10331000Y-7363800D01*
X10481000Y-7288800D02*
G75*
G03*
X10481000Y-7288800I-75000J0D01*
G01*
X10333000Y-3813000D02*
X10483000Y-3963000D01*
X10483000Y-3813000D02*
X10333000Y-3963000D01*
X10483000Y-3888000D02*
G75*
G03*
X10483000Y-3888000I-75000J0D01*
G01*
X10617587Y-8823910D02*
X10767587Y-8973910D01*
X10767587Y-8823910D02*
X10617587Y-8973910D01*
X10767587Y-8898910D02*
G75*
G03*
X10767587Y-8898910I-75000J0D01*
G01*
X11155600Y-8892045D02*
X11305600Y-9042045D01*
X11305600Y-8892045D02*
X11155600Y-9042045D01*
X11305600Y-8967045D02*
G75*
G03*
X11305600Y-8967045I-75000J0D01*
G01*
X11483613Y-9323910D02*
X11633613Y-9473910D01*
X11633613Y-9323910D02*
X11483613Y-9473910D01*
X11633613Y-9398910D02*
G75*
G03*
X11633613Y-9398910I-75000J0D01*
G01*
D17*
X5243000Y-4188000D02*
X5463000Y-4408000D01*
X5463000Y-4188000D02*
X5243000Y-4408000D01*
X5353000Y-4188000D02*
X5353000Y-4408000D01*
X5243000Y-4298000D02*
X5463000Y-4298000D01*
X7148000Y-2283000D02*
X7368000Y-2503000D01*
X7368000Y-2283000D02*
X7148000Y-2503000D01*
X7258000Y-2283000D02*
X7258000Y-2503000D01*
X7148000Y-2393000D02*
X7368000Y-2393000D01*
X7148000Y-6093000D02*
X7368000Y-6313000D01*
X7368000Y-6093000D02*
X7148000Y-6313000D01*
X7258000Y-6093000D02*
X7258000Y-6313000D01*
X7148000Y-6203000D02*
X7368000Y-6203000D01*
X9053000Y-4188000D02*
X9273000Y-4408000D01*
X9273000Y-4188000D02*
X9053000Y-4408000D01*
X9163000Y-4188000D02*
X9163000Y-4408000D01*
X9053000Y-4298000D02*
X9273000Y-4298000D01*
D11*
X2124125Y-10819433D02*
X2124125Y-10619433D01*
X2171744Y-10619433D01*
X2200315Y-10628957D01*
X2219363Y-10648005D01*
X2228886Y-10667052D01*
X2238410Y-10705148D01*
X2238410Y-10733719D01*
X2228886Y-10771814D01*
X2219363Y-10790862D01*
X2200315Y-10809909D01*
X2171744Y-10819433D01*
X2124125Y-10819433D01*
X2324125Y-10819433D02*
X2324125Y-10686100D01*
X2324125Y-10724195D02*
X2333648Y-10705148D01*
X2343172Y-10695624D01*
X2362220Y-10686100D01*
X2381267Y-10686100D01*
X2447934Y-10819433D02*
X2447934Y-10686100D01*
X2447934Y-10619433D02*
X2438410Y-10628957D01*
X2447934Y-10638481D01*
X2457458Y-10628957D01*
X2447934Y-10619433D01*
X2447934Y-10638481D01*
X2571744Y-10819433D02*
X2552696Y-10809909D01*
X2543172Y-10790862D01*
X2543172Y-10619433D01*
X2676506Y-10819433D02*
X2657458Y-10809909D01*
X2647934Y-10790862D01*
X2647934Y-10619433D01*
X2905077Y-10819433D02*
X2905077Y-10619433D01*
X2971743Y-10762290D01*
X3038410Y-10619433D01*
X3038410Y-10819433D01*
X3219363Y-10819433D02*
X3219363Y-10714671D01*
X3209839Y-10695624D01*
X3190791Y-10686100D01*
X3152696Y-10686100D01*
X3133648Y-10695624D01*
X3219363Y-10809909D02*
X3200315Y-10819433D01*
X3152696Y-10819433D01*
X3133648Y-10809909D01*
X3124124Y-10790862D01*
X3124124Y-10771814D01*
X3133648Y-10752767D01*
X3152696Y-10743243D01*
X3200315Y-10743243D01*
X3219363Y-10733719D01*
X3314601Y-10686100D02*
X3314601Y-10886100D01*
X3314601Y-10695624D02*
X3333648Y-10686100D01*
X3371743Y-10686100D01*
X3390791Y-10695624D01*
X3400315Y-10705148D01*
X3409839Y-10724195D01*
X3409839Y-10781338D01*
X3400315Y-10800386D01*
X3390791Y-10809909D01*
X3371743Y-10819433D01*
X3333648Y-10819433D01*
X3314601Y-10809909D01*
X3495553Y-10800386D02*
X3505077Y-10809909D01*
X3495553Y-10819433D01*
X3486029Y-10809909D01*
X3495553Y-10800386D01*
X3495553Y-10819433D01*
X3495553Y-10695624D02*
X3505077Y-10705148D01*
X3495553Y-10714671D01*
X3486029Y-10705148D01*
X3495553Y-10695624D01*
X3495553Y-10714671D01*
D12*
X1826505Y-11128957D02*
X1866505Y-11168957D01*
X1866505Y-11128957D02*
X1826505Y-11168957D01*
D11*
X2162220Y-11039433D02*
X2181267Y-11039433D01*
X2200315Y-11048957D01*
X2209839Y-11058481D01*
X2219363Y-11077529D01*
X2228886Y-11115624D01*
X2228886Y-11163243D01*
X2219363Y-11201338D01*
X2209839Y-11220386D01*
X2200315Y-11229909D01*
X2181267Y-11239433D01*
X2162220Y-11239433D01*
X2143172Y-11229909D01*
X2133648Y-11220386D01*
X2124125Y-11201338D01*
X2114601Y-11163243D01*
X2114601Y-11115624D01*
X2124125Y-11077529D01*
X2133648Y-11058481D01*
X2143172Y-11048957D01*
X2162220Y-11039433D01*
X2314601Y-11220386D02*
X2324125Y-11229909D01*
X2314601Y-11239433D01*
X2305077Y-11229909D01*
X2314601Y-11220386D01*
X2314601Y-11239433D01*
X2495553Y-11106100D02*
X2495553Y-11239433D01*
X2447934Y-11029909D02*
X2400315Y-11172767D01*
X2524125Y-11172767D01*
X2638410Y-11039433D02*
X2657458Y-11039433D01*
X2676506Y-11048957D01*
X2686029Y-11058481D01*
X2695553Y-11077529D01*
X2705077Y-11115624D01*
X2705077Y-11163243D01*
X2695553Y-11201338D01*
X2686029Y-11220386D01*
X2676506Y-11229909D01*
X2657458Y-11239433D01*
X2638410Y-11239433D01*
X2619363Y-11229909D01*
X2609839Y-11220386D01*
X2600315Y-11201338D01*
X2590791Y-11163243D01*
X2590791Y-11115624D01*
X2600315Y-11077529D01*
X2609839Y-11058481D01*
X2619363Y-11048957D01*
X2638410Y-11039433D01*
X2828886Y-11039433D02*
X2847934Y-11039433D01*
X2866982Y-11048957D01*
X2876505Y-11058481D01*
X2886029Y-11077529D01*
X2895553Y-11115624D01*
X2895553Y-11163243D01*
X2886029Y-11201338D01*
X2876505Y-11220386D01*
X2866982Y-11229909D01*
X2847934Y-11239433D01*
X2828886Y-11239433D01*
X2809839Y-11229909D01*
X2800315Y-11220386D01*
X2790791Y-11201338D01*
X2781267Y-11163243D01*
X2781267Y-11115624D01*
X2790791Y-11077529D01*
X2800315Y-11058481D01*
X2809839Y-11048957D01*
X2828886Y-11039433D01*
X2981267Y-11239433D02*
X2981267Y-11106100D01*
X2981267Y-11125148D02*
X2990791Y-11115624D01*
X3009839Y-11106100D01*
X3038410Y-11106100D01*
X3057458Y-11115624D01*
X3066982Y-11134671D01*
X3066982Y-11239433D01*
X3066982Y-11134671D02*
X3076505Y-11115624D01*
X3095553Y-11106100D01*
X3124124Y-11106100D01*
X3143172Y-11115624D01*
X3152696Y-11134671D01*
X3152696Y-11239433D01*
X3247934Y-11239433D02*
X3247934Y-11106100D01*
X3247934Y-11125148D02*
X3257458Y-11115624D01*
X3276505Y-11106100D01*
X3305077Y-11106100D01*
X3324124Y-11115624D01*
X3333648Y-11134671D01*
X3333648Y-11239433D01*
X3333648Y-11134671D02*
X3343172Y-11115624D01*
X3362220Y-11106100D01*
X3390791Y-11106100D01*
X3409839Y-11115624D01*
X3419363Y-11134671D01*
X3419363Y-11239433D01*
X3809839Y-11029909D02*
X3638410Y-11287052D01*
X4066982Y-11039433D02*
X4086029Y-11039433D01*
X4105077Y-11048957D01*
X4114601Y-11058481D01*
X4124124Y-11077529D01*
X4133648Y-11115624D01*
X4133648Y-11163243D01*
X4124124Y-11201338D01*
X4114601Y-11220386D01*
X4105077Y-11229909D01*
X4086029Y-11239433D01*
X4066982Y-11239433D01*
X4047934Y-11229909D01*
X4038410Y-11220386D01*
X4028886Y-11201338D01*
X4019363Y-11163243D01*
X4019363Y-11115624D01*
X4028886Y-11077529D01*
X4038410Y-11058481D01*
X4047934Y-11048957D01*
X4066982Y-11039433D01*
X4219363Y-11220386D02*
X4228886Y-11229909D01*
X4219363Y-11239433D01*
X4209839Y-11229909D01*
X4219363Y-11220386D01*
X4219363Y-11239433D01*
X4352696Y-11039433D02*
X4371744Y-11039433D01*
X4390791Y-11048957D01*
X4400315Y-11058481D01*
X4409839Y-11077529D01*
X4419363Y-11115624D01*
X4419363Y-11163243D01*
X4409839Y-11201338D01*
X4400315Y-11220386D01*
X4390791Y-11229909D01*
X4371744Y-11239433D01*
X4352696Y-11239433D01*
X4333648Y-11229909D01*
X4324125Y-11220386D01*
X4314601Y-11201338D01*
X4305077Y-11163243D01*
X4305077Y-11115624D01*
X4314601Y-11077529D01*
X4324125Y-11058481D01*
X4333648Y-11048957D01*
X4352696Y-11039433D01*
X4609839Y-11239433D02*
X4495553Y-11239433D01*
X4552696Y-11239433D02*
X4552696Y-11039433D01*
X4533648Y-11068005D01*
X4514601Y-11087052D01*
X4495553Y-11096576D01*
X4790791Y-11039433D02*
X4695553Y-11039433D01*
X4686029Y-11134671D01*
X4695553Y-11125148D01*
X4714601Y-11115624D01*
X4762220Y-11115624D01*
X4781267Y-11125148D01*
X4790791Y-11134671D01*
X4800315Y-11153719D01*
X4800315Y-11201338D01*
X4790791Y-11220386D01*
X4781267Y-11229909D01*
X4762220Y-11239433D01*
X4714601Y-11239433D01*
X4695553Y-11229909D01*
X4686029Y-11220386D01*
X4866982Y-11039433D02*
X5000315Y-11039433D01*
X4914601Y-11239433D01*
X5066982Y-11039433D02*
X5066982Y-11077529D01*
X5143172Y-11039433D02*
X5143172Y-11077529D01*
X5438410Y-11315624D02*
X5428886Y-11306100D01*
X5409839Y-11277528D01*
X5400315Y-11258481D01*
X5390791Y-11229909D01*
X5381267Y-11182290D01*
X5381267Y-11144195D01*
X5390791Y-11096576D01*
X5400315Y-11068005D01*
X5409839Y-11048957D01*
X5428886Y-11020386D01*
X5438410Y-11010862D01*
X5619363Y-11239433D02*
X5505077Y-11239433D01*
X5562220Y-11239433D02*
X5562220Y-11039433D01*
X5543172Y-11068005D01*
X5524125Y-11087052D01*
X5505077Y-11096576D01*
X5790791Y-11106100D02*
X5790791Y-11239433D01*
X5743172Y-11029909D02*
X5695553Y-11172767D01*
X5819363Y-11172767D01*
X6047934Y-11239433D02*
X6047934Y-11039433D01*
X6133648Y-11239433D02*
X6133648Y-11134671D01*
X6124124Y-11115624D01*
X6105077Y-11106100D01*
X6076505Y-11106100D01*
X6057458Y-11115624D01*
X6047934Y-11125148D01*
X6257458Y-11239433D02*
X6238410Y-11229909D01*
X6228886Y-11220386D01*
X6219363Y-11201338D01*
X6219363Y-11144195D01*
X6228886Y-11125148D01*
X6238410Y-11115624D01*
X6257458Y-11106100D01*
X6286029Y-11106100D01*
X6305077Y-11115624D01*
X6314601Y-11125148D01*
X6324124Y-11144195D01*
X6324124Y-11201338D01*
X6314601Y-11220386D01*
X6305077Y-11229909D01*
X6286029Y-11239433D01*
X6257458Y-11239433D01*
X6438410Y-11239433D02*
X6419363Y-11229909D01*
X6409839Y-11210862D01*
X6409839Y-11039433D01*
X6590791Y-11229909D02*
X6571743Y-11239433D01*
X6533648Y-11239433D01*
X6514601Y-11229909D01*
X6505077Y-11210862D01*
X6505077Y-11134671D01*
X6514601Y-11115624D01*
X6533648Y-11106100D01*
X6571743Y-11106100D01*
X6590791Y-11115624D01*
X6600315Y-11134671D01*
X6600315Y-11153719D01*
X6505077Y-11172767D01*
X6676505Y-11229909D02*
X6695553Y-11239433D01*
X6733648Y-11239433D01*
X6752696Y-11229909D01*
X6762220Y-11210862D01*
X6762220Y-11201338D01*
X6752696Y-11182290D01*
X6733648Y-11172767D01*
X6705077Y-11172767D01*
X6686029Y-11163243D01*
X6676505Y-11144195D01*
X6676505Y-11134671D01*
X6686029Y-11115624D01*
X6705077Y-11106100D01*
X6733648Y-11106100D01*
X6752696Y-11115624D01*
X6828886Y-11315624D02*
X6838410Y-11306100D01*
X6857458Y-11277528D01*
X6866982Y-11258481D01*
X6876505Y-11229909D01*
X6886029Y-11182290D01*
X6886029Y-11144195D01*
X6876505Y-11096576D01*
X6866982Y-11068005D01*
X6857458Y-11048957D01*
X6838410Y-11020386D01*
X6828886Y-11010862D01*
D12*
X1866505Y-11412957D02*
G75*
G03*
X1866505Y-11412957I-20000J0D01*
G01*
D11*
X2162220Y-11303433D02*
X2181267Y-11303433D01*
X2200315Y-11312957D01*
X2209839Y-11322481D01*
X2219363Y-11341528D01*
X2228886Y-11379624D01*
X2228886Y-11427243D01*
X2219363Y-11465338D01*
X2209839Y-11484386D01*
X2200315Y-11493909D01*
X2181267Y-11503433D01*
X2162220Y-11503433D01*
X2143172Y-11493909D01*
X2133648Y-11484386D01*
X2124125Y-11465338D01*
X2114601Y-11427243D01*
X2114601Y-11379624D01*
X2124125Y-11341528D01*
X2133648Y-11322481D01*
X2143172Y-11312957D01*
X2162220Y-11303433D01*
X2314601Y-11484386D02*
X2324125Y-11493909D01*
X2314601Y-11503433D01*
X2305077Y-11493909D01*
X2314601Y-11484386D01*
X2314601Y-11503433D01*
X2495553Y-11370100D02*
X2495553Y-11503433D01*
X2447934Y-11293909D02*
X2400315Y-11436767D01*
X2524125Y-11436767D01*
X2638410Y-11303433D02*
X2657458Y-11303433D01*
X2676506Y-11312957D01*
X2686029Y-11322481D01*
X2695553Y-11341528D01*
X2705077Y-11379624D01*
X2705077Y-11427243D01*
X2695553Y-11465338D01*
X2686029Y-11484386D01*
X2676506Y-11493909D01*
X2657458Y-11503433D01*
X2638410Y-11503433D01*
X2619363Y-11493909D01*
X2609839Y-11484386D01*
X2600315Y-11465338D01*
X2590791Y-11427243D01*
X2590791Y-11379624D01*
X2600315Y-11341528D01*
X2609839Y-11322481D01*
X2619363Y-11312957D01*
X2638410Y-11303433D01*
X2828886Y-11303433D02*
X2847934Y-11303433D01*
X2866982Y-11312957D01*
X2876505Y-11322481D01*
X2886029Y-11341528D01*
X2895553Y-11379624D01*
X2895553Y-11427243D01*
X2886029Y-11465338D01*
X2876505Y-11484386D01*
X2866982Y-11493909D01*
X2847934Y-11503433D01*
X2828886Y-11503433D01*
X2809839Y-11493909D01*
X2800315Y-11484386D01*
X2790791Y-11465338D01*
X2781267Y-11427243D01*
X2781267Y-11379624D01*
X2790791Y-11341528D01*
X2800315Y-11322481D01*
X2809839Y-11312957D01*
X2828886Y-11303433D01*
X2981267Y-11503433D02*
X2981267Y-11370100D01*
X2981267Y-11389147D02*
X2990791Y-11379624D01*
X3009839Y-11370100D01*
X3038410Y-11370100D01*
X3057458Y-11379624D01*
X3066982Y-11398671D01*
X3066982Y-11503433D01*
X3066982Y-11398671D02*
X3076505Y-11379624D01*
X3095553Y-11370100D01*
X3124124Y-11370100D01*
X3143172Y-11379624D01*
X3152696Y-11398671D01*
X3152696Y-11503433D01*
X3247934Y-11503433D02*
X3247934Y-11370100D01*
X3247934Y-11389147D02*
X3257458Y-11379624D01*
X3276505Y-11370100D01*
X3305077Y-11370100D01*
X3324124Y-11379624D01*
X3333648Y-11398671D01*
X3333648Y-11503433D01*
X3333648Y-11398671D02*
X3343172Y-11379624D01*
X3362220Y-11370100D01*
X3390791Y-11370100D01*
X3409839Y-11379624D01*
X3419363Y-11398671D01*
X3419363Y-11503433D01*
X3809839Y-11293909D02*
X3638410Y-11551052D01*
X4066982Y-11303433D02*
X4086029Y-11303433D01*
X4105077Y-11312957D01*
X4114601Y-11322481D01*
X4124124Y-11341528D01*
X4133648Y-11379624D01*
X4133648Y-11427243D01*
X4124124Y-11465338D01*
X4114601Y-11484386D01*
X4105077Y-11493909D01*
X4086029Y-11503433D01*
X4066982Y-11503433D01*
X4047934Y-11493909D01*
X4038410Y-11484386D01*
X4028886Y-11465338D01*
X4019363Y-11427243D01*
X4019363Y-11379624D01*
X4028886Y-11341528D01*
X4038410Y-11322481D01*
X4047934Y-11312957D01*
X4066982Y-11303433D01*
X4219363Y-11484386D02*
X4228886Y-11493909D01*
X4219363Y-11503433D01*
X4209839Y-11493909D01*
X4219363Y-11484386D01*
X4219363Y-11503433D01*
X4352696Y-11303433D02*
X4371744Y-11303433D01*
X4390791Y-11312957D01*
X4400315Y-11322481D01*
X4409839Y-11341528D01*
X4419363Y-11379624D01*
X4419363Y-11427243D01*
X4409839Y-11465338D01*
X4400315Y-11484386D01*
X4390791Y-11493909D01*
X4371744Y-11503433D01*
X4352696Y-11503433D01*
X4333648Y-11493909D01*
X4324125Y-11484386D01*
X4314601Y-11465338D01*
X4305077Y-11427243D01*
X4305077Y-11379624D01*
X4314601Y-11341528D01*
X4324125Y-11322481D01*
X4333648Y-11312957D01*
X4352696Y-11303433D01*
X4609839Y-11503433D02*
X4495553Y-11503433D01*
X4552696Y-11503433D02*
X4552696Y-11303433D01*
X4533648Y-11332005D01*
X4514601Y-11351052D01*
X4495553Y-11360576D01*
X4790791Y-11303433D02*
X4695553Y-11303433D01*
X4686029Y-11398671D01*
X4695553Y-11389147D01*
X4714601Y-11379624D01*
X4762220Y-11379624D01*
X4781267Y-11389147D01*
X4790791Y-11398671D01*
X4800315Y-11417719D01*
X4800315Y-11465338D01*
X4790791Y-11484386D01*
X4781267Y-11493909D01*
X4762220Y-11503433D01*
X4714601Y-11503433D01*
X4695553Y-11493909D01*
X4686029Y-11484386D01*
X4866982Y-11303433D02*
X5000315Y-11303433D01*
X4914601Y-11503433D01*
X5066982Y-11303433D02*
X5066982Y-11341528D01*
X5143172Y-11303433D02*
X5143172Y-11341528D01*
X5438410Y-11579624D02*
X5428886Y-11570100D01*
X5409839Y-11541528D01*
X5400315Y-11522481D01*
X5390791Y-11493909D01*
X5381267Y-11446290D01*
X5381267Y-11408195D01*
X5390791Y-11360576D01*
X5400315Y-11332005D01*
X5409839Y-11312957D01*
X5428886Y-11284386D01*
X5438410Y-11274862D01*
X5505077Y-11322481D02*
X5514601Y-11312957D01*
X5533648Y-11303433D01*
X5581267Y-11303433D01*
X5600315Y-11312957D01*
X5609839Y-11322481D01*
X5619363Y-11341528D01*
X5619363Y-11360576D01*
X5609839Y-11389147D01*
X5495553Y-11503433D01*
X5619363Y-11503433D01*
X5790791Y-11370100D02*
X5790791Y-11503433D01*
X5743172Y-11293909D02*
X5695553Y-11436767D01*
X5819363Y-11436767D01*
X6047934Y-11503433D02*
X6047934Y-11303433D01*
X6133648Y-11503433D02*
X6133648Y-11398671D01*
X6124124Y-11379624D01*
X6105077Y-11370100D01*
X6076505Y-11370100D01*
X6057458Y-11379624D01*
X6047934Y-11389147D01*
X6257458Y-11503433D02*
X6238410Y-11493909D01*
X6228886Y-11484386D01*
X6219363Y-11465338D01*
X6219363Y-11408195D01*
X6228886Y-11389147D01*
X6238410Y-11379624D01*
X6257458Y-11370100D01*
X6286029Y-11370100D01*
X6305077Y-11379624D01*
X6314601Y-11389147D01*
X6324124Y-11408195D01*
X6324124Y-11465338D01*
X6314601Y-11484386D01*
X6305077Y-11493909D01*
X6286029Y-11503433D01*
X6257458Y-11503433D01*
X6438410Y-11503433D02*
X6419363Y-11493909D01*
X6409839Y-11474862D01*
X6409839Y-11303433D01*
X6590791Y-11493909D02*
X6571743Y-11503433D01*
X6533648Y-11503433D01*
X6514601Y-11493909D01*
X6505077Y-11474862D01*
X6505077Y-11398671D01*
X6514601Y-11379624D01*
X6533648Y-11370100D01*
X6571743Y-11370100D01*
X6590791Y-11379624D01*
X6600315Y-11398671D01*
X6600315Y-11417719D01*
X6505077Y-11436767D01*
X6676505Y-11493909D02*
X6695553Y-11503433D01*
X6733648Y-11503433D01*
X6752696Y-11493909D01*
X6762220Y-11474862D01*
X6762220Y-11465338D01*
X6752696Y-11446290D01*
X6733648Y-11436767D01*
X6705077Y-11436767D01*
X6686029Y-11427243D01*
X6676505Y-11408195D01*
X6676505Y-11398671D01*
X6686029Y-11379624D01*
X6705077Y-11370100D01*
X6733648Y-11370100D01*
X6752696Y-11379624D01*
X6828886Y-11579624D02*
X6838410Y-11570100D01*
X6857458Y-11541528D01*
X6866982Y-11522481D01*
X6876505Y-11493909D01*
X6886029Y-11446290D01*
X6886029Y-11408195D01*
X6876505Y-11360576D01*
X6866982Y-11332005D01*
X6857458Y-11312957D01*
X6838410Y-11284386D01*
X6828886Y-11274862D01*
D13*
X1825865Y-11636317D02*
X1825865Y-11717597D01*
X1785225Y-11676957D02*
X1866505Y-11676957D01*
D11*
X2162220Y-11567433D02*
X2181267Y-11567433D01*
X2200315Y-11576957D01*
X2209839Y-11586481D01*
X2219363Y-11605528D01*
X2228886Y-11643624D01*
X2228886Y-11691243D01*
X2219363Y-11729338D01*
X2209839Y-11748386D01*
X2200315Y-11757909D01*
X2181267Y-11767433D01*
X2162220Y-11767433D01*
X2143172Y-11757909D01*
X2133648Y-11748386D01*
X2124125Y-11729338D01*
X2114601Y-11691243D01*
X2114601Y-11643624D01*
X2124125Y-11605528D01*
X2133648Y-11586481D01*
X2143172Y-11576957D01*
X2162220Y-11567433D01*
X2314601Y-11748386D02*
X2324125Y-11757909D01*
X2314601Y-11767433D01*
X2305077Y-11757909D01*
X2314601Y-11748386D01*
X2314601Y-11767433D01*
X2438410Y-11653147D02*
X2419363Y-11643624D01*
X2409839Y-11634100D01*
X2400315Y-11615052D01*
X2400315Y-11605528D01*
X2409839Y-11586481D01*
X2419363Y-11576957D01*
X2438410Y-11567433D01*
X2476506Y-11567433D01*
X2495553Y-11576957D01*
X2505077Y-11586481D01*
X2514601Y-11605528D01*
X2514601Y-11615052D01*
X2505077Y-11634100D01*
X2495553Y-11643624D01*
X2476506Y-11653147D01*
X2438410Y-11653147D01*
X2419363Y-11662671D01*
X2409839Y-11672195D01*
X2400315Y-11691243D01*
X2400315Y-11729338D01*
X2409839Y-11748386D01*
X2419363Y-11757909D01*
X2438410Y-11767433D01*
X2476506Y-11767433D01*
X2495553Y-11757909D01*
X2505077Y-11748386D01*
X2514601Y-11729338D01*
X2514601Y-11691243D01*
X2505077Y-11672195D01*
X2495553Y-11662671D01*
X2476506Y-11653147D01*
X2705077Y-11767433D02*
X2590791Y-11767433D01*
X2647934Y-11767433D02*
X2647934Y-11567433D01*
X2628886Y-11596005D01*
X2609839Y-11615052D01*
X2590791Y-11624576D01*
X2771744Y-11567433D02*
X2895553Y-11567433D01*
X2828886Y-11643624D01*
X2857458Y-11643624D01*
X2876505Y-11653147D01*
X2886029Y-11662671D01*
X2895553Y-11681719D01*
X2895553Y-11729338D01*
X2886029Y-11748386D01*
X2876505Y-11757909D01*
X2857458Y-11767433D01*
X2800315Y-11767433D01*
X2781267Y-11757909D01*
X2771744Y-11748386D01*
X2981267Y-11767433D02*
X2981267Y-11634100D01*
X2981267Y-11653147D02*
X2990791Y-11643624D01*
X3009839Y-11634100D01*
X3038410Y-11634100D01*
X3057458Y-11643624D01*
X3066982Y-11662671D01*
X3066982Y-11767433D01*
X3066982Y-11662671D02*
X3076505Y-11643624D01*
X3095553Y-11634100D01*
X3124124Y-11634100D01*
X3143172Y-11643624D01*
X3152696Y-11662671D01*
X3152696Y-11767433D01*
X3247934Y-11767433D02*
X3247934Y-11634100D01*
X3247934Y-11653147D02*
X3257458Y-11643624D01*
X3276505Y-11634100D01*
X3305077Y-11634100D01*
X3324124Y-11643624D01*
X3333648Y-11662671D01*
X3333648Y-11767433D01*
X3333648Y-11662671D02*
X3343172Y-11643624D01*
X3362220Y-11634100D01*
X3390791Y-11634100D01*
X3409839Y-11643624D01*
X3419363Y-11662671D01*
X3419363Y-11767433D01*
X3809839Y-11557909D02*
X3638410Y-11815052D01*
X4066982Y-11567433D02*
X4086029Y-11567433D01*
X4105077Y-11576957D01*
X4114601Y-11586481D01*
X4124124Y-11605528D01*
X4133648Y-11643624D01*
X4133648Y-11691243D01*
X4124124Y-11729338D01*
X4114601Y-11748386D01*
X4105077Y-11757909D01*
X4086029Y-11767433D01*
X4066982Y-11767433D01*
X4047934Y-11757909D01*
X4038410Y-11748386D01*
X4028886Y-11729338D01*
X4019363Y-11691243D01*
X4019363Y-11643624D01*
X4028886Y-11605528D01*
X4038410Y-11586481D01*
X4047934Y-11576957D01*
X4066982Y-11567433D01*
X4219363Y-11748386D02*
X4228886Y-11757909D01*
X4219363Y-11767433D01*
X4209839Y-11757909D01*
X4219363Y-11748386D01*
X4219363Y-11767433D01*
X4352696Y-11567433D02*
X4371744Y-11567433D01*
X4390791Y-11576957D01*
X4400315Y-11586481D01*
X4409839Y-11605528D01*
X4419363Y-11643624D01*
X4419363Y-11691243D01*
X4409839Y-11729338D01*
X4400315Y-11748386D01*
X4390791Y-11757909D01*
X4371744Y-11767433D01*
X4352696Y-11767433D01*
X4333648Y-11757909D01*
X4324125Y-11748386D01*
X4314601Y-11729338D01*
X4305077Y-11691243D01*
X4305077Y-11643624D01*
X4314601Y-11605528D01*
X4324125Y-11586481D01*
X4333648Y-11576957D01*
X4352696Y-11567433D01*
X4486029Y-11567433D02*
X4609839Y-11567433D01*
X4543172Y-11643624D01*
X4571744Y-11643624D01*
X4590791Y-11653147D01*
X4600315Y-11662671D01*
X4609839Y-11681719D01*
X4609839Y-11729338D01*
X4600315Y-11748386D01*
X4590791Y-11757909D01*
X4571744Y-11767433D01*
X4514601Y-11767433D01*
X4495553Y-11757909D01*
X4486029Y-11748386D01*
X4686029Y-11586481D02*
X4695553Y-11576957D01*
X4714601Y-11567433D01*
X4762220Y-11567433D01*
X4781267Y-11576957D01*
X4790791Y-11586481D01*
X4800315Y-11605528D01*
X4800315Y-11624576D01*
X4790791Y-11653147D01*
X4676505Y-11767433D01*
X4800315Y-11767433D01*
X4924125Y-11567433D02*
X4943172Y-11567433D01*
X4962220Y-11576957D01*
X4971744Y-11586481D01*
X4981267Y-11605528D01*
X4990791Y-11643624D01*
X4990791Y-11691243D01*
X4981267Y-11729338D01*
X4971744Y-11748386D01*
X4962220Y-11757909D01*
X4943172Y-11767433D01*
X4924125Y-11767433D01*
X4905077Y-11757909D01*
X4895553Y-11748386D01*
X4886029Y-11729338D01*
X4876505Y-11691243D01*
X4876505Y-11643624D01*
X4886029Y-11605528D01*
X4895553Y-11586481D01*
X4905077Y-11576957D01*
X4924125Y-11567433D01*
X5066982Y-11567433D02*
X5066982Y-11605528D01*
X5143172Y-11567433D02*
X5143172Y-11605528D01*
X5438410Y-11843624D02*
X5428886Y-11834100D01*
X5409839Y-11805528D01*
X5400315Y-11786481D01*
X5390791Y-11757909D01*
X5381267Y-11710290D01*
X5381267Y-11672195D01*
X5390791Y-11624576D01*
X5400315Y-11596005D01*
X5409839Y-11576957D01*
X5428886Y-11548386D01*
X5438410Y-11538862D01*
X5505077Y-11586481D02*
X5514601Y-11576957D01*
X5533648Y-11567433D01*
X5581267Y-11567433D01*
X5600315Y-11576957D01*
X5609839Y-11586481D01*
X5619363Y-11605528D01*
X5619363Y-11624576D01*
X5609839Y-11653147D01*
X5495553Y-11767433D01*
X5619363Y-11767433D01*
X5857458Y-11767433D02*
X5857458Y-11567433D01*
X5943172Y-11767433D02*
X5943172Y-11662671D01*
X5933648Y-11643624D01*
X5914601Y-11634100D01*
X5886029Y-11634100D01*
X5866982Y-11643624D01*
X5857458Y-11653147D01*
X6066982Y-11767433D02*
X6047934Y-11757909D01*
X6038410Y-11748386D01*
X6028886Y-11729338D01*
X6028886Y-11672195D01*
X6038410Y-11653147D01*
X6047934Y-11643624D01*
X6066982Y-11634100D01*
X6095553Y-11634100D01*
X6114601Y-11643624D01*
X6124124Y-11653147D01*
X6133648Y-11672195D01*
X6133648Y-11729338D01*
X6124124Y-11748386D01*
X6114601Y-11757909D01*
X6095553Y-11767433D01*
X6066982Y-11767433D01*
X6247934Y-11767433D02*
X6228886Y-11757909D01*
X6219363Y-11738862D01*
X6219363Y-11567433D01*
X6400315Y-11757909D02*
X6381267Y-11767433D01*
X6343172Y-11767433D01*
X6324124Y-11757909D01*
X6314601Y-11738862D01*
X6314601Y-11662671D01*
X6324124Y-11643624D01*
X6343172Y-11634100D01*
X6381267Y-11634100D01*
X6400315Y-11643624D01*
X6409839Y-11662671D01*
X6409839Y-11681719D01*
X6314601Y-11700767D01*
X6486029Y-11757909D02*
X6505077Y-11767433D01*
X6543172Y-11767433D01*
X6562220Y-11757909D01*
X6571743Y-11738862D01*
X6571743Y-11729338D01*
X6562220Y-11710290D01*
X6543172Y-11700767D01*
X6514601Y-11700767D01*
X6495553Y-11691243D01*
X6486029Y-11672195D01*
X6486029Y-11662671D01*
X6495553Y-11643624D01*
X6514601Y-11634100D01*
X6543172Y-11634100D01*
X6562220Y-11643624D01*
X6638410Y-11843624D02*
X6647934Y-11834100D01*
X6666982Y-11805528D01*
X6676505Y-11786481D01*
X6686029Y-11757909D01*
X6695553Y-11710290D01*
X6695553Y-11672195D01*
X6686029Y-11624576D01*
X6676505Y-11596005D01*
X6666982Y-11576957D01*
X6647934Y-11548386D01*
X6638410Y-11538862D01*
D14*
X1853326Y-11972777D02*
X1853326Y-11909137D01*
X1789685Y-11909137D01*
X1789685Y-11972777D01*
X1853326Y-11972777D01*
D11*
X2162220Y-11831433D02*
X2181267Y-11831433D01*
X2200315Y-11840957D01*
X2209839Y-11850481D01*
X2219363Y-11869528D01*
X2228886Y-11907624D01*
X2228886Y-11955243D01*
X2219363Y-11993338D01*
X2209839Y-12012386D01*
X2200315Y-12021909D01*
X2181267Y-12031433D01*
X2162220Y-12031433D01*
X2143172Y-12021909D01*
X2133648Y-12012386D01*
X2124125Y-11993338D01*
X2114601Y-11955243D01*
X2114601Y-11907624D01*
X2124125Y-11869528D01*
X2133648Y-11850481D01*
X2143172Y-11840957D01*
X2162220Y-11831433D01*
X2314601Y-12012386D02*
X2324125Y-12021909D01*
X2314601Y-12031433D01*
X2305077Y-12021909D01*
X2314601Y-12012386D01*
X2314601Y-12031433D01*
X2419363Y-12031433D02*
X2457458Y-12031433D01*
X2476506Y-12021909D01*
X2486029Y-12012386D01*
X2505077Y-11983814D01*
X2514601Y-11945719D01*
X2514601Y-11869528D01*
X2505077Y-11850481D01*
X2495553Y-11840957D01*
X2476506Y-11831433D01*
X2438410Y-11831433D01*
X2419363Y-11840957D01*
X2409839Y-11850481D01*
X2400315Y-11869528D01*
X2400315Y-11917147D01*
X2409839Y-11936195D01*
X2419363Y-11945719D01*
X2438410Y-11955243D01*
X2476506Y-11955243D01*
X2495553Y-11945719D01*
X2505077Y-11936195D01*
X2514601Y-11917147D01*
X2638410Y-11831433D02*
X2657458Y-11831433D01*
X2676506Y-11840957D01*
X2686029Y-11850481D01*
X2695553Y-11869528D01*
X2705077Y-11907624D01*
X2705077Y-11955243D01*
X2695553Y-11993338D01*
X2686029Y-12012386D01*
X2676506Y-12021909D01*
X2657458Y-12031433D01*
X2638410Y-12031433D01*
X2619363Y-12021909D01*
X2609839Y-12012386D01*
X2600315Y-11993338D01*
X2590791Y-11955243D01*
X2590791Y-11907624D01*
X2600315Y-11869528D01*
X2609839Y-11850481D01*
X2619363Y-11840957D01*
X2638410Y-11831433D01*
X2828886Y-11831433D02*
X2847934Y-11831433D01*
X2866982Y-11840957D01*
X2876505Y-11850481D01*
X2886029Y-11869528D01*
X2895553Y-11907624D01*
X2895553Y-11955243D01*
X2886029Y-11993338D01*
X2876505Y-12012386D01*
X2866982Y-12021909D01*
X2847934Y-12031433D01*
X2828886Y-12031433D01*
X2809839Y-12021909D01*
X2800315Y-12012386D01*
X2790791Y-11993338D01*
X2781267Y-11955243D01*
X2781267Y-11907624D01*
X2790791Y-11869528D01*
X2800315Y-11850481D01*
X2809839Y-11840957D01*
X2828886Y-11831433D01*
X2981267Y-12031433D02*
X2981267Y-11898100D01*
X2981267Y-11917147D02*
X2990791Y-11907624D01*
X3009839Y-11898100D01*
X3038410Y-11898100D01*
X3057458Y-11907624D01*
X3066982Y-11926671D01*
X3066982Y-12031433D01*
X3066982Y-11926671D02*
X3076505Y-11907624D01*
X3095553Y-11898100D01*
X3124124Y-11898100D01*
X3143172Y-11907624D01*
X3152696Y-11926671D01*
X3152696Y-12031433D01*
X3247934Y-12031433D02*
X3247934Y-11898100D01*
X3247934Y-11917147D02*
X3257458Y-11907624D01*
X3276505Y-11898100D01*
X3305077Y-11898100D01*
X3324124Y-11907624D01*
X3333648Y-11926671D01*
X3333648Y-12031433D01*
X3333648Y-11926671D02*
X3343172Y-11907624D01*
X3362220Y-11898100D01*
X3390791Y-11898100D01*
X3409839Y-11907624D01*
X3419363Y-11926671D01*
X3419363Y-12031433D01*
X3809839Y-11821909D02*
X3638410Y-12079052D01*
X4066982Y-11831433D02*
X4086029Y-11831433D01*
X4105077Y-11840957D01*
X4114601Y-11850481D01*
X4124124Y-11869528D01*
X4133648Y-11907624D01*
X4133648Y-11955243D01*
X4124124Y-11993338D01*
X4114601Y-12012386D01*
X4105077Y-12021909D01*
X4086029Y-12031433D01*
X4066982Y-12031433D01*
X4047934Y-12021909D01*
X4038410Y-12012386D01*
X4028886Y-11993338D01*
X4019363Y-11955243D01*
X4019363Y-11907624D01*
X4028886Y-11869528D01*
X4038410Y-11850481D01*
X4047934Y-11840957D01*
X4066982Y-11831433D01*
X4219363Y-12012386D02*
X4228886Y-12021909D01*
X4219363Y-12031433D01*
X4209839Y-12021909D01*
X4219363Y-12012386D01*
X4219363Y-12031433D01*
X4352696Y-11831433D02*
X4371744Y-11831433D01*
X4390791Y-11840957D01*
X4400315Y-11850481D01*
X4409839Y-11869528D01*
X4419363Y-11907624D01*
X4419363Y-11955243D01*
X4409839Y-11993338D01*
X4400315Y-12012386D01*
X4390791Y-12021909D01*
X4371744Y-12031433D01*
X4352696Y-12031433D01*
X4333648Y-12021909D01*
X4324125Y-12012386D01*
X4314601Y-11993338D01*
X4305077Y-11955243D01*
X4305077Y-11907624D01*
X4314601Y-11869528D01*
X4324125Y-11850481D01*
X4333648Y-11840957D01*
X4352696Y-11831433D01*
X4486029Y-11831433D02*
X4609839Y-11831433D01*
X4543172Y-11907624D01*
X4571744Y-11907624D01*
X4590791Y-11917147D01*
X4600315Y-11926671D01*
X4609839Y-11945719D01*
X4609839Y-11993338D01*
X4600315Y-12012386D01*
X4590791Y-12021909D01*
X4571744Y-12031433D01*
X4514601Y-12031433D01*
X4495553Y-12021909D01*
X4486029Y-12012386D01*
X4790791Y-11831433D02*
X4695553Y-11831433D01*
X4686029Y-11926671D01*
X4695553Y-11917147D01*
X4714601Y-11907624D01*
X4762220Y-11907624D01*
X4781267Y-11917147D01*
X4790791Y-11926671D01*
X4800315Y-11945719D01*
X4800315Y-11993338D01*
X4790791Y-12012386D01*
X4781267Y-12021909D01*
X4762220Y-12031433D01*
X4714601Y-12031433D01*
X4695553Y-12021909D01*
X4686029Y-12012386D01*
X4971744Y-11898100D02*
X4971744Y-12031433D01*
X4924125Y-11821909D02*
X4876505Y-11964767D01*
X5000315Y-11964767D01*
X5066982Y-11831433D02*
X5066982Y-11869528D01*
X5143172Y-11831433D02*
X5143172Y-11869528D01*
X5438410Y-12107624D02*
X5428886Y-12098100D01*
X5409839Y-12069528D01*
X5400315Y-12050481D01*
X5390791Y-12021909D01*
X5381267Y-11974290D01*
X5381267Y-11936195D01*
X5390791Y-11888576D01*
X5400315Y-11860005D01*
X5409839Y-11840957D01*
X5428886Y-11812386D01*
X5438410Y-11802862D01*
X5552696Y-11831433D02*
X5571744Y-11831433D01*
X5590791Y-11840957D01*
X5600315Y-11850481D01*
X5609839Y-11869528D01*
X5619363Y-11907624D01*
X5619363Y-11955243D01*
X5609839Y-11993338D01*
X5600315Y-12012386D01*
X5590791Y-12021909D01*
X5571744Y-12031433D01*
X5552696Y-12031433D01*
X5533648Y-12021909D01*
X5524125Y-12012386D01*
X5514601Y-11993338D01*
X5505077Y-11955243D01*
X5505077Y-11907624D01*
X5514601Y-11869528D01*
X5524125Y-11850481D01*
X5533648Y-11840957D01*
X5552696Y-11831433D01*
X5857458Y-12031433D02*
X5857458Y-11831433D01*
X5943172Y-12031433D02*
X5943172Y-11926671D01*
X5933648Y-11907624D01*
X5914601Y-11898100D01*
X5886029Y-11898100D01*
X5866982Y-11907624D01*
X5857458Y-11917147D01*
X6066982Y-12031433D02*
X6047934Y-12021909D01*
X6038410Y-12012386D01*
X6028886Y-11993338D01*
X6028886Y-11936195D01*
X6038410Y-11917147D01*
X6047934Y-11907624D01*
X6066982Y-11898100D01*
X6095553Y-11898100D01*
X6114601Y-11907624D01*
X6124124Y-11917147D01*
X6133648Y-11936195D01*
X6133648Y-11993338D01*
X6124124Y-12012386D01*
X6114601Y-12021909D01*
X6095553Y-12031433D01*
X6066982Y-12031433D01*
X6247934Y-12031433D02*
X6228886Y-12021909D01*
X6219363Y-12002862D01*
X6219363Y-11831433D01*
X6400315Y-12021909D02*
X6381267Y-12031433D01*
X6343172Y-12031433D01*
X6324124Y-12021909D01*
X6314601Y-12002862D01*
X6314601Y-11926671D01*
X6324124Y-11907624D01*
X6343172Y-11898100D01*
X6381267Y-11898100D01*
X6400315Y-11907624D01*
X6409839Y-11926671D01*
X6409839Y-11945719D01*
X6314601Y-11964767D01*
X6486029Y-12021909D02*
X6505077Y-12031433D01*
X6543172Y-12031433D01*
X6562220Y-12021909D01*
X6571743Y-12002862D01*
X6571743Y-11993338D01*
X6562220Y-11974290D01*
X6543172Y-11964767D01*
X6514601Y-11964767D01*
X6495553Y-11955243D01*
X6486029Y-11936195D01*
X6486029Y-11926671D01*
X6495553Y-11907624D01*
X6514601Y-11898100D01*
X6543172Y-11898100D01*
X6562220Y-11907624D01*
X6809839Y-11955243D02*
X6962220Y-11955243D01*
X6886029Y-12031433D02*
X6886029Y-11879052D01*
X7238410Y-11917147D02*
X7219363Y-11907624D01*
X7209839Y-11898100D01*
X7200315Y-11879052D01*
X7200315Y-11869528D01*
X7209839Y-11850481D01*
X7219363Y-11840957D01*
X7238410Y-11831433D01*
X7276505Y-11831433D01*
X7295553Y-11840957D01*
X7305077Y-11850481D01*
X7314601Y-11869528D01*
X7314601Y-11879052D01*
X7305077Y-11898100D01*
X7295553Y-11907624D01*
X7276505Y-11917147D01*
X7238410Y-11917147D01*
X7219363Y-11926671D01*
X7209839Y-11936195D01*
X7200315Y-11955243D01*
X7200315Y-11993338D01*
X7209839Y-12012386D01*
X7219363Y-12021909D01*
X7238410Y-12031433D01*
X7276505Y-12031433D01*
X7295553Y-12021909D01*
X7305077Y-12012386D01*
X7314601Y-11993338D01*
X7314601Y-11955243D01*
X7305077Y-11936195D01*
X7295553Y-11926671D01*
X7276505Y-11917147D01*
X7543172Y-12021909D02*
X7562220Y-12031433D01*
X7600315Y-12031433D01*
X7619363Y-12021909D01*
X7628886Y-12002862D01*
X7628886Y-11993338D01*
X7619363Y-11974290D01*
X7600315Y-11964767D01*
X7571743Y-11964767D01*
X7552696Y-11955243D01*
X7543172Y-11936195D01*
X7543172Y-11926671D01*
X7552696Y-11907624D01*
X7571743Y-11898100D01*
X7600315Y-11898100D01*
X7619363Y-11907624D01*
X7743172Y-12031433D02*
X7724124Y-12021909D01*
X7714601Y-12002862D01*
X7714601Y-11831433D01*
X7847934Y-12031433D02*
X7828886Y-12021909D01*
X7819363Y-12012386D01*
X7809839Y-11993338D01*
X7809839Y-11936195D01*
X7819363Y-11917147D01*
X7828886Y-11907624D01*
X7847934Y-11898100D01*
X7876505Y-11898100D01*
X7895553Y-11907624D01*
X7905077Y-11917147D01*
X7914601Y-11936195D01*
X7914601Y-11993338D01*
X7905077Y-12012386D01*
X7895553Y-12021909D01*
X7876505Y-12031433D01*
X7847934Y-12031433D01*
X7971743Y-11898100D02*
X8047934Y-11898100D01*
X8000315Y-11831433D02*
X8000315Y-12002862D01*
X8009839Y-12021909D01*
X8028886Y-12031433D01*
X8047934Y-12031433D01*
X8105077Y-12021909D02*
X8124124Y-12031433D01*
X8162220Y-12031433D01*
X8181267Y-12021909D01*
X8190791Y-12002862D01*
X8190791Y-11993338D01*
X8181267Y-11974290D01*
X8162220Y-11964767D01*
X8133648Y-11964767D01*
X8114601Y-11955243D01*
X8105077Y-11936195D01*
X8105077Y-11926671D01*
X8114601Y-11907624D01*
X8133648Y-11898100D01*
X8162220Y-11898100D01*
X8181267Y-11907624D01*
X8257458Y-12107624D02*
X8266982Y-12098100D01*
X8286029Y-12069528D01*
X8295553Y-12050481D01*
X8305077Y-12021909D01*
X8314601Y-11974290D01*
X8314601Y-11936195D01*
X8305077Y-11888576D01*
X8295553Y-11860005D01*
X8286029Y-11840957D01*
X8266982Y-11812386D01*
X8257458Y-11802862D01*
D15*
X1811505Y-12259957D02*
X1866505Y-12204957D01*
X1811505Y-12149957D01*
X1756505Y-12204957D01*
X1811505Y-12259957D01*
D11*
X2228886Y-12295433D02*
X2114601Y-12295433D01*
X2171744Y-12295433D02*
X2171744Y-12095433D01*
X2152696Y-12124005D01*
X2133648Y-12143052D01*
X2114601Y-12152576D01*
X2314601Y-12276386D02*
X2324125Y-12285909D01*
X2314601Y-12295433D01*
X2305077Y-12285909D01*
X2314601Y-12276386D01*
X2314601Y-12295433D01*
X2514601Y-12295433D02*
X2400315Y-12295433D01*
X2457458Y-12295433D02*
X2457458Y-12095433D01*
X2438410Y-12124005D01*
X2419363Y-12143052D01*
X2400315Y-12152576D01*
X2638410Y-12095433D02*
X2657458Y-12095433D01*
X2676506Y-12104957D01*
X2686029Y-12114481D01*
X2695553Y-12133528D01*
X2705077Y-12171624D01*
X2705077Y-12219243D01*
X2695553Y-12257338D01*
X2686029Y-12276386D01*
X2676506Y-12285909D01*
X2657458Y-12295433D01*
X2638410Y-12295433D01*
X2619363Y-12285909D01*
X2609839Y-12276386D01*
X2600315Y-12257338D01*
X2590791Y-12219243D01*
X2590791Y-12171624D01*
X2600315Y-12133528D01*
X2609839Y-12114481D01*
X2619363Y-12104957D01*
X2638410Y-12095433D01*
X2828886Y-12095433D02*
X2847934Y-12095433D01*
X2866982Y-12104957D01*
X2876505Y-12114481D01*
X2886029Y-12133528D01*
X2895553Y-12171624D01*
X2895553Y-12219243D01*
X2886029Y-12257338D01*
X2876505Y-12276386D01*
X2866982Y-12285909D01*
X2847934Y-12295433D01*
X2828886Y-12295433D01*
X2809839Y-12285909D01*
X2800315Y-12276386D01*
X2790791Y-12257338D01*
X2781267Y-12219243D01*
X2781267Y-12171624D01*
X2790791Y-12133528D01*
X2800315Y-12114481D01*
X2809839Y-12104957D01*
X2828886Y-12095433D01*
X2981267Y-12295433D02*
X2981267Y-12162100D01*
X2981267Y-12181147D02*
X2990791Y-12171624D01*
X3009839Y-12162100D01*
X3038410Y-12162100D01*
X3057458Y-12171624D01*
X3066982Y-12190671D01*
X3066982Y-12295433D01*
X3066982Y-12190671D02*
X3076505Y-12171624D01*
X3095553Y-12162100D01*
X3124124Y-12162100D01*
X3143172Y-12171624D01*
X3152696Y-12190671D01*
X3152696Y-12295433D01*
X3247934Y-12295433D02*
X3247934Y-12162100D01*
X3247934Y-12181147D02*
X3257458Y-12171624D01*
X3276505Y-12162100D01*
X3305077Y-12162100D01*
X3324124Y-12171624D01*
X3333648Y-12190671D01*
X3333648Y-12295433D01*
X3333648Y-12190671D02*
X3343172Y-12171624D01*
X3362220Y-12162100D01*
X3390791Y-12162100D01*
X3409839Y-12171624D01*
X3419363Y-12190671D01*
X3419363Y-12295433D01*
X3809839Y-12085909D02*
X3638410Y-12343052D01*
X4066982Y-12095433D02*
X4086029Y-12095433D01*
X4105077Y-12104957D01*
X4114601Y-12114481D01*
X4124124Y-12133528D01*
X4133648Y-12171624D01*
X4133648Y-12219243D01*
X4124124Y-12257338D01*
X4114601Y-12276386D01*
X4105077Y-12285909D01*
X4086029Y-12295433D01*
X4066982Y-12295433D01*
X4047934Y-12285909D01*
X4038410Y-12276386D01*
X4028886Y-12257338D01*
X4019363Y-12219243D01*
X4019363Y-12171624D01*
X4028886Y-12133528D01*
X4038410Y-12114481D01*
X4047934Y-12104957D01*
X4066982Y-12095433D01*
X4219363Y-12276386D02*
X4228886Y-12285909D01*
X4219363Y-12295433D01*
X4209839Y-12285909D01*
X4219363Y-12276386D01*
X4219363Y-12295433D01*
X4352696Y-12095433D02*
X4371744Y-12095433D01*
X4390791Y-12104957D01*
X4400315Y-12114481D01*
X4409839Y-12133528D01*
X4419363Y-12171624D01*
X4419363Y-12219243D01*
X4409839Y-12257338D01*
X4400315Y-12276386D01*
X4390791Y-12285909D01*
X4371744Y-12295433D01*
X4352696Y-12295433D01*
X4333648Y-12285909D01*
X4324125Y-12276386D01*
X4314601Y-12257338D01*
X4305077Y-12219243D01*
X4305077Y-12171624D01*
X4314601Y-12133528D01*
X4324125Y-12114481D01*
X4333648Y-12104957D01*
X4352696Y-12095433D01*
X4590791Y-12162100D02*
X4590791Y-12295433D01*
X4543172Y-12085909D02*
X4495553Y-12228767D01*
X4619363Y-12228767D01*
X4676505Y-12095433D02*
X4800315Y-12095433D01*
X4733648Y-12171624D01*
X4762220Y-12171624D01*
X4781267Y-12181147D01*
X4790791Y-12190671D01*
X4800315Y-12209719D01*
X4800315Y-12257338D01*
X4790791Y-12276386D01*
X4781267Y-12285909D01*
X4762220Y-12295433D01*
X4705077Y-12295433D01*
X4686029Y-12285909D01*
X4676505Y-12276386D01*
X4866982Y-12095433D02*
X4990791Y-12095433D01*
X4924125Y-12171624D01*
X4952696Y-12171624D01*
X4971744Y-12181147D01*
X4981267Y-12190671D01*
X4990791Y-12209719D01*
X4990791Y-12257338D01*
X4981267Y-12276386D01*
X4971744Y-12285909D01*
X4952696Y-12295433D01*
X4895553Y-12295433D01*
X4876505Y-12285909D01*
X4866982Y-12276386D01*
X5066982Y-12095433D02*
X5066982Y-12133528D01*
X5143172Y-12095433D02*
X5143172Y-12133528D01*
X5438410Y-12371624D02*
X5428886Y-12362100D01*
X5409839Y-12333528D01*
X5400315Y-12314481D01*
X5390791Y-12285909D01*
X5381267Y-12238290D01*
X5381267Y-12200195D01*
X5390791Y-12152576D01*
X5400315Y-12124005D01*
X5409839Y-12104957D01*
X5428886Y-12076386D01*
X5438410Y-12066862D01*
X5505077Y-12114481D02*
X5514601Y-12104957D01*
X5533648Y-12095433D01*
X5581267Y-12095433D01*
X5600315Y-12104957D01*
X5609839Y-12114481D01*
X5619363Y-12133528D01*
X5619363Y-12152576D01*
X5609839Y-12181147D01*
X5495553Y-12295433D01*
X5619363Y-12295433D01*
X5790791Y-12095433D02*
X5752696Y-12095433D01*
X5733648Y-12104957D01*
X5724124Y-12114481D01*
X5705077Y-12143052D01*
X5695553Y-12181147D01*
X5695553Y-12257338D01*
X5705077Y-12276386D01*
X5714601Y-12285909D01*
X5733648Y-12295433D01*
X5771743Y-12295433D01*
X5790791Y-12285909D01*
X5800315Y-12276386D01*
X5809839Y-12257338D01*
X5809839Y-12209719D01*
X5800315Y-12190671D01*
X5790791Y-12181147D01*
X5771743Y-12171624D01*
X5733648Y-12171624D01*
X5714601Y-12181147D01*
X5705077Y-12190671D01*
X5695553Y-12209719D01*
X6047934Y-12295433D02*
X6047934Y-12095433D01*
X6133648Y-12295433D02*
X6133648Y-12190671D01*
X6124124Y-12171624D01*
X6105077Y-12162100D01*
X6076505Y-12162100D01*
X6057458Y-12171624D01*
X6047934Y-12181147D01*
X6257458Y-12295433D02*
X6238410Y-12285909D01*
X6228886Y-12276386D01*
X6219363Y-12257338D01*
X6219363Y-12200195D01*
X6228886Y-12181147D01*
X6238410Y-12171624D01*
X6257458Y-12162100D01*
X6286029Y-12162100D01*
X6305077Y-12171624D01*
X6314601Y-12181147D01*
X6324124Y-12200195D01*
X6324124Y-12257338D01*
X6314601Y-12276386D01*
X6305077Y-12285909D01*
X6286029Y-12295433D01*
X6257458Y-12295433D01*
X6438410Y-12295433D02*
X6419363Y-12285909D01*
X6409839Y-12266862D01*
X6409839Y-12095433D01*
X6590791Y-12285909D02*
X6571743Y-12295433D01*
X6533648Y-12295433D01*
X6514601Y-12285909D01*
X6505077Y-12266862D01*
X6505077Y-12190671D01*
X6514601Y-12171624D01*
X6533648Y-12162100D01*
X6571743Y-12162100D01*
X6590791Y-12171624D01*
X6600315Y-12190671D01*
X6600315Y-12209719D01*
X6505077Y-12228767D01*
X6676505Y-12285909D02*
X6695553Y-12295433D01*
X6733648Y-12295433D01*
X6752696Y-12285909D01*
X6762220Y-12266862D01*
X6762220Y-12257338D01*
X6752696Y-12238290D01*
X6733648Y-12228767D01*
X6705077Y-12228767D01*
X6686029Y-12219243D01*
X6676505Y-12200195D01*
X6676505Y-12190671D01*
X6686029Y-12171624D01*
X6705077Y-12162100D01*
X6733648Y-12162100D01*
X6752696Y-12171624D01*
X6828886Y-12371624D02*
X6838410Y-12362100D01*
X6857458Y-12333528D01*
X6866982Y-12314481D01*
X6876505Y-12285909D01*
X6886029Y-12238290D01*
X6886029Y-12200195D01*
X6876505Y-12152576D01*
X6866982Y-12124005D01*
X6857458Y-12104957D01*
X6838410Y-12076386D01*
X6828886Y-12066862D01*
D16*
X1716505Y-12393957D02*
X1866505Y-12543957D01*
X1866505Y-12393957D02*
X1716505Y-12543957D01*
X1866505Y-12468957D02*
G75*
G03*
X1866505Y-12468957I-75000J0D01*
G01*
D11*
X2228886Y-12559433D02*
X2114601Y-12559433D01*
X2171744Y-12559433D02*
X2171744Y-12359433D01*
X2152696Y-12388005D01*
X2133648Y-12407052D01*
X2114601Y-12416576D01*
X2314601Y-12540386D02*
X2324125Y-12549909D01*
X2314601Y-12559433D01*
X2305077Y-12549909D01*
X2314601Y-12540386D01*
X2314601Y-12559433D01*
X2505077Y-12359433D02*
X2409839Y-12359433D01*
X2400315Y-12454671D01*
X2409839Y-12445147D01*
X2428886Y-12435624D01*
X2476506Y-12435624D01*
X2495553Y-12445147D01*
X2505077Y-12454671D01*
X2514601Y-12473719D01*
X2514601Y-12521338D01*
X2505077Y-12540386D01*
X2495553Y-12549909D01*
X2476506Y-12559433D01*
X2428886Y-12559433D01*
X2409839Y-12549909D01*
X2400315Y-12540386D01*
X2638410Y-12359433D02*
X2657458Y-12359433D01*
X2676506Y-12368957D01*
X2686029Y-12378481D01*
X2695553Y-12397528D01*
X2705077Y-12435624D01*
X2705077Y-12483243D01*
X2695553Y-12521338D01*
X2686029Y-12540386D01*
X2676506Y-12549909D01*
X2657458Y-12559433D01*
X2638410Y-12559433D01*
X2619363Y-12549909D01*
X2609839Y-12540386D01*
X2600315Y-12521338D01*
X2590791Y-12483243D01*
X2590791Y-12435624D01*
X2600315Y-12397528D01*
X2609839Y-12378481D01*
X2619363Y-12368957D01*
X2638410Y-12359433D01*
X2828886Y-12359433D02*
X2847934Y-12359433D01*
X2866982Y-12368957D01*
X2876505Y-12378481D01*
X2886029Y-12397528D01*
X2895553Y-12435624D01*
X2895553Y-12483243D01*
X2886029Y-12521338D01*
X2876505Y-12540386D01*
X2866982Y-12549909D01*
X2847934Y-12559433D01*
X2828886Y-12559433D01*
X2809839Y-12549909D01*
X2800315Y-12540386D01*
X2790791Y-12521338D01*
X2781267Y-12483243D01*
X2781267Y-12435624D01*
X2790791Y-12397528D01*
X2800315Y-12378481D01*
X2809839Y-12368957D01*
X2828886Y-12359433D01*
X2981267Y-12559433D02*
X2981267Y-12426100D01*
X2981267Y-12445147D02*
X2990791Y-12435624D01*
X3009839Y-12426100D01*
X3038410Y-12426100D01*
X3057458Y-12435624D01*
X3066982Y-12454671D01*
X3066982Y-12559433D01*
X3066982Y-12454671D02*
X3076505Y-12435624D01*
X3095553Y-12426100D01*
X3124124Y-12426100D01*
X3143172Y-12435624D01*
X3152696Y-12454671D01*
X3152696Y-12559433D01*
X3247934Y-12559433D02*
X3247934Y-12426100D01*
X3247934Y-12445147D02*
X3257458Y-12435624D01*
X3276505Y-12426100D01*
X3305077Y-12426100D01*
X3324124Y-12435624D01*
X3333648Y-12454671D01*
X3333648Y-12559433D01*
X3333648Y-12454671D02*
X3343172Y-12435624D01*
X3362220Y-12426100D01*
X3390791Y-12426100D01*
X3409839Y-12435624D01*
X3419363Y-12454671D01*
X3419363Y-12559433D01*
X3809839Y-12349909D02*
X3638410Y-12607052D01*
X4066982Y-12359433D02*
X4086029Y-12359433D01*
X4105077Y-12368957D01*
X4114601Y-12378481D01*
X4124124Y-12397528D01*
X4133648Y-12435624D01*
X4133648Y-12483243D01*
X4124124Y-12521338D01*
X4114601Y-12540386D01*
X4105077Y-12549909D01*
X4086029Y-12559433D01*
X4066982Y-12559433D01*
X4047934Y-12549909D01*
X4038410Y-12540386D01*
X4028886Y-12521338D01*
X4019363Y-12483243D01*
X4019363Y-12435624D01*
X4028886Y-12397528D01*
X4038410Y-12378481D01*
X4047934Y-12368957D01*
X4066982Y-12359433D01*
X4219363Y-12540386D02*
X4228886Y-12549909D01*
X4219363Y-12559433D01*
X4209839Y-12549909D01*
X4219363Y-12540386D01*
X4219363Y-12559433D01*
X4352696Y-12359433D02*
X4371744Y-12359433D01*
X4390791Y-12368957D01*
X4400315Y-12378481D01*
X4409839Y-12397528D01*
X4419363Y-12435624D01*
X4419363Y-12483243D01*
X4409839Y-12521338D01*
X4400315Y-12540386D01*
X4390791Y-12549909D01*
X4371744Y-12559433D01*
X4352696Y-12559433D01*
X4333648Y-12549909D01*
X4324125Y-12540386D01*
X4314601Y-12521338D01*
X4305077Y-12483243D01*
X4305077Y-12435624D01*
X4314601Y-12397528D01*
X4324125Y-12378481D01*
X4333648Y-12368957D01*
X4352696Y-12359433D01*
X4600315Y-12359433D02*
X4505077Y-12359433D01*
X4495553Y-12454671D01*
X4505077Y-12445147D01*
X4524125Y-12435624D01*
X4571744Y-12435624D01*
X4590791Y-12445147D01*
X4600315Y-12454671D01*
X4609839Y-12473719D01*
X4609839Y-12521338D01*
X4600315Y-12540386D01*
X4590791Y-12549909D01*
X4571744Y-12559433D01*
X4524125Y-12559433D01*
X4505077Y-12549909D01*
X4495553Y-12540386D01*
X4705077Y-12559433D02*
X4743172Y-12559433D01*
X4762220Y-12549909D01*
X4771744Y-12540386D01*
X4790791Y-12511814D01*
X4800315Y-12473719D01*
X4800315Y-12397528D01*
X4790791Y-12378481D01*
X4781267Y-12368957D01*
X4762220Y-12359433D01*
X4724125Y-12359433D01*
X4705077Y-12368957D01*
X4695553Y-12378481D01*
X4686029Y-12397528D01*
X4686029Y-12445147D01*
X4695553Y-12464195D01*
X4705077Y-12473719D01*
X4724125Y-12483243D01*
X4762220Y-12483243D01*
X4781267Y-12473719D01*
X4790791Y-12464195D01*
X4800315Y-12445147D01*
X4990791Y-12559433D02*
X4876505Y-12559433D01*
X4933648Y-12559433D02*
X4933648Y-12359433D01*
X4914601Y-12388005D01*
X4895553Y-12407052D01*
X4876505Y-12416576D01*
X5066982Y-12359433D02*
X5066982Y-12397528D01*
X5143172Y-12359433D02*
X5143172Y-12397528D01*
X5438410Y-12635624D02*
X5428886Y-12626100D01*
X5409839Y-12597528D01*
X5400315Y-12578481D01*
X5390791Y-12549909D01*
X5381267Y-12502290D01*
X5381267Y-12464195D01*
X5390791Y-12416576D01*
X5400315Y-12388005D01*
X5409839Y-12368957D01*
X5428886Y-12340386D01*
X5438410Y-12330862D01*
X5609839Y-12359433D02*
X5514601Y-12359433D01*
X5505077Y-12454671D01*
X5514601Y-12445147D01*
X5533648Y-12435624D01*
X5581267Y-12435624D01*
X5600315Y-12445147D01*
X5609839Y-12454671D01*
X5619363Y-12473719D01*
X5619363Y-12521338D01*
X5609839Y-12540386D01*
X5600315Y-12549909D01*
X5581267Y-12559433D01*
X5533648Y-12559433D01*
X5514601Y-12549909D01*
X5505077Y-12540386D01*
X5809839Y-12559433D02*
X5695553Y-12559433D01*
X5752696Y-12559433D02*
X5752696Y-12359433D01*
X5733648Y-12388005D01*
X5714601Y-12407052D01*
X5695553Y-12416576D01*
X6047934Y-12559433D02*
X6047934Y-12359433D01*
X6133648Y-12559433D02*
X6133648Y-12454671D01*
X6124124Y-12435624D01*
X6105077Y-12426100D01*
X6076505Y-12426100D01*
X6057458Y-12435624D01*
X6047934Y-12445147D01*
X6257458Y-12559433D02*
X6238410Y-12549909D01*
X6228886Y-12540386D01*
X6219363Y-12521338D01*
X6219363Y-12464195D01*
X6228886Y-12445147D01*
X6238410Y-12435624D01*
X6257458Y-12426100D01*
X6286029Y-12426100D01*
X6305077Y-12435624D01*
X6314601Y-12445147D01*
X6324124Y-12464195D01*
X6324124Y-12521338D01*
X6314601Y-12540386D01*
X6305077Y-12549909D01*
X6286029Y-12559433D01*
X6257458Y-12559433D01*
X6438410Y-12559433D02*
X6419363Y-12549909D01*
X6409839Y-12530862D01*
X6409839Y-12359433D01*
X6590791Y-12549909D02*
X6571743Y-12559433D01*
X6533648Y-12559433D01*
X6514601Y-12549909D01*
X6505077Y-12530862D01*
X6505077Y-12454671D01*
X6514601Y-12435624D01*
X6533648Y-12426100D01*
X6571743Y-12426100D01*
X6590791Y-12435624D01*
X6600315Y-12454671D01*
X6600315Y-12473719D01*
X6505077Y-12492767D01*
X6676505Y-12549909D02*
X6695553Y-12559433D01*
X6733648Y-12559433D01*
X6752696Y-12549909D01*
X6762220Y-12530862D01*
X6762220Y-12521338D01*
X6752696Y-12502290D01*
X6733648Y-12492767D01*
X6705077Y-12492767D01*
X6686029Y-12483243D01*
X6676505Y-12464195D01*
X6676505Y-12454671D01*
X6686029Y-12435624D01*
X6705077Y-12426100D01*
X6733648Y-12426100D01*
X6752696Y-12435624D01*
X6828886Y-12635624D02*
X6838410Y-12626100D01*
X6857458Y-12597528D01*
X6866982Y-12578481D01*
X6876505Y-12549909D01*
X6886029Y-12502290D01*
X6886029Y-12464195D01*
X6876505Y-12416576D01*
X6866982Y-12388005D01*
X6857458Y-12368957D01*
X6838410Y-12340386D01*
X6828886Y-12330862D01*
X1666505Y-12638957D02*
X1866505Y-12838957D01*
X1866505Y-12638957D02*
X1666505Y-12838957D01*
X1766505Y-12638957D02*
X1766505Y-12838957D01*
X1666505Y-12738957D02*
X1866505Y-12738957D01*
X2114601Y-12648481D02*
X2124125Y-12638957D01*
X2143172Y-12629433D01*
X2190791Y-12629433D01*
X2209839Y-12638957D01*
X2219363Y-12648481D01*
X2228886Y-12667528D01*
X2228886Y-12686576D01*
X2219363Y-12715147D01*
X2105077Y-12829433D01*
X2228886Y-12829433D01*
X2314601Y-12810386D02*
X2324125Y-12819909D01*
X2314601Y-12829433D01*
X2305077Y-12819909D01*
X2314601Y-12810386D01*
X2314601Y-12829433D01*
X2400315Y-12648481D02*
X2409839Y-12638957D01*
X2428886Y-12629433D01*
X2476506Y-12629433D01*
X2495553Y-12638957D01*
X2505077Y-12648481D01*
X2514601Y-12667528D01*
X2514601Y-12686576D01*
X2505077Y-12715147D01*
X2390791Y-12829433D01*
X2514601Y-12829433D01*
X2638410Y-12629433D02*
X2657458Y-12629433D01*
X2676506Y-12638957D01*
X2686029Y-12648481D01*
X2695553Y-12667528D01*
X2705077Y-12705624D01*
X2705077Y-12753243D01*
X2695553Y-12791338D01*
X2686029Y-12810386D01*
X2676506Y-12819909D01*
X2657458Y-12829433D01*
X2638410Y-12829433D01*
X2619363Y-12819909D01*
X2609839Y-12810386D01*
X2600315Y-12791338D01*
X2590791Y-12753243D01*
X2590791Y-12705624D01*
X2600315Y-12667528D01*
X2609839Y-12648481D01*
X2619363Y-12638957D01*
X2638410Y-12629433D01*
X2828886Y-12629433D02*
X2847934Y-12629433D01*
X2866982Y-12638957D01*
X2876505Y-12648481D01*
X2886029Y-12667528D01*
X2895553Y-12705624D01*
X2895553Y-12753243D01*
X2886029Y-12791338D01*
X2876505Y-12810386D01*
X2866982Y-12819909D01*
X2847934Y-12829433D01*
X2828886Y-12829433D01*
X2809839Y-12819909D01*
X2800315Y-12810386D01*
X2790791Y-12791338D01*
X2781267Y-12753243D01*
X2781267Y-12705624D01*
X2790791Y-12667528D01*
X2800315Y-12648481D01*
X2809839Y-12638957D01*
X2828886Y-12629433D01*
X2981267Y-12829433D02*
X2981267Y-12696100D01*
X2981267Y-12715147D02*
X2990791Y-12705624D01*
X3009839Y-12696100D01*
X3038410Y-12696100D01*
X3057458Y-12705624D01*
X3066982Y-12724671D01*
X3066982Y-12829433D01*
X3066982Y-12724671D02*
X3076505Y-12705624D01*
X3095553Y-12696100D01*
X3124124Y-12696100D01*
X3143172Y-12705624D01*
X3152696Y-12724671D01*
X3152696Y-12829433D01*
X3247934Y-12829433D02*
X3247934Y-12696100D01*
X3247934Y-12715147D02*
X3257458Y-12705624D01*
X3276505Y-12696100D01*
X3305077Y-12696100D01*
X3324124Y-12705624D01*
X3333648Y-12724671D01*
X3333648Y-12829433D01*
X3333648Y-12724671D02*
X3343172Y-12705624D01*
X3362220Y-12696100D01*
X3390791Y-12696100D01*
X3409839Y-12705624D01*
X3419363Y-12724671D01*
X3419363Y-12829433D01*
X3809839Y-12619909D02*
X3638410Y-12877052D01*
X4066982Y-12629433D02*
X4086029Y-12629433D01*
X4105077Y-12638957D01*
X4114601Y-12648481D01*
X4124124Y-12667528D01*
X4133648Y-12705624D01*
X4133648Y-12753243D01*
X4124124Y-12791338D01*
X4114601Y-12810386D01*
X4105077Y-12819909D01*
X4086029Y-12829433D01*
X4066982Y-12829433D01*
X4047934Y-12819909D01*
X4038410Y-12810386D01*
X4028886Y-12791338D01*
X4019363Y-12753243D01*
X4019363Y-12705624D01*
X4028886Y-12667528D01*
X4038410Y-12648481D01*
X4047934Y-12638957D01*
X4066982Y-12629433D01*
X4219363Y-12810386D02*
X4228886Y-12819909D01*
X4219363Y-12829433D01*
X4209839Y-12819909D01*
X4219363Y-12810386D01*
X4219363Y-12829433D01*
X4352696Y-12629433D02*
X4371744Y-12629433D01*
X4390791Y-12638957D01*
X4400315Y-12648481D01*
X4409839Y-12667528D01*
X4419363Y-12705624D01*
X4419363Y-12753243D01*
X4409839Y-12791338D01*
X4400315Y-12810386D01*
X4390791Y-12819909D01*
X4371744Y-12829433D01*
X4352696Y-12829433D01*
X4333648Y-12819909D01*
X4324125Y-12810386D01*
X4314601Y-12791338D01*
X4305077Y-12753243D01*
X4305077Y-12705624D01*
X4314601Y-12667528D01*
X4324125Y-12648481D01*
X4333648Y-12638957D01*
X4352696Y-12629433D01*
X4533648Y-12715147D02*
X4514601Y-12705624D01*
X4505077Y-12696100D01*
X4495553Y-12677052D01*
X4495553Y-12667528D01*
X4505077Y-12648481D01*
X4514601Y-12638957D01*
X4533648Y-12629433D01*
X4571744Y-12629433D01*
X4590791Y-12638957D01*
X4600315Y-12648481D01*
X4609839Y-12667528D01*
X4609839Y-12677052D01*
X4600315Y-12696100D01*
X4590791Y-12705624D01*
X4571744Y-12715147D01*
X4533648Y-12715147D01*
X4514601Y-12724671D01*
X4505077Y-12734195D01*
X4495553Y-12753243D01*
X4495553Y-12791338D01*
X4505077Y-12810386D01*
X4514601Y-12819909D01*
X4533648Y-12829433D01*
X4571744Y-12829433D01*
X4590791Y-12819909D01*
X4600315Y-12810386D01*
X4609839Y-12791338D01*
X4609839Y-12753243D01*
X4600315Y-12734195D01*
X4590791Y-12724671D01*
X4571744Y-12715147D01*
X4781267Y-12629433D02*
X4743172Y-12629433D01*
X4724125Y-12638957D01*
X4714601Y-12648481D01*
X4695553Y-12677052D01*
X4686029Y-12715147D01*
X4686029Y-12791338D01*
X4695553Y-12810386D01*
X4705077Y-12819909D01*
X4724125Y-12829433D01*
X4762220Y-12829433D01*
X4781267Y-12819909D01*
X4790791Y-12810386D01*
X4800315Y-12791338D01*
X4800315Y-12743719D01*
X4790791Y-12724671D01*
X4781267Y-12715147D01*
X4762220Y-12705624D01*
X4724125Y-12705624D01*
X4705077Y-12715147D01*
X4695553Y-12724671D01*
X4686029Y-12743719D01*
X4971744Y-12629433D02*
X4933648Y-12629433D01*
X4914601Y-12638957D01*
X4905077Y-12648481D01*
X4886029Y-12677052D01*
X4876505Y-12715147D01*
X4876505Y-12791338D01*
X4886029Y-12810386D01*
X4895553Y-12819909D01*
X4914601Y-12829433D01*
X4952696Y-12829433D01*
X4971744Y-12819909D01*
X4981267Y-12810386D01*
X4990791Y-12791338D01*
X4990791Y-12743719D01*
X4981267Y-12724671D01*
X4971744Y-12715147D01*
X4952696Y-12705624D01*
X4914601Y-12705624D01*
X4895553Y-12715147D01*
X4886029Y-12724671D01*
X4876505Y-12743719D01*
X5066982Y-12629433D02*
X5066982Y-12667528D01*
X5143172Y-12629433D02*
X5143172Y-12667528D01*
X5438410Y-12905624D02*
X5428886Y-12896100D01*
X5409839Y-12867528D01*
X5400315Y-12848481D01*
X5390791Y-12819909D01*
X5381267Y-12772290D01*
X5381267Y-12734195D01*
X5390791Y-12686576D01*
X5400315Y-12658005D01*
X5409839Y-12638957D01*
X5428886Y-12610386D01*
X5438410Y-12600862D01*
X5600315Y-12696100D02*
X5600315Y-12829433D01*
X5552696Y-12619909D02*
X5505077Y-12762767D01*
X5628886Y-12762767D01*
X5857458Y-12829433D02*
X5857458Y-12629433D01*
X5943172Y-12829433D02*
X5943172Y-12724671D01*
X5933648Y-12705624D01*
X5914601Y-12696100D01*
X5886029Y-12696100D01*
X5866982Y-12705624D01*
X5857458Y-12715147D01*
X6066982Y-12829433D02*
X6047934Y-12819909D01*
X6038410Y-12810386D01*
X6028886Y-12791338D01*
X6028886Y-12734195D01*
X6038410Y-12715147D01*
X6047934Y-12705624D01*
X6066982Y-12696100D01*
X6095553Y-12696100D01*
X6114601Y-12705624D01*
X6124124Y-12715147D01*
X6133648Y-12734195D01*
X6133648Y-12791338D01*
X6124124Y-12810386D01*
X6114601Y-12819909D01*
X6095553Y-12829433D01*
X6066982Y-12829433D01*
X6247934Y-12829433D02*
X6228886Y-12819909D01*
X6219363Y-12800862D01*
X6219363Y-12629433D01*
X6400315Y-12819909D02*
X6381267Y-12829433D01*
X6343172Y-12829433D01*
X6324124Y-12819909D01*
X6314601Y-12800862D01*
X6314601Y-12724671D01*
X6324124Y-12705624D01*
X6343172Y-12696100D01*
X6381267Y-12696100D01*
X6400315Y-12705624D01*
X6409839Y-12724671D01*
X6409839Y-12743719D01*
X6314601Y-12762767D01*
X6486029Y-12819909D02*
X6505077Y-12829433D01*
X6543172Y-12829433D01*
X6562220Y-12819909D01*
X6571743Y-12800862D01*
X6571743Y-12791338D01*
X6562220Y-12772290D01*
X6543172Y-12762767D01*
X6514601Y-12762767D01*
X6495553Y-12753243D01*
X6486029Y-12734195D01*
X6486029Y-12724671D01*
X6495553Y-12705624D01*
X6514601Y-12696100D01*
X6543172Y-12696100D01*
X6562220Y-12705624D01*
X6638410Y-12905624D02*
X6647934Y-12896100D01*
X6666982Y-12867528D01*
X6676505Y-12848481D01*
X6686029Y-12819909D01*
X6695553Y-12772290D01*
X6695553Y-12734195D01*
X6686029Y-12686576D01*
X6676505Y-12658005D01*
X6666982Y-12638957D01*
X6647934Y-12610386D01*
X6638410Y-12600862D01*
M02*
