%TF.GenerationSoftware,KiCad,Pcbnew,(6.0.10-0)*%
%TF.CreationDate,2023-04-12T09:39:01-04:00*%
%TF.ProjectId,half-swept,68616c66-2d73-4776-9570-742e6b696361,rev?*%
%TF.SameCoordinates,Original*%
%TF.FileFunction,Soldermask,Bot*%
%TF.FilePolarity,Negative*%
%FSLAX46Y46*%
G04 Gerber Fmt 4.6, Leading zero omitted, Abs format (unit mm)*
G04 Created by KiCad (PCBNEW (6.0.10-0)) date 2023-04-12 09:39:01*
%MOMM*%
%LPD*%
G01*
G04 APERTURE LIST*
G04 Aperture macros list*
%AMRotRect*
0 Rectangle, with rotation*
0 The origin of the aperture is its center*
0 $1 length*
0 $2 width*
0 $3 Rotation angle, in degrees counterclockwise*
0 Add horizontal line*
21,1,$1,$2,0,0,$3*%
%AMFreePoly0*
4,1,6,0.600000,0.200000,0.000000,-0.400000,-0.600000,0.200000,-0.600000,0.400000,0.600000,0.400000,0.600000,0.200000,0.600000,0.200000,$1*%
%AMFreePoly1*
4,1,6,0.600000,-0.250000,-0.600000,-0.250000,-0.600000,1.000000,0.000000,0.400000,0.600000,1.000000,0.600000,-0.250000,0.600000,-0.250000,$1*%
G04 Aperture macros list end*
%ADD10C,0.250000*%
%ADD11C,0.100000*%
%ADD12C,1.397000*%
%ADD13C,0.800000*%
%ADD14O,2.000000X1.600000*%
%ADD15C,0.990600*%
%ADD16C,1.701800*%
%ADD17C,3.429000*%
%ADD18C,2.262000*%
%ADD19FreePoly0,270.000000*%
%ADD20C,1.600000*%
%ADD21FreePoly0,90.000000*%
%ADD22R,1.600000X1.600000*%
%ADD23FreePoly1,270.000000*%
%ADD24FreePoly1,90.000000*%
%ADD25C,4.400000*%
%ADD26C,1.000000*%
%ADD27RotRect,0.900000X0.900000X344.500000*%
%ADD28RotRect,0.900000X1.250000X344.500000*%
%ADD29R,0.900000X1.700000*%
G04 APERTURE END LIST*
D10*
X119759000Y-69342000D02*
G75*
G03*
X119759000Y-69342000I-125000J0D01*
G01*
X118235000Y-69342000D02*
G75*
G03*
X118235000Y-69342000I-125000J0D01*
G01*
X118235000Y-71882000D02*
G75*
G03*
X118235000Y-71882000I-125000J0D01*
G01*
X119759000Y-54102000D02*
G75*
G03*
X119759000Y-54102000I-125000J0D01*
G01*
X118235000Y-61722000D02*
G75*
G03*
X118235000Y-61722000I-125000J0D01*
G01*
X119759000Y-56642000D02*
G75*
G03*
X119759000Y-56642000I-125000J0D01*
G01*
X119759000Y-76962000D02*
G75*
G03*
X119759000Y-76962000I-125000J0D01*
G01*
X118235000Y-56642000D02*
G75*
G03*
X118235000Y-56642000I-125000J0D01*
G01*
X118235000Y-76962000D02*
G75*
G03*
X118235000Y-76962000I-125000J0D01*
G01*
X119759000Y-61722000D02*
G75*
G03*
X119759000Y-61722000I-125000J0D01*
G01*
X119759000Y-64262000D02*
G75*
G03*
X119759000Y-64262000I-125000J0D01*
G01*
X119759000Y-71882000D02*
G75*
G03*
X119759000Y-71882000I-125000J0D01*
G01*
X118235000Y-49022000D02*
G75*
G03*
X118235000Y-49022000I-125000J0D01*
G01*
X119759000Y-66802000D02*
G75*
G03*
X119759000Y-66802000I-125000J0D01*
G01*
X118235000Y-64262000D02*
G75*
G03*
X118235000Y-64262000I-125000J0D01*
G01*
X118235000Y-74422000D02*
G75*
G03*
X118235000Y-74422000I-125000J0D01*
G01*
X118235000Y-51562000D02*
G75*
G03*
X118235000Y-51562000I-125000J0D01*
G01*
X119759000Y-49022000D02*
G75*
G03*
X119759000Y-49022000I-125000J0D01*
G01*
X118235000Y-54102000D02*
G75*
G03*
X118235000Y-54102000I-125000J0D01*
G01*
X118235000Y-59182000D02*
G75*
G03*
X118235000Y-59182000I-125000J0D01*
G01*
X118235000Y-66802000D02*
G75*
G03*
X118235000Y-66802000I-125000J0D01*
G01*
X119759000Y-74422000D02*
G75*
G03*
X119759000Y-74422000I-125000J0D01*
G01*
X119759000Y-59182000D02*
G75*
G03*
X119759000Y-59182000I-125000J0D01*
G01*
X119759000Y-51562000D02*
G75*
G03*
X119759000Y-51562000I-125000J0D01*
G01*
G36*
X124968000Y-64770000D02*
G01*
X123952000Y-64770000D01*
X123952000Y-63754000D01*
X124968000Y-63754000D01*
X124968000Y-64770000D01*
G37*
D11*
X124968000Y-64770000D02*
X123952000Y-64770000D01*
X123952000Y-63754000D01*
X124968000Y-63754000D01*
X124968000Y-64770000D01*
G36*
X113792000Y-77470000D02*
G01*
X112776000Y-77470000D01*
X112776000Y-76454000D01*
X113792000Y-76454000D01*
X113792000Y-77470000D01*
G37*
X113792000Y-77470000D02*
X112776000Y-77470000D01*
X112776000Y-76454000D01*
X113792000Y-76454000D01*
X113792000Y-77470000D01*
G36*
X124968000Y-59690000D02*
G01*
X123952000Y-59690000D01*
X123952000Y-58674000D01*
X124968000Y-58674000D01*
X124968000Y-59690000D01*
G37*
X124968000Y-59690000D02*
X123952000Y-59690000D01*
X123952000Y-58674000D01*
X124968000Y-58674000D01*
X124968000Y-59690000D01*
G36*
X124968000Y-62230000D02*
G01*
X123952000Y-62230000D01*
X123952000Y-61214000D01*
X124968000Y-61214000D01*
X124968000Y-62230000D01*
G37*
X124968000Y-62230000D02*
X123952000Y-62230000D01*
X123952000Y-61214000D01*
X124968000Y-61214000D01*
X124968000Y-62230000D01*
G36*
X124968000Y-69850000D02*
G01*
X123952000Y-69850000D01*
X123952000Y-68834000D01*
X124968000Y-68834000D01*
X124968000Y-69850000D01*
G37*
X124968000Y-69850000D02*
X123952000Y-69850000D01*
X123952000Y-68834000D01*
X124968000Y-68834000D01*
X124968000Y-69850000D01*
G36*
X124968000Y-54610000D02*
G01*
X123952000Y-54610000D01*
X123952000Y-53594000D01*
X124968000Y-53594000D01*
X124968000Y-54610000D01*
G37*
X124968000Y-54610000D02*
X123952000Y-54610000D01*
X123952000Y-53594000D01*
X124968000Y-53594000D01*
X124968000Y-54610000D01*
G36*
X113792000Y-67310000D02*
G01*
X112776000Y-67310000D01*
X112776000Y-66294000D01*
X113792000Y-66294000D01*
X113792000Y-67310000D01*
G37*
X113792000Y-67310000D02*
X112776000Y-67310000D01*
X112776000Y-66294000D01*
X113792000Y-66294000D01*
X113792000Y-67310000D01*
G36*
X124968000Y-52070000D02*
G01*
X123952000Y-52070000D01*
X123952000Y-51054000D01*
X124968000Y-51054000D01*
X124968000Y-52070000D01*
G37*
X124968000Y-52070000D02*
X123952000Y-52070000D01*
X123952000Y-51054000D01*
X124968000Y-51054000D01*
X124968000Y-52070000D01*
G36*
X113792000Y-54610000D02*
G01*
X112776000Y-54610000D01*
X112776000Y-53594000D01*
X113792000Y-53594000D01*
X113792000Y-54610000D01*
G37*
X113792000Y-54610000D02*
X112776000Y-54610000D01*
X112776000Y-53594000D01*
X113792000Y-53594000D01*
X113792000Y-54610000D01*
G36*
X124968000Y-77470000D02*
G01*
X123952000Y-77470000D01*
X123952000Y-76454000D01*
X124968000Y-76454000D01*
X124968000Y-77470000D01*
G37*
X124968000Y-77470000D02*
X123952000Y-77470000D01*
X123952000Y-76454000D01*
X124968000Y-76454000D01*
X124968000Y-77470000D01*
G36*
X113792000Y-69850000D02*
G01*
X112776000Y-69850000D01*
X112776000Y-68834000D01*
X113792000Y-68834000D01*
X113792000Y-69850000D01*
G37*
X113792000Y-69850000D02*
X112776000Y-69850000D01*
X112776000Y-68834000D01*
X113792000Y-68834000D01*
X113792000Y-69850000D01*
G36*
X113792000Y-49530000D02*
G01*
X112776000Y-49530000D01*
X112776000Y-48514000D01*
X113792000Y-48514000D01*
X113792000Y-49530000D01*
G37*
X113792000Y-49530000D02*
X112776000Y-49530000D01*
X112776000Y-48514000D01*
X113792000Y-48514000D01*
X113792000Y-49530000D01*
G36*
X113792000Y-62230000D02*
G01*
X112776000Y-62230000D01*
X112776000Y-61214000D01*
X113792000Y-61214000D01*
X113792000Y-62230000D01*
G37*
X113792000Y-62230000D02*
X112776000Y-62230000D01*
X112776000Y-61214000D01*
X113792000Y-61214000D01*
X113792000Y-62230000D01*
G36*
X113792000Y-74930000D02*
G01*
X112776000Y-74930000D01*
X112776000Y-73914000D01*
X113792000Y-73914000D01*
X113792000Y-74930000D01*
G37*
X113792000Y-74930000D02*
X112776000Y-74930000D01*
X112776000Y-73914000D01*
X113792000Y-73914000D01*
X113792000Y-74930000D01*
G36*
X124968000Y-57150000D02*
G01*
X123952000Y-57150000D01*
X123952000Y-56134000D01*
X124968000Y-56134000D01*
X124968000Y-57150000D01*
G37*
X124968000Y-57150000D02*
X123952000Y-57150000D01*
X123952000Y-56134000D01*
X124968000Y-56134000D01*
X124968000Y-57150000D01*
G36*
X124968000Y-72390000D02*
G01*
X123952000Y-72390000D01*
X123952000Y-71374000D01*
X124968000Y-71374000D01*
X124968000Y-72390000D01*
G37*
X124968000Y-72390000D02*
X123952000Y-72390000D01*
X123952000Y-71374000D01*
X124968000Y-71374000D01*
X124968000Y-72390000D01*
G36*
X124968000Y-74930000D02*
G01*
X123952000Y-74930000D01*
X123952000Y-73914000D01*
X124968000Y-73914000D01*
X124968000Y-74930000D01*
G37*
X124968000Y-74930000D02*
X123952000Y-74930000D01*
X123952000Y-73914000D01*
X124968000Y-73914000D01*
X124968000Y-74930000D01*
G36*
X124968000Y-49530000D02*
G01*
X123952000Y-49530000D01*
X123952000Y-48514000D01*
X124968000Y-48514000D01*
X124968000Y-49530000D01*
G37*
X124968000Y-49530000D02*
X123952000Y-49530000D01*
X123952000Y-48514000D01*
X124968000Y-48514000D01*
X124968000Y-49530000D01*
G36*
X113792000Y-72390000D02*
G01*
X112776000Y-72390000D01*
X112776000Y-71374000D01*
X113792000Y-71374000D01*
X113792000Y-72390000D01*
G37*
X113792000Y-72390000D02*
X112776000Y-72390000D01*
X112776000Y-71374000D01*
X113792000Y-71374000D01*
X113792000Y-72390000D01*
G36*
X124968000Y-67310000D02*
G01*
X123952000Y-67310000D01*
X123952000Y-66294000D01*
X124968000Y-66294000D01*
X124968000Y-67310000D01*
G37*
X124968000Y-67310000D02*
X123952000Y-67310000D01*
X123952000Y-66294000D01*
X124968000Y-66294000D01*
X124968000Y-67310000D01*
G36*
X113792000Y-59690000D02*
G01*
X112776000Y-59690000D01*
X112776000Y-58674000D01*
X113792000Y-58674000D01*
X113792000Y-59690000D01*
G37*
X113792000Y-59690000D02*
X112776000Y-59690000D01*
X112776000Y-58674000D01*
X113792000Y-58674000D01*
X113792000Y-59690000D01*
G36*
X113792000Y-52070000D02*
G01*
X112776000Y-52070000D01*
X112776000Y-51054000D01*
X113792000Y-51054000D01*
X113792000Y-52070000D01*
G37*
X113792000Y-52070000D02*
X112776000Y-52070000D01*
X112776000Y-51054000D01*
X113792000Y-51054000D01*
X113792000Y-52070000D01*
G36*
X113792000Y-64770000D02*
G01*
X112776000Y-64770000D01*
X112776000Y-63754000D01*
X113792000Y-63754000D01*
X113792000Y-64770000D01*
G37*
X113792000Y-64770000D02*
X112776000Y-64770000D01*
X112776000Y-63754000D01*
X113792000Y-63754000D01*
X113792000Y-64770000D01*
G36*
X113792000Y-57150000D02*
G01*
X112776000Y-57150000D01*
X112776000Y-56134000D01*
X113792000Y-56134000D01*
X113792000Y-57150000D01*
G37*
X113792000Y-57150000D02*
X112776000Y-57150000D01*
X112776000Y-56134000D01*
X113792000Y-56134000D01*
X113792000Y-57150000D01*
D12*
X126492000Y-45974000D03*
X111252000Y-45974000D03*
D13*
X122098000Y-82750000D03*
X115098000Y-82750000D03*
D14*
X117478000Y-80420000D03*
X117498000Y-85050000D03*
X120498000Y-85050000D03*
X120478000Y-80420000D03*
X112398000Y-80450000D03*
X112378000Y-85020000D03*
X113478000Y-80420000D03*
X113498000Y-85050000D03*
D15*
X32300000Y-41880000D03*
D16*
X21580000Y-46080000D03*
D15*
X21860000Y-41880000D03*
D17*
X27080000Y-46080000D03*
D16*
X32580000Y-46080000D03*
D18*
X27080000Y-51980000D03*
X32080000Y-49880000D03*
X22080000Y-49880000D03*
D16*
X39580000Y-34080000D03*
D15*
X39860000Y-29880000D03*
D17*
X45080000Y-34080000D03*
D16*
X50580000Y-34080000D03*
D15*
X50300000Y-29880000D03*
D18*
X45080000Y-39980000D03*
X40080000Y-37880000D03*
X50080000Y-37880000D03*
D16*
X68580000Y-27080000D03*
X57580000Y-27080000D03*
D17*
X63080000Y-27080000D03*
D15*
X68300000Y-22880000D03*
X57860000Y-22880000D03*
D18*
X63080000Y-32980000D03*
X58080000Y-30880000D03*
X68080000Y-30880000D03*
D16*
X86580000Y-32580000D03*
D17*
X81080000Y-32580000D03*
D15*
X86300000Y-28380000D03*
D16*
X75580000Y-32580000D03*
D15*
X75860000Y-28380000D03*
D18*
X81080000Y-38480000D03*
X76080000Y-36380000D03*
X86080000Y-36380000D03*
D16*
X93580000Y-35080000D03*
D15*
X104300000Y-30880000D03*
X93860000Y-30880000D03*
D16*
X104580000Y-35080000D03*
D17*
X99080000Y-35080000D03*
D18*
X99080000Y-40980000D03*
X104080000Y-38880000D03*
X94080000Y-38880000D03*
D16*
X21580000Y-63080000D03*
X32580000Y-63080000D03*
D17*
X27080000Y-63080000D03*
D15*
X21860000Y-58880000D03*
X32300000Y-58880000D03*
D18*
X27080000Y-68980000D03*
X32080000Y-66880000D03*
X22080000Y-66880000D03*
D16*
X50580000Y-51054000D03*
D15*
X39860000Y-46854000D03*
D16*
X39580000Y-51054000D03*
D17*
X45080000Y-51054000D03*
D15*
X50300000Y-46854000D03*
D18*
X45080000Y-56954000D03*
X40080000Y-54854000D03*
X50080000Y-54854000D03*
D16*
X68580000Y-44196000D03*
X57580000Y-44196000D03*
D15*
X68300000Y-39996000D03*
D17*
X63080000Y-44196000D03*
D15*
X57860000Y-39996000D03*
D18*
X63080000Y-50096000D03*
X68080000Y-47996000D03*
X58080000Y-47996000D03*
D15*
X86300000Y-45330000D03*
X75860000Y-45330000D03*
D16*
X86580000Y-49530000D03*
X75580000Y-49530000D03*
D17*
X81080000Y-49530000D03*
D18*
X81080000Y-55430000D03*
X86080000Y-53330000D03*
X76080000Y-53330000D03*
D17*
X99060000Y-52070000D03*
D15*
X104280000Y-47870000D03*
D16*
X104560000Y-52070000D03*
D15*
X93840000Y-47870000D03*
D16*
X93560000Y-52070000D03*
D18*
X99060000Y-57970000D03*
X94060000Y-55870000D03*
X104060000Y-55870000D03*
D16*
X21580000Y-80080000D03*
D15*
X32300000Y-75880000D03*
D17*
X27080000Y-80080000D03*
D16*
X32580000Y-80080000D03*
D15*
X21860000Y-75880000D03*
D18*
X27080000Y-85980000D03*
X22080000Y-83880000D03*
X32080000Y-83880000D03*
D17*
X45080000Y-68072000D03*
D15*
X39860000Y-63872000D03*
D16*
X50580000Y-68072000D03*
X39580000Y-68072000D03*
D15*
X50300000Y-63872000D03*
D18*
X45080000Y-73972000D03*
X50080000Y-71872000D03*
X40080000Y-71872000D03*
D15*
X57860000Y-57014000D03*
D17*
X63080000Y-61214000D03*
D16*
X57580000Y-61214000D03*
D15*
X68300000Y-57014000D03*
D16*
X68580000Y-61214000D03*
D18*
X63080000Y-67114000D03*
X58080000Y-65014000D03*
X68080000Y-65014000D03*
D16*
X86580000Y-66548000D03*
D17*
X81080000Y-66548000D03*
D15*
X86300000Y-62348000D03*
X75860000Y-62348000D03*
D16*
X75580000Y-66548000D03*
D18*
X81080000Y-72448000D03*
X76080000Y-70348000D03*
X86080000Y-70348000D03*
D15*
X104280000Y-64888000D03*
X93840000Y-64888000D03*
D16*
X93560000Y-69088000D03*
D17*
X99060000Y-69088000D03*
D16*
X104560000Y-69088000D03*
D18*
X99060000Y-74988000D03*
X94060000Y-72888000D03*
X104060000Y-72888000D03*
D16*
X104592860Y-92030000D03*
D15*
X102735347Y-95807307D03*
X111776653Y-101027307D03*
D17*
X109356000Y-94780000D03*
D16*
X114119140Y-97530000D03*
D18*
X112306000Y-89670450D03*
X115586127Y-93989103D03*
X106925873Y-88989103D03*
D15*
X84666827Y-89735853D03*
D16*
X96108592Y-88453505D03*
D15*
X94751093Y-92437924D03*
D16*
X85483408Y-85606495D03*
D17*
X90796000Y-87030000D03*
D18*
X92323032Y-81331038D03*
X86949883Y-82065387D03*
X96609142Y-84653577D03*
D19*
X124714000Y-69342000D03*
D20*
X111252000Y-74422000D03*
D19*
X124714000Y-76962000D03*
D21*
X113030000Y-64262000D03*
D20*
X126492000Y-64262000D03*
D21*
X113030000Y-74422000D03*
D20*
X111252000Y-51562000D03*
D21*
X113030000Y-51562000D03*
X113030000Y-49022000D03*
D20*
X126492000Y-49022000D03*
D22*
X126492000Y-49022000D03*
D19*
X124714000Y-51562000D03*
D20*
X111252000Y-54102000D03*
X126492000Y-51562000D03*
D19*
X124714000Y-71882000D03*
D20*
X126492000Y-69342000D03*
D19*
X124714000Y-59182000D03*
D20*
X111252000Y-59182000D03*
X126492000Y-66802000D03*
X126492000Y-56642000D03*
X126492000Y-74422000D03*
D21*
X113030000Y-69342000D03*
D20*
X111252000Y-61722000D03*
D19*
X124714000Y-66802000D03*
D21*
X113030000Y-59182000D03*
D20*
X111252000Y-69342000D03*
X126492000Y-76962000D03*
D21*
X113030000Y-76962000D03*
D19*
X124714000Y-74422000D03*
D20*
X111252000Y-66802000D03*
D19*
X124714000Y-54102000D03*
D21*
X113030000Y-66802000D03*
X113030000Y-54102000D03*
X113030000Y-56642000D03*
D20*
X111252000Y-56642000D03*
X126492000Y-61722000D03*
X126492000Y-54102000D03*
D21*
X113030000Y-61722000D03*
D20*
X126492000Y-71882000D03*
X126492000Y-59182000D03*
D19*
X124714000Y-61722000D03*
D20*
X111252000Y-64262000D03*
D19*
X124714000Y-64262000D03*
D20*
X111252000Y-76962000D03*
D21*
X113030000Y-71882000D03*
D19*
X124714000Y-56642000D03*
D20*
X111252000Y-71882000D03*
X111252000Y-49022000D03*
D19*
X124714000Y-49022000D03*
D23*
X123698000Y-49022000D03*
X123698000Y-51562000D03*
X123698000Y-54102000D03*
X123698000Y-56642000D03*
X123698000Y-59182000D03*
X123698000Y-61722000D03*
X123698000Y-64262000D03*
X123698000Y-66802000D03*
X123698000Y-69342000D03*
X123698000Y-71882000D03*
X123698000Y-74422000D03*
X123698000Y-76962000D03*
D24*
X114046000Y-76962000D03*
X114046000Y-74422000D03*
X114046000Y-71882000D03*
X114046000Y-69342000D03*
X114046000Y-66802000D03*
X114046000Y-64262000D03*
X114046000Y-61722000D03*
X114046000Y-59182000D03*
X114046000Y-56642000D03*
X114046000Y-54102000D03*
X114046000Y-51562000D03*
X114046000Y-49022000D03*
D25*
X72580000Y-23930000D03*
X72580000Y-62030000D03*
X91630000Y-42980000D03*
X53530000Y-42980000D03*
D26*
X93194954Y-24169715D03*
X96085846Y-24971431D03*
D27*
X98499795Y-24499361D03*
X91368930Y-22521798D03*
X97911870Y-26619348D03*
X90781005Y-24641785D03*
D28*
X91917712Y-25968820D03*
X94808603Y-26770534D03*
X96254049Y-27171393D03*
D29*
X86485200Y-22250400D03*
X83085200Y-22250400D03*
M02*
