M48
; DRILL file {KiCad (6.0.10-0)} date Wednesday, April 12, 2023 at 09:39:46 AM
; FORMAT={-:-/ absolute / metric / decimal}
; #@! TF.CreationDate,2023-04-12T09:39:46-04:00
; #@! TF.GenerationSoftware,Kicad,Pcbnew,(6.0.10-0)
; #@! TF.FileFunction,NonPlated,1,2,NPTH
FMAT,2
METRIC
; #@! TA.AperFunction,NonPlated,NPTH,ComponentDrill
T1C0.800
; #@! TA.AperFunction,NonPlated,NPTH,ComponentDrill
T2C0.900
; #@! TA.AperFunction,NonPlated,NPTH,ComponentDrill
T3C0.991
; #@! TA.AperFunction,NonPlated,NPTH,ComponentDrill
T4C1.702
; #@! TA.AperFunction,NonPlated,NPTH,ComponentDrill
T5C3.429
%
G90
G05
T1
X115.098Y-82.75
X122.098Y-82.75
T2
X93.195Y-24.17
X96.086Y-24.971
T3
X21.86Y-41.88
X21.86Y-58.88
X21.86Y-75.88
X32.3Y-41.88
X32.3Y-58.88
X32.3Y-75.88
X39.86Y-29.88
X39.86Y-46.854
X39.86Y-63.872
X50.3Y-29.88
X50.3Y-46.854
X50.3Y-63.872
X57.86Y-22.88
X57.86Y-39.996
X57.86Y-57.014
X68.3Y-22.88
X68.3Y-39.996
X68.3Y-57.014
X75.86Y-28.38
X75.86Y-45.33
X75.86Y-62.348
X84.667Y-89.736
X86.3Y-28.38
X86.3Y-45.33
X86.3Y-62.348
X93.84Y-47.87
X93.84Y-64.888
X93.86Y-30.88
X94.751Y-92.438
X102.735Y-95.807
X104.28Y-47.87
X104.28Y-64.888
X104.3Y-30.88
X111.777Y-101.027
T4
X21.58Y-46.08
X21.58Y-63.08
X21.58Y-80.08
X32.58Y-46.08
X32.58Y-63.08
X32.58Y-80.08
X39.58Y-34.08
X39.58Y-51.054
X39.58Y-68.072
X50.58Y-34.08
X50.58Y-51.054
X50.58Y-68.072
X57.58Y-27.08
X57.58Y-44.196
X57.58Y-61.214
X68.58Y-27.08
X68.58Y-44.196
X68.58Y-61.214
X75.58Y-32.58
X75.58Y-49.53
X75.58Y-66.548
X85.483Y-85.606
X86.58Y-32.58
X86.58Y-49.53
X86.58Y-66.548
X93.56Y-52.07
X93.56Y-69.088
X93.58Y-35.08
X96.109Y-88.454
X104.56Y-52.07
X104.56Y-69.088
X104.58Y-35.08
X104.593Y-92.03
X114.119Y-97.53
T5
X27.08Y-46.08
X27.08Y-63.08
X27.08Y-80.08
X45.08Y-34.08
X45.08Y-51.054
X45.08Y-68.072
X63.08Y-27.08
X63.08Y-44.196
X63.08Y-61.214
X81.08Y-32.58
X81.08Y-49.53
X81.08Y-66.548
X90.796Y-87.03
X99.06Y-52.07
X99.06Y-69.088
X99.08Y-35.08
X109.356Y-94.78
T0
M30
