%TF.GenerationSoftware,KiCad,Pcbnew,(6.0.10-0)*%
%TF.CreationDate,2023-04-12T09:39:01-04:00*%
%TF.ProjectId,half-swept,68616c66-2d73-4776-9570-742e6b696361,rev?*%
%TF.SameCoordinates,Original*%
%TF.FileFunction,Legend,Bot*%
%TF.FilePolarity,Positive*%
%FSLAX46Y46*%
G04 Gerber Fmt 4.6, Leading zero omitted, Abs format (unit mm)*
G04 Created by KiCad (PCBNEW (6.0.10-0)) date 2023-04-12 09:39:01*
%MOMM*%
%LPD*%
G01*
G04 APERTURE LIST*
G04 Aperture macros list*
%AMRotRect*
0 Rectangle, with rotation*
0 The origin of the aperture is its center*
0 $1 length*
0 $2 width*
0 $3 Rotation angle, in degrees counterclockwise*
0 Add horizontal line*
21,1,$1,$2,0,0,$3*%
%AMFreePoly0*
4,1,6,0.600000,0.200000,0.000000,-0.400000,-0.600000,0.200000,-0.600000,0.400000,0.600000,0.400000,0.600000,0.200000,0.600000,0.200000,$1*%
%AMFreePoly1*
4,1,6,0.600000,-0.250000,-0.600000,-0.250000,-0.600000,1.000000,0.000000,0.400000,0.600000,1.000000,0.600000,-0.250000,0.600000,-0.250000,$1*%
G04 Aperture macros list end*
%ADD10C,0.120000*%
%ADD11C,0.150000*%
%ADD12C,0.160000*%
%ADD13C,0.100000*%
%ADD14C,0.200000*%
%ADD15C,0.010000*%
%ADD16C,0.250000*%
%ADD17C,1.397000*%
%ADD18C,0.800000*%
%ADD19O,2.000000X1.600000*%
%ADD20C,0.990600*%
%ADD21C,1.701800*%
%ADD22C,3.429000*%
%ADD23C,2.262000*%
%ADD24FreePoly0,270.000000*%
%ADD25C,1.600000*%
%ADD26FreePoly0,90.000000*%
%ADD27R,1.600000X1.600000*%
%ADD28FreePoly1,270.000000*%
%ADD29FreePoly1,90.000000*%
%ADD30C,4.400000*%
%ADD31C,1.000000*%
%ADD32RotRect,0.900000X0.900000X344.500000*%
%ADD33RotRect,0.900000X1.250000X344.500000*%
%ADD34R,0.900000X1.700000*%
G04 APERTURE END LIST*
D10*
X115837255Y-49344228D02*
X116037255Y-49058514D01*
X116180112Y-49344228D02*
X116180112Y-48744228D01*
X115951541Y-48744228D01*
X115894398Y-48772800D01*
X115865827Y-48801371D01*
X115837255Y-48858514D01*
X115837255Y-48944228D01*
X115865827Y-49001371D01*
X115894398Y-49029942D01*
X115951541Y-49058514D01*
X116180112Y-49058514D01*
X115608684Y-49172800D02*
X115322970Y-49172800D01*
X115665827Y-49344228D02*
X115465827Y-48744228D01*
X115265827Y-49344228D01*
X115122970Y-48744228D02*
X114980112Y-49344228D01*
X114865827Y-48915657D01*
X114751541Y-49344228D01*
X114608684Y-48744228D01*
D11*
X113358571Y-45931142D02*
X113272857Y-45959714D01*
X113244285Y-45988285D01*
X113215714Y-46045428D01*
X113215714Y-46131142D01*
X113244285Y-46188285D01*
X113272857Y-46216857D01*
X113330000Y-46245428D01*
X113558571Y-46245428D01*
X113558571Y-45645428D01*
X113358571Y-45645428D01*
X113301428Y-45674000D01*
X113272857Y-45702571D01*
X113244285Y-45759714D01*
X113244285Y-45816857D01*
X113272857Y-45874000D01*
X113301428Y-45902571D01*
X113358571Y-45931142D01*
X113558571Y-45931142D01*
X112958571Y-46016857D02*
X112501428Y-46016857D01*
X120459419Y-54153423D02*
X120411800Y-54206995D01*
X120364180Y-54308185D01*
X120364180Y-54546280D01*
X120411800Y-54635566D01*
X120459419Y-54677233D01*
X120554657Y-54712947D01*
X120649895Y-54701042D01*
X120792752Y-54635566D01*
X121364180Y-53992709D01*
X121364180Y-54611757D01*
X121745133Y-54897471D02*
X121697514Y-54951042D01*
X121554657Y-55064138D01*
X121459419Y-55123661D01*
X121316561Y-55189138D01*
X121078466Y-55266519D01*
X120887990Y-55290328D01*
X120649895Y-55272471D01*
X120507038Y-55242709D01*
X120411800Y-55206995D01*
X120268942Y-55129614D01*
X120221323Y-55087947D01*
X121268942Y-57052233D02*
X121316561Y-56998661D01*
X121364180Y-56849852D01*
X121364180Y-56754614D01*
X121316561Y-56617709D01*
X121221323Y-56534376D01*
X121126085Y-56498661D01*
X120935609Y-56474852D01*
X120792752Y-56492709D01*
X120602276Y-56564138D01*
X120507038Y-56623661D01*
X120411800Y-56730804D01*
X120364180Y-56879614D01*
X120364180Y-56974852D01*
X120411800Y-57111757D01*
X120459419Y-57153423D01*
X121364180Y-57611757D02*
X121316561Y-57522471D01*
X121221323Y-57486757D01*
X120364180Y-57593900D01*
X121364180Y-58135566D02*
X121316561Y-58046280D01*
X121268942Y-58004614D01*
X121173704Y-57968900D01*
X120887990Y-58004614D01*
X120792752Y-58064138D01*
X120745133Y-58117709D01*
X120697514Y-58218900D01*
X120697514Y-58361757D01*
X120745133Y-58451042D01*
X120792752Y-58492709D01*
X120887990Y-58528423D01*
X121173704Y-58492709D01*
X121268942Y-58433185D01*
X121316561Y-58379614D01*
X121364180Y-58278423D01*
X121364180Y-58135566D01*
X121316561Y-58855804D02*
X121364180Y-58945090D01*
X121364180Y-59135566D01*
X121316561Y-59236757D01*
X121221323Y-59296280D01*
X121173704Y-59302233D01*
X121078466Y-59266519D01*
X121030847Y-59177233D01*
X121030847Y-59034376D01*
X120983228Y-58945090D01*
X120887990Y-58909376D01*
X120840371Y-58915328D01*
X120745133Y-58974852D01*
X120697514Y-59076042D01*
X120697514Y-59218900D01*
X120745133Y-59308185D01*
X121316561Y-60093900D02*
X121364180Y-59992709D01*
X121364180Y-59802233D01*
X121316561Y-59712947D01*
X121221323Y-59677233D01*
X120840371Y-59724852D01*
X120745133Y-59784376D01*
X120697514Y-59885566D01*
X120697514Y-60076042D01*
X120745133Y-60165328D01*
X120840371Y-60201042D01*
X120935609Y-60189138D01*
X121030847Y-59701042D01*
X120364180Y-61736757D02*
X121078466Y-61647471D01*
X121221323Y-61581995D01*
X121316561Y-61474852D01*
X121364180Y-61326042D01*
X121364180Y-61230804D01*
X120364180Y-62212947D02*
X121173704Y-62111757D01*
X121268942Y-62147471D01*
X121316561Y-62189138D01*
X121364180Y-62278423D01*
X121364180Y-62468900D01*
X121316561Y-62570090D01*
X121268942Y-62623661D01*
X121173704Y-62683185D01*
X120364180Y-62784376D01*
X121364180Y-63135566D02*
X120364180Y-63260566D01*
X121078466Y-63504614D01*
X120364180Y-63927233D01*
X121364180Y-63802233D01*
X121364180Y-64278423D02*
X120364180Y-64403423D01*
X120364180Y-64784376D01*
X120411800Y-64873661D01*
X120459419Y-64915328D01*
X120554657Y-64951042D01*
X120697514Y-64933185D01*
X120792752Y-64873661D01*
X120840371Y-64820090D01*
X120887990Y-64718900D01*
X120887990Y-64337947D01*
X120840371Y-65343900D02*
X120840371Y-65677233D01*
X121364180Y-65754614D02*
X121364180Y-65278423D01*
X120364180Y-65403423D01*
X120364180Y-65879614D01*
X121364180Y-66754614D02*
X120887990Y-66480804D01*
X121364180Y-66183185D02*
X120364180Y-66308185D01*
X120364180Y-66689138D01*
X120411800Y-66778423D01*
X120459419Y-66820090D01*
X120554657Y-66855804D01*
X120697514Y-66837947D01*
X120792752Y-66778423D01*
X120840371Y-66724852D01*
X120887990Y-66623661D01*
X120887990Y-66242709D01*
X121364180Y-67945090D02*
X120364180Y-68070090D01*
X120364180Y-68451042D01*
X120411800Y-68540328D01*
X120459419Y-68581995D01*
X120554657Y-68617709D01*
X120697514Y-68599852D01*
X120792752Y-68540328D01*
X120840371Y-68486757D01*
X120887990Y-68385566D01*
X120887990Y-68004614D01*
X121078466Y-68933185D02*
X121078466Y-69409376D01*
X121364180Y-68802233D02*
X120364180Y-69260566D01*
X121364180Y-69468900D01*
X121364180Y-69802233D02*
X120364180Y-69927233D01*
X120364180Y-70165328D01*
X120411800Y-70302233D01*
X120507038Y-70385566D01*
X120602276Y-70421280D01*
X120792752Y-70445090D01*
X120935609Y-70427233D01*
X121126085Y-70355804D01*
X121221323Y-70296280D01*
X121316561Y-70189138D01*
X121364180Y-70040328D01*
X121364180Y-69802233D01*
X121316561Y-70760566D02*
X121364180Y-70897471D01*
X121364180Y-71135566D01*
X121316561Y-71236757D01*
X121268942Y-71290328D01*
X121173704Y-71349852D01*
X121078466Y-71361757D01*
X120983228Y-71326042D01*
X120935609Y-71284376D01*
X120887990Y-71195090D01*
X120840371Y-71010566D01*
X120792752Y-70921280D01*
X120745133Y-70879614D01*
X120649895Y-70843900D01*
X120554657Y-70855804D01*
X120459419Y-70915328D01*
X120411800Y-70968900D01*
X120364180Y-71070090D01*
X120364180Y-71308185D01*
X120411800Y-71445090D01*
X122974180Y-54230804D02*
X122926561Y-54141519D01*
X122878942Y-54099852D01*
X122783704Y-54064138D01*
X122497990Y-54099852D01*
X122402752Y-54159376D01*
X122355133Y-54212947D01*
X122307514Y-54314138D01*
X122307514Y-54456995D01*
X122355133Y-54546280D01*
X122402752Y-54587947D01*
X122497990Y-54623661D01*
X122783704Y-54587947D01*
X122878942Y-54528423D01*
X122926561Y-54474852D01*
X122974180Y-54373661D01*
X122974180Y-54230804D01*
X122307514Y-55076042D02*
X122974180Y-54992709D01*
X122402752Y-55064138D02*
X122355133Y-55117709D01*
X122307514Y-55218900D01*
X122307514Y-55361757D01*
X122355133Y-55451042D01*
X122450371Y-55486757D01*
X122974180Y-55421280D01*
X122307514Y-56599852D02*
X122307514Y-56980804D01*
X121974180Y-56784376D02*
X122831323Y-56677233D01*
X122926561Y-56712947D01*
X122974180Y-56802233D01*
X122974180Y-56897471D01*
X122974180Y-57230804D02*
X121974180Y-57355804D01*
X122974180Y-57659376D02*
X122450371Y-57724852D01*
X122355133Y-57689138D01*
X122307514Y-57599852D01*
X122307514Y-57456995D01*
X122355133Y-57355804D01*
X122402752Y-57302233D01*
X122926561Y-58522471D02*
X122974180Y-58421280D01*
X122974180Y-58230804D01*
X122926561Y-58141519D01*
X122831323Y-58105804D01*
X122450371Y-58153423D01*
X122355133Y-58212947D01*
X122307514Y-58314138D01*
X122307514Y-58504614D01*
X122355133Y-58593900D01*
X122450371Y-58629614D01*
X122545609Y-58617709D01*
X122640847Y-58129614D01*
X121974180Y-60070090D02*
X121974180Y-60260566D01*
X122021800Y-60349852D01*
X122117038Y-60433185D01*
X122307514Y-60456995D01*
X122640847Y-60415328D01*
X122831323Y-60343900D01*
X122926561Y-60236757D01*
X122974180Y-60135566D01*
X122974180Y-59945090D01*
X122926561Y-59855804D01*
X122831323Y-59772471D01*
X122640847Y-59748661D01*
X122307514Y-59790328D01*
X122117038Y-59861757D01*
X122021800Y-59968900D01*
X121974180Y-60070090D01*
X122974180Y-60802233D02*
X121974180Y-60927233D01*
X121974180Y-61308185D01*
X122021800Y-61397471D01*
X122069419Y-61439138D01*
X122164657Y-61474852D01*
X122307514Y-61456995D01*
X122402752Y-61397471D01*
X122450371Y-61343900D01*
X122497990Y-61242709D01*
X122497990Y-60861757D01*
X122974180Y-61802233D02*
X121974180Y-61927233D01*
X121974180Y-62308185D01*
X122021800Y-62397471D01*
X122069419Y-62439138D01*
X122164657Y-62474852D01*
X122307514Y-62456995D01*
X122402752Y-62397471D01*
X122450371Y-62343900D01*
X122497990Y-62242709D01*
X122497990Y-61861757D01*
X121974180Y-63117709D02*
X121974180Y-63308185D01*
X122021800Y-63397471D01*
X122117038Y-63480804D01*
X122307514Y-63504614D01*
X122640847Y-63462947D01*
X122831323Y-63391519D01*
X122926561Y-63284376D01*
X122974180Y-63183185D01*
X122974180Y-62992709D01*
X122926561Y-62903423D01*
X122831323Y-62820090D01*
X122640847Y-62796280D01*
X122307514Y-62837947D01*
X122117038Y-62909376D01*
X122021800Y-63016519D01*
X121974180Y-63117709D01*
X122926561Y-63808185D02*
X122974180Y-63945090D01*
X122974180Y-64183185D01*
X122926561Y-64284376D01*
X122878942Y-64337947D01*
X122783704Y-64397471D01*
X122688466Y-64409376D01*
X122593228Y-64373661D01*
X122545609Y-64331995D01*
X122497990Y-64242709D01*
X122450371Y-64058185D01*
X122402752Y-63968900D01*
X122355133Y-63927233D01*
X122259895Y-63891519D01*
X122164657Y-63903423D01*
X122069419Y-63962947D01*
X122021800Y-64016519D01*
X121974180Y-64117709D01*
X121974180Y-64355804D01*
X122021800Y-64492709D01*
X122974180Y-64802233D02*
X121974180Y-64927233D01*
X121974180Y-65260566D02*
X121974180Y-65831995D01*
X122974180Y-65421280D02*
X121974180Y-65546280D01*
X122450371Y-66105804D02*
X122450371Y-66439138D01*
X122974180Y-66516519D02*
X122974180Y-66040328D01*
X121974180Y-66165328D01*
X121974180Y-66641519D01*
X122926561Y-67665328D02*
X122974180Y-67802233D01*
X122974180Y-68040328D01*
X122926561Y-68141519D01*
X122878942Y-68195090D01*
X122783704Y-68254614D01*
X122688466Y-68266519D01*
X122593228Y-68230804D01*
X122545609Y-68189138D01*
X122497990Y-68099852D01*
X122450371Y-67915328D01*
X122402752Y-67826042D01*
X122355133Y-67784376D01*
X122259895Y-67748661D01*
X122164657Y-67760566D01*
X122069419Y-67820090D01*
X122021800Y-67873661D01*
X121974180Y-67974852D01*
X121974180Y-68212947D01*
X122021800Y-68349852D01*
X122974180Y-68659376D02*
X121974180Y-68784376D01*
X122974180Y-69135566D02*
X121974180Y-69260566D01*
X121974180Y-69498661D01*
X122021800Y-69635566D01*
X122117038Y-69718900D01*
X122212276Y-69754614D01*
X122402752Y-69778423D01*
X122545609Y-69760566D01*
X122736085Y-69689138D01*
X122831323Y-69629614D01*
X122926561Y-69522471D01*
X122974180Y-69373661D01*
X122974180Y-69135566D01*
X122450371Y-70201042D02*
X122450371Y-70534376D01*
X122974180Y-70611757D02*
X122974180Y-70135566D01*
X121974180Y-70260566D01*
X121974180Y-70736757D01*
D10*
X115865827Y-51312800D02*
X115922970Y-51284228D01*
X116008684Y-51284228D01*
X116094398Y-51312800D01*
X116151541Y-51369942D01*
X116180112Y-51427085D01*
X116208684Y-51541371D01*
X116208684Y-51627085D01*
X116180112Y-51741371D01*
X116151541Y-51798514D01*
X116094398Y-51855657D01*
X116008684Y-51884228D01*
X115951541Y-51884228D01*
X115865827Y-51855657D01*
X115837255Y-51827085D01*
X115837255Y-51627085D01*
X115951541Y-51627085D01*
X115580112Y-51884228D02*
X115580112Y-51284228D01*
X115237255Y-51884228D01*
X115237255Y-51284228D01*
X114951541Y-51884228D02*
X114951541Y-51284228D01*
X114808684Y-51284228D01*
X114722970Y-51312800D01*
X114665827Y-51369942D01*
X114637255Y-51427085D01*
X114608684Y-51541371D01*
X114608684Y-51627085D01*
X114637255Y-51741371D01*
X114665827Y-51798514D01*
X114722970Y-51855657D01*
X114808684Y-51884228D01*
X114951541Y-51884228D01*
D11*
X115623780Y-54611757D02*
X115623780Y-54040328D01*
X115623780Y-54326042D02*
X114623780Y-54451042D01*
X114766638Y-54337947D01*
X114861876Y-54230804D01*
X114909495Y-54129614D01*
X116004733Y-54897471D02*
X115957114Y-54951042D01*
X115814257Y-55064138D01*
X115719019Y-55123661D01*
X115576161Y-55189138D01*
X115338066Y-55266519D01*
X115147590Y-55290328D01*
X114909495Y-55272471D01*
X114766638Y-55242709D01*
X114671400Y-55206995D01*
X114528542Y-55129614D01*
X114480923Y-55087947D01*
X115623780Y-56468900D02*
X114623780Y-56593900D01*
X114623780Y-56974852D01*
X114671400Y-57064138D01*
X114719019Y-57105804D01*
X114814257Y-57141519D01*
X114957114Y-57123661D01*
X115052352Y-57064138D01*
X115099971Y-57010566D01*
X115147590Y-56909376D01*
X115147590Y-56528423D01*
X115623780Y-57611757D02*
X115576161Y-57522471D01*
X115480923Y-57486757D01*
X114623780Y-57593900D01*
X115623780Y-58421280D02*
X115099971Y-58486757D01*
X115004733Y-58451042D01*
X114957114Y-58361757D01*
X114957114Y-58171280D01*
X115004733Y-58070090D01*
X115576161Y-58427233D02*
X115623780Y-58326042D01*
X115623780Y-58087947D01*
X115576161Y-57998661D01*
X115480923Y-57962947D01*
X115385685Y-57974852D01*
X115290447Y-58034376D01*
X115242828Y-58135566D01*
X115242828Y-58373661D01*
X115195209Y-58474852D01*
X115576161Y-59331995D02*
X115623780Y-59230804D01*
X115623780Y-59040328D01*
X115576161Y-58951042D01*
X115528542Y-58909376D01*
X115433304Y-58873661D01*
X115147590Y-58909376D01*
X115052352Y-58968900D01*
X115004733Y-59022471D01*
X114957114Y-59123661D01*
X114957114Y-59314138D01*
X115004733Y-59403423D01*
X115576161Y-60141519D02*
X115623780Y-60040328D01*
X115623780Y-59849852D01*
X115576161Y-59760566D01*
X115480923Y-59724852D01*
X115099971Y-59772471D01*
X115004733Y-59831995D01*
X114957114Y-59933185D01*
X114957114Y-60123661D01*
X115004733Y-60212947D01*
X115099971Y-60248661D01*
X115195209Y-60236757D01*
X115290447Y-59748661D01*
X115623780Y-61373661D02*
X114623780Y-61498661D01*
X114623780Y-61879614D01*
X114671400Y-61968900D01*
X114719019Y-62010566D01*
X114814257Y-62046280D01*
X114957114Y-62028423D01*
X115052352Y-61968900D01*
X115099971Y-61915328D01*
X115147590Y-61814138D01*
X115147590Y-61433185D01*
X115623780Y-62373661D02*
X114957114Y-62456995D01*
X115147590Y-62433185D02*
X115052352Y-62492709D01*
X115004733Y-62546280D01*
X114957114Y-62647471D01*
X114957114Y-62742709D01*
X115623780Y-63135566D02*
X115576161Y-63046280D01*
X115528542Y-63004614D01*
X115433304Y-62968900D01*
X115147590Y-63004614D01*
X115052352Y-63064138D01*
X115004733Y-63117709D01*
X114957114Y-63218900D01*
X114957114Y-63361757D01*
X115004733Y-63451042D01*
X115052352Y-63492709D01*
X115147590Y-63528423D01*
X115433304Y-63492709D01*
X115528542Y-63433185D01*
X115576161Y-63379614D01*
X115623780Y-63278423D01*
X115623780Y-63135566D01*
X115242828Y-63945090D02*
X115242828Y-64706995D01*
X115623780Y-65135566D02*
X114623780Y-65260566D01*
X115338066Y-65504614D01*
X114623780Y-65927233D01*
X115623780Y-65802233D01*
X115623780Y-66278423D02*
X114957114Y-66361757D01*
X114623780Y-66403423D02*
X114671400Y-66349852D01*
X114719019Y-66391519D01*
X114671400Y-66445090D01*
X114623780Y-66403423D01*
X114719019Y-66391519D01*
X115576161Y-67189138D02*
X115623780Y-67087947D01*
X115623780Y-66897471D01*
X115576161Y-66808185D01*
X115528542Y-66766519D01*
X115433304Y-66730804D01*
X115147590Y-66766519D01*
X115052352Y-66826042D01*
X115004733Y-66879614D01*
X114957114Y-66980804D01*
X114957114Y-67171280D01*
X115004733Y-67260566D01*
X115623780Y-67611757D02*
X114957114Y-67695090D01*
X115147590Y-67671280D02*
X115052352Y-67730804D01*
X115004733Y-67784376D01*
X114957114Y-67885566D01*
X114957114Y-67980804D01*
X115623780Y-68373661D02*
X115576161Y-68284376D01*
X115528542Y-68242709D01*
X115433304Y-68206995D01*
X115147590Y-68242709D01*
X115052352Y-68302233D01*
X115004733Y-68355804D01*
X114957114Y-68456995D01*
X114957114Y-68599852D01*
X115004733Y-68689138D01*
X115052352Y-68730804D01*
X115147590Y-68766519D01*
X115433304Y-68730804D01*
X115528542Y-68671280D01*
X115576161Y-68617709D01*
X115623780Y-68516519D01*
X115623780Y-68373661D01*
X114957114Y-69885566D02*
X115623780Y-69992709D01*
X115147590Y-70242709D01*
X115623780Y-70373661D01*
X114957114Y-70647471D01*
X115623780Y-70945090D02*
X114957114Y-71028423D01*
X114623780Y-71070090D02*
X114671400Y-71016519D01*
X114719019Y-71058185D01*
X114671400Y-71111757D01*
X114623780Y-71070090D01*
X114719019Y-71058185D01*
X114957114Y-71361757D02*
X114957114Y-71742709D01*
X114623780Y-71546280D02*
X115480923Y-71439138D01*
X115576161Y-71474852D01*
X115623780Y-71564138D01*
X115623780Y-71659376D01*
X115623780Y-71992709D02*
X114623780Y-72117709D01*
X115623780Y-72421280D02*
X115099971Y-72486757D01*
X115004733Y-72451042D01*
X114957114Y-72361757D01*
X114957114Y-72218900D01*
X115004733Y-72117709D01*
X115052352Y-72064138D01*
X117186161Y-54522471D02*
X117233780Y-54421280D01*
X117233780Y-54230804D01*
X117186161Y-54141519D01*
X117138542Y-54099852D01*
X117043304Y-54064138D01*
X116757590Y-54099852D01*
X116662352Y-54159376D01*
X116614733Y-54212947D01*
X116567114Y-54314138D01*
X116567114Y-54504614D01*
X116614733Y-54593900D01*
X117233780Y-55087947D02*
X117186161Y-54998661D01*
X117138542Y-54956995D01*
X117043304Y-54921280D01*
X116757590Y-54956995D01*
X116662352Y-55016519D01*
X116614733Y-55070090D01*
X116567114Y-55171280D01*
X116567114Y-55314138D01*
X116614733Y-55403423D01*
X116662352Y-55445090D01*
X116757590Y-55480804D01*
X117043304Y-55445090D01*
X117138542Y-55385566D01*
X117186161Y-55331995D01*
X117233780Y-55230804D01*
X117233780Y-55087947D01*
X117233780Y-55849852D02*
X116567114Y-55933185D01*
X116662352Y-55921280D02*
X116614733Y-55974852D01*
X116567114Y-56076042D01*
X116567114Y-56218900D01*
X116614733Y-56308185D01*
X116709971Y-56343900D01*
X117233780Y-56278423D01*
X116709971Y-56343900D02*
X116614733Y-56403423D01*
X116567114Y-56504614D01*
X116567114Y-56647471D01*
X116614733Y-56736757D01*
X116709971Y-56772471D01*
X117233780Y-56706995D01*
X116567114Y-57266519D02*
X117567114Y-57141519D01*
X116614733Y-57260566D02*
X116567114Y-57361757D01*
X116567114Y-57552233D01*
X116614733Y-57641519D01*
X116662352Y-57683185D01*
X116757590Y-57718900D01*
X117043304Y-57683185D01*
X117138542Y-57623661D01*
X117186161Y-57570090D01*
X117233780Y-57468900D01*
X117233780Y-57278423D01*
X117186161Y-57189138D01*
X117233780Y-58230804D02*
X117186161Y-58141519D01*
X117138542Y-58099852D01*
X117043304Y-58064138D01*
X116757590Y-58099852D01*
X116662352Y-58159376D01*
X116614733Y-58212947D01*
X116567114Y-58314138D01*
X116567114Y-58456995D01*
X116614733Y-58546280D01*
X116662352Y-58587947D01*
X116757590Y-58623661D01*
X117043304Y-58587947D01*
X117138542Y-58528423D01*
X117186161Y-58474852D01*
X117233780Y-58373661D01*
X117233780Y-58230804D01*
X116567114Y-59076042D02*
X117233780Y-58992709D01*
X116662352Y-59064138D02*
X116614733Y-59117709D01*
X116567114Y-59218900D01*
X116567114Y-59361757D01*
X116614733Y-59451042D01*
X116709971Y-59486757D01*
X117233780Y-59421280D01*
X117186161Y-60284376D02*
X117233780Y-60183185D01*
X117233780Y-59992709D01*
X117186161Y-59903423D01*
X117090923Y-59867709D01*
X116709971Y-59915328D01*
X116614733Y-59974852D01*
X116567114Y-60076042D01*
X116567114Y-60266519D01*
X116614733Y-60355804D01*
X116709971Y-60391519D01*
X116805209Y-60379614D01*
X116900447Y-59891519D01*
X116567114Y-60837947D02*
X117233780Y-60754614D01*
X116662352Y-60826042D02*
X116614733Y-60879614D01*
X116567114Y-60980804D01*
X116567114Y-61123661D01*
X116614733Y-61212947D01*
X116709971Y-61248661D01*
X117233780Y-61183185D01*
X116567114Y-61599852D02*
X116567114Y-61980804D01*
X116233780Y-61784376D02*
X117090923Y-61677233D01*
X117186161Y-61712947D01*
X117233780Y-61802233D01*
X117233780Y-61897471D01*
X117186161Y-62189138D02*
X117233780Y-62278423D01*
X117233780Y-62468900D01*
X117186161Y-62570090D01*
X117090923Y-62629614D01*
X117043304Y-62635566D01*
X116948066Y-62599852D01*
X116900447Y-62510566D01*
X116900447Y-62367709D01*
X116852828Y-62278423D01*
X116757590Y-62242709D01*
X116709971Y-62248661D01*
X116614733Y-62308185D01*
X116567114Y-62409376D01*
X116567114Y-62552233D01*
X116614733Y-62641519D01*
X116567114Y-63742709D02*
X116567114Y-64123661D01*
X117233780Y-63802233D02*
X116376638Y-63909376D01*
X116281400Y-63968900D01*
X116233780Y-64070090D01*
X116233780Y-64165328D01*
X117233780Y-64802233D02*
X116709971Y-64867709D01*
X116614733Y-64831995D01*
X116567114Y-64742709D01*
X116567114Y-64552233D01*
X116614733Y-64451042D01*
X117186161Y-64808185D02*
X117233780Y-64706995D01*
X117233780Y-64468900D01*
X117186161Y-64379614D01*
X117090923Y-64343900D01*
X116995685Y-64355804D01*
X116900447Y-64415328D01*
X116852828Y-64516519D01*
X116852828Y-64754614D01*
X116805209Y-64855804D01*
X117186161Y-65712947D02*
X117233780Y-65611757D01*
X117233780Y-65421280D01*
X117186161Y-65331995D01*
X117138542Y-65290328D01*
X117043304Y-65254614D01*
X116757590Y-65290328D01*
X116662352Y-65349852D01*
X116614733Y-65403423D01*
X116567114Y-65504614D01*
X116567114Y-65695090D01*
X116614733Y-65784376D01*
X117233780Y-66135566D02*
X116567114Y-66218900D01*
X116233780Y-66260566D02*
X116281400Y-66206995D01*
X116329019Y-66248661D01*
X116281400Y-66302233D01*
X116233780Y-66260566D01*
X116329019Y-66248661D01*
X116567114Y-66695090D02*
X117233780Y-66611757D01*
X116662352Y-66683185D02*
X116614733Y-66736757D01*
X116567114Y-66837947D01*
X116567114Y-66980804D01*
X116614733Y-67070090D01*
X116709971Y-67105804D01*
X117233780Y-67040328D01*
X116567114Y-68028423D02*
X117376638Y-67927233D01*
X117471876Y-67867709D01*
X117519495Y-67814138D01*
X117567114Y-67712947D01*
X117567114Y-67570090D01*
X117519495Y-67480804D01*
X117186161Y-67951042D02*
X117233780Y-67849852D01*
X117233780Y-67659376D01*
X117186161Y-67570090D01*
X117138542Y-67528423D01*
X117043304Y-67492709D01*
X116757590Y-67528423D01*
X116662352Y-67587947D01*
X116614733Y-67641519D01*
X116567114Y-67742709D01*
X116567114Y-67933185D01*
X116614733Y-68022471D01*
X117233780Y-69183185D02*
X116233780Y-69308185D01*
X116233780Y-69546280D01*
X116281400Y-69683185D01*
X116376638Y-69766519D01*
X116471876Y-69802233D01*
X116662352Y-69826042D01*
X116805209Y-69808185D01*
X116995685Y-69736757D01*
X117090923Y-69677233D01*
X117186161Y-69570090D01*
X117233780Y-69421280D01*
X117233780Y-69183185D01*
X116233780Y-70498661D02*
X116233780Y-70689138D01*
X116281400Y-70778423D01*
X116376638Y-70861757D01*
X116567114Y-70885566D01*
X116900447Y-70843900D01*
X117090923Y-70772471D01*
X117186161Y-70665328D01*
X117233780Y-70564138D01*
X117233780Y-70373661D01*
X117186161Y-70284376D01*
X117090923Y-70201042D01*
X116900447Y-70177233D01*
X116567114Y-70218900D01*
X116376638Y-70290328D01*
X116281400Y-70397471D01*
X116233780Y-70498661D01*
X116233780Y-71260566D02*
X117233780Y-71373661D01*
X116519495Y-71653423D01*
X117233780Y-71754614D01*
X116233780Y-72117709D01*
X117233780Y-72373661D02*
X116233780Y-72498661D01*
X117233780Y-72945090D01*
X116233780Y-73070090D01*
X124915571Y-45931142D02*
X124829857Y-45959714D01*
X124801285Y-45988285D01*
X124772714Y-46045428D01*
X124772714Y-46131142D01*
X124801285Y-46188285D01*
X124829857Y-46216857D01*
X124887000Y-46245428D01*
X125115571Y-46245428D01*
X125115571Y-45645428D01*
X124915571Y-45645428D01*
X124858428Y-45674000D01*
X124829857Y-45702571D01*
X124801285Y-45759714D01*
X124801285Y-45816857D01*
X124829857Y-45874000D01*
X124858428Y-45902571D01*
X124915571Y-45931142D01*
X125115571Y-45931142D01*
X124515571Y-46016857D02*
X124058428Y-46016857D01*
X124287000Y-46245428D02*
X124287000Y-45788285D01*
X120633904Y-82129380D02*
X120062476Y-82129380D01*
X120348190Y-83129380D02*
X120348190Y-82129380D01*
X119157714Y-83129380D02*
X119491047Y-82653190D01*
X119729142Y-83129380D02*
X119729142Y-82129380D01*
X119348190Y-82129380D01*
X119252952Y-82177000D01*
X119205333Y-82224619D01*
X119157714Y-82319857D01*
X119157714Y-82462714D01*
X119205333Y-82557952D01*
X119252952Y-82605571D01*
X119348190Y-82653190D01*
X119729142Y-82653190D01*
X118157714Y-83129380D02*
X118491047Y-82653190D01*
X118729142Y-83129380D02*
X118729142Y-82129380D01*
X118348190Y-82129380D01*
X118252952Y-82177000D01*
X118205333Y-82224619D01*
X118157714Y-82319857D01*
X118157714Y-82462714D01*
X118205333Y-82557952D01*
X118252952Y-82605571D01*
X118348190Y-82653190D01*
X118729142Y-82653190D01*
X117776761Y-83081761D02*
X117633904Y-83129380D01*
X117395809Y-83129380D01*
X117300571Y-83081761D01*
X117252952Y-83034142D01*
X117205333Y-82938904D01*
X117205333Y-82843666D01*
X117252952Y-82748428D01*
X117300571Y-82700809D01*
X117395809Y-82653190D01*
X117586285Y-82605571D01*
X117681523Y-82557952D01*
X117729142Y-82510333D01*
X117776761Y-82415095D01*
X117776761Y-82319857D01*
X117729142Y-82224619D01*
X117681523Y-82177000D01*
X117586285Y-82129380D01*
X117348190Y-82129380D01*
X117205333Y-82177000D01*
D12*
X33103771Y-40805485D02*
X32975200Y-40848342D01*
X32760914Y-40848342D01*
X32675200Y-40805485D01*
X32632342Y-40762628D01*
X32589485Y-40676914D01*
X32589485Y-40591200D01*
X32632342Y-40505485D01*
X32675200Y-40462628D01*
X32760914Y-40419771D01*
X32932342Y-40376914D01*
X33018057Y-40334057D01*
X33060914Y-40291200D01*
X33103771Y-40205485D01*
X33103771Y-40119771D01*
X33060914Y-40034057D01*
X33018057Y-39991200D01*
X32932342Y-39948342D01*
X32718057Y-39948342D01*
X32589485Y-39991200D01*
X32289485Y-39948342D02*
X32075200Y-40848342D01*
X31903771Y-40205485D01*
X31732342Y-40848342D01*
X31518057Y-39948342D01*
X30703771Y-40848342D02*
X31218057Y-40848342D01*
X30960914Y-40848342D02*
X30960914Y-39948342D01*
X31046628Y-40076914D01*
X31132342Y-40162628D01*
X31218057Y-40205485D01*
X51103771Y-28805485D02*
X50975200Y-28848342D01*
X50760914Y-28848342D01*
X50675200Y-28805485D01*
X50632342Y-28762628D01*
X50589485Y-28676914D01*
X50589485Y-28591200D01*
X50632342Y-28505485D01*
X50675200Y-28462628D01*
X50760914Y-28419771D01*
X50932342Y-28376914D01*
X51018057Y-28334057D01*
X51060914Y-28291200D01*
X51103771Y-28205485D01*
X51103771Y-28119771D01*
X51060914Y-28034057D01*
X51018057Y-27991200D01*
X50932342Y-27948342D01*
X50718057Y-27948342D01*
X50589485Y-27991200D01*
X50289485Y-27948342D02*
X50075200Y-28848342D01*
X49903771Y-28205485D01*
X49732342Y-28848342D01*
X49518057Y-27948342D01*
X49218057Y-28034057D02*
X49175200Y-27991200D01*
X49089485Y-27948342D01*
X48875200Y-27948342D01*
X48789485Y-27991200D01*
X48746628Y-28034057D01*
X48703771Y-28119771D01*
X48703771Y-28205485D01*
X48746628Y-28334057D01*
X49260914Y-28848342D01*
X48703771Y-28848342D01*
X69103771Y-21805485D02*
X68975200Y-21848342D01*
X68760914Y-21848342D01*
X68675200Y-21805485D01*
X68632342Y-21762628D01*
X68589485Y-21676914D01*
X68589485Y-21591200D01*
X68632342Y-21505485D01*
X68675200Y-21462628D01*
X68760914Y-21419771D01*
X68932342Y-21376914D01*
X69018057Y-21334057D01*
X69060914Y-21291200D01*
X69103771Y-21205485D01*
X69103771Y-21119771D01*
X69060914Y-21034057D01*
X69018057Y-20991200D01*
X68932342Y-20948342D01*
X68718057Y-20948342D01*
X68589485Y-20991200D01*
X68289485Y-20948342D02*
X68075200Y-21848342D01*
X67903771Y-21205485D01*
X67732342Y-21848342D01*
X67518057Y-20948342D01*
X67260914Y-20948342D02*
X66703771Y-20948342D01*
X67003771Y-21291200D01*
X66875200Y-21291200D01*
X66789485Y-21334057D01*
X66746628Y-21376914D01*
X66703771Y-21462628D01*
X66703771Y-21676914D01*
X66746628Y-21762628D01*
X66789485Y-21805485D01*
X66875200Y-21848342D01*
X67132342Y-21848342D01*
X67218057Y-21805485D01*
X67260914Y-21762628D01*
X87103771Y-27305485D02*
X86975200Y-27348342D01*
X86760914Y-27348342D01*
X86675200Y-27305485D01*
X86632342Y-27262628D01*
X86589485Y-27176914D01*
X86589485Y-27091200D01*
X86632342Y-27005485D01*
X86675200Y-26962628D01*
X86760914Y-26919771D01*
X86932342Y-26876914D01*
X87018057Y-26834057D01*
X87060914Y-26791200D01*
X87103771Y-26705485D01*
X87103771Y-26619771D01*
X87060914Y-26534057D01*
X87018057Y-26491200D01*
X86932342Y-26448342D01*
X86718057Y-26448342D01*
X86589485Y-26491200D01*
X86289485Y-26448342D02*
X86075200Y-27348342D01*
X85903771Y-26705485D01*
X85732342Y-27348342D01*
X85518057Y-26448342D01*
X84789485Y-26748342D02*
X84789485Y-27348342D01*
X85003771Y-26405485D02*
X85218057Y-27048342D01*
X84660914Y-27048342D01*
X105103771Y-29805485D02*
X104975200Y-29848342D01*
X104760914Y-29848342D01*
X104675200Y-29805485D01*
X104632342Y-29762628D01*
X104589485Y-29676914D01*
X104589485Y-29591200D01*
X104632342Y-29505485D01*
X104675200Y-29462628D01*
X104760914Y-29419771D01*
X104932342Y-29376914D01*
X105018057Y-29334057D01*
X105060914Y-29291200D01*
X105103771Y-29205485D01*
X105103771Y-29119771D01*
X105060914Y-29034057D01*
X105018057Y-28991200D01*
X104932342Y-28948342D01*
X104718057Y-28948342D01*
X104589485Y-28991200D01*
X104289485Y-28948342D02*
X104075200Y-29848342D01*
X103903771Y-29205485D01*
X103732342Y-29848342D01*
X103518057Y-28948342D01*
X102746628Y-28948342D02*
X103175200Y-28948342D01*
X103218057Y-29376914D01*
X103175200Y-29334057D01*
X103089485Y-29291200D01*
X102875200Y-29291200D01*
X102789485Y-29334057D01*
X102746628Y-29376914D01*
X102703771Y-29462628D01*
X102703771Y-29676914D01*
X102746628Y-29762628D01*
X102789485Y-29805485D01*
X102875200Y-29848342D01*
X103089485Y-29848342D01*
X103175200Y-29805485D01*
X103218057Y-29762628D01*
X33103771Y-57805485D02*
X32975200Y-57848342D01*
X32760914Y-57848342D01*
X32675200Y-57805485D01*
X32632342Y-57762628D01*
X32589485Y-57676914D01*
X32589485Y-57591200D01*
X32632342Y-57505485D01*
X32675200Y-57462628D01*
X32760914Y-57419771D01*
X32932342Y-57376914D01*
X33018057Y-57334057D01*
X33060914Y-57291200D01*
X33103771Y-57205485D01*
X33103771Y-57119771D01*
X33060914Y-57034057D01*
X33018057Y-56991200D01*
X32932342Y-56948342D01*
X32718057Y-56948342D01*
X32589485Y-56991200D01*
X32289485Y-56948342D02*
X32075200Y-57848342D01*
X31903771Y-57205485D01*
X31732342Y-57848342D01*
X31518057Y-56948342D01*
X30789485Y-56948342D02*
X30960914Y-56948342D01*
X31046628Y-56991200D01*
X31089485Y-57034057D01*
X31175200Y-57162628D01*
X31218057Y-57334057D01*
X31218057Y-57676914D01*
X31175200Y-57762628D01*
X31132342Y-57805485D01*
X31046628Y-57848342D01*
X30875200Y-57848342D01*
X30789485Y-57805485D01*
X30746628Y-57762628D01*
X30703771Y-57676914D01*
X30703771Y-57462628D01*
X30746628Y-57376914D01*
X30789485Y-57334057D01*
X30875200Y-57291200D01*
X31046628Y-57291200D01*
X31132342Y-57334057D01*
X31175200Y-57376914D01*
X31218057Y-57462628D01*
X51103771Y-45779485D02*
X50975200Y-45822342D01*
X50760914Y-45822342D01*
X50675200Y-45779485D01*
X50632342Y-45736628D01*
X50589485Y-45650914D01*
X50589485Y-45565200D01*
X50632342Y-45479485D01*
X50675200Y-45436628D01*
X50760914Y-45393771D01*
X50932342Y-45350914D01*
X51018057Y-45308057D01*
X51060914Y-45265200D01*
X51103771Y-45179485D01*
X51103771Y-45093771D01*
X51060914Y-45008057D01*
X51018057Y-44965200D01*
X50932342Y-44922342D01*
X50718057Y-44922342D01*
X50589485Y-44965200D01*
X50289485Y-44922342D02*
X50075200Y-45822342D01*
X49903771Y-45179485D01*
X49732342Y-45822342D01*
X49518057Y-44922342D01*
X49260914Y-44922342D02*
X48660914Y-44922342D01*
X49046628Y-45822342D01*
X69103771Y-38921485D02*
X68975200Y-38964342D01*
X68760914Y-38964342D01*
X68675200Y-38921485D01*
X68632342Y-38878628D01*
X68589485Y-38792914D01*
X68589485Y-38707200D01*
X68632342Y-38621485D01*
X68675200Y-38578628D01*
X68760914Y-38535771D01*
X68932342Y-38492914D01*
X69018057Y-38450057D01*
X69060914Y-38407200D01*
X69103771Y-38321485D01*
X69103771Y-38235771D01*
X69060914Y-38150057D01*
X69018057Y-38107200D01*
X68932342Y-38064342D01*
X68718057Y-38064342D01*
X68589485Y-38107200D01*
X68289485Y-38064342D02*
X68075200Y-38964342D01*
X67903771Y-38321485D01*
X67732342Y-38964342D01*
X67518057Y-38064342D01*
X67046628Y-38450057D02*
X67132342Y-38407200D01*
X67175200Y-38364342D01*
X67218057Y-38278628D01*
X67218057Y-38235771D01*
X67175200Y-38150057D01*
X67132342Y-38107200D01*
X67046628Y-38064342D01*
X66875200Y-38064342D01*
X66789485Y-38107200D01*
X66746628Y-38150057D01*
X66703771Y-38235771D01*
X66703771Y-38278628D01*
X66746628Y-38364342D01*
X66789485Y-38407200D01*
X66875200Y-38450057D01*
X67046628Y-38450057D01*
X67132342Y-38492914D01*
X67175200Y-38535771D01*
X67218057Y-38621485D01*
X67218057Y-38792914D01*
X67175200Y-38878628D01*
X67132342Y-38921485D01*
X67046628Y-38964342D01*
X66875200Y-38964342D01*
X66789485Y-38921485D01*
X66746628Y-38878628D01*
X66703771Y-38792914D01*
X66703771Y-38621485D01*
X66746628Y-38535771D01*
X66789485Y-38492914D01*
X66875200Y-38450057D01*
X87103771Y-44255485D02*
X86975200Y-44298342D01*
X86760914Y-44298342D01*
X86675200Y-44255485D01*
X86632342Y-44212628D01*
X86589485Y-44126914D01*
X86589485Y-44041200D01*
X86632342Y-43955485D01*
X86675200Y-43912628D01*
X86760914Y-43869771D01*
X86932342Y-43826914D01*
X87018057Y-43784057D01*
X87060914Y-43741200D01*
X87103771Y-43655485D01*
X87103771Y-43569771D01*
X87060914Y-43484057D01*
X87018057Y-43441200D01*
X86932342Y-43398342D01*
X86718057Y-43398342D01*
X86589485Y-43441200D01*
X86289485Y-43398342D02*
X86075200Y-44298342D01*
X85903771Y-43655485D01*
X85732342Y-44298342D01*
X85518057Y-43398342D01*
X85132342Y-44298342D02*
X84960914Y-44298342D01*
X84875200Y-44255485D01*
X84832342Y-44212628D01*
X84746628Y-44084057D01*
X84703771Y-43912628D01*
X84703771Y-43569771D01*
X84746628Y-43484057D01*
X84789485Y-43441200D01*
X84875200Y-43398342D01*
X85046628Y-43398342D01*
X85132342Y-43441200D01*
X85175200Y-43484057D01*
X85218057Y-43569771D01*
X85218057Y-43784057D01*
X85175200Y-43869771D01*
X85132342Y-43912628D01*
X85046628Y-43955485D01*
X84875200Y-43955485D01*
X84789485Y-43912628D01*
X84746628Y-43869771D01*
X84703771Y-43784057D01*
X105083771Y-46795485D02*
X104955200Y-46838342D01*
X104740914Y-46838342D01*
X104655200Y-46795485D01*
X104612342Y-46752628D01*
X104569485Y-46666914D01*
X104569485Y-46581200D01*
X104612342Y-46495485D01*
X104655200Y-46452628D01*
X104740914Y-46409771D01*
X104912342Y-46366914D01*
X104998057Y-46324057D01*
X105040914Y-46281200D01*
X105083771Y-46195485D01*
X105083771Y-46109771D01*
X105040914Y-46024057D01*
X104998057Y-45981200D01*
X104912342Y-45938342D01*
X104698057Y-45938342D01*
X104569485Y-45981200D01*
X104269485Y-45938342D02*
X104055200Y-46838342D01*
X103883771Y-46195485D01*
X103712342Y-46838342D01*
X103498057Y-45938342D01*
X102683771Y-46838342D02*
X103198057Y-46838342D01*
X102940914Y-46838342D02*
X102940914Y-45938342D01*
X103026628Y-46066914D01*
X103112342Y-46152628D01*
X103198057Y-46195485D01*
X102126628Y-45938342D02*
X102040914Y-45938342D01*
X101955200Y-45981200D01*
X101912342Y-46024057D01*
X101869485Y-46109771D01*
X101826628Y-46281200D01*
X101826628Y-46495485D01*
X101869485Y-46666914D01*
X101912342Y-46752628D01*
X101955200Y-46795485D01*
X102040914Y-46838342D01*
X102126628Y-46838342D01*
X102212342Y-46795485D01*
X102255200Y-46752628D01*
X102298057Y-46666914D01*
X102340914Y-46495485D01*
X102340914Y-46281200D01*
X102298057Y-46109771D01*
X102255200Y-46024057D01*
X102212342Y-45981200D01*
X102126628Y-45938342D01*
X33103771Y-74805485D02*
X32975200Y-74848342D01*
X32760914Y-74848342D01*
X32675200Y-74805485D01*
X32632342Y-74762628D01*
X32589485Y-74676914D01*
X32589485Y-74591200D01*
X32632342Y-74505485D01*
X32675200Y-74462628D01*
X32760914Y-74419771D01*
X32932342Y-74376914D01*
X33018057Y-74334057D01*
X33060914Y-74291200D01*
X33103771Y-74205485D01*
X33103771Y-74119771D01*
X33060914Y-74034057D01*
X33018057Y-73991200D01*
X32932342Y-73948342D01*
X32718057Y-73948342D01*
X32589485Y-73991200D01*
X32289485Y-73948342D02*
X32075200Y-74848342D01*
X31903771Y-74205485D01*
X31732342Y-74848342D01*
X31518057Y-73948342D01*
X30703771Y-74848342D02*
X31218057Y-74848342D01*
X30960914Y-74848342D02*
X30960914Y-73948342D01*
X31046628Y-74076914D01*
X31132342Y-74162628D01*
X31218057Y-74205485D01*
X29846628Y-74848342D02*
X30360914Y-74848342D01*
X30103771Y-74848342D02*
X30103771Y-73948342D01*
X30189485Y-74076914D01*
X30275200Y-74162628D01*
X30360914Y-74205485D01*
X51103771Y-62797485D02*
X50975200Y-62840342D01*
X50760914Y-62840342D01*
X50675200Y-62797485D01*
X50632342Y-62754628D01*
X50589485Y-62668914D01*
X50589485Y-62583200D01*
X50632342Y-62497485D01*
X50675200Y-62454628D01*
X50760914Y-62411771D01*
X50932342Y-62368914D01*
X51018057Y-62326057D01*
X51060914Y-62283200D01*
X51103771Y-62197485D01*
X51103771Y-62111771D01*
X51060914Y-62026057D01*
X51018057Y-61983200D01*
X50932342Y-61940342D01*
X50718057Y-61940342D01*
X50589485Y-61983200D01*
X50289485Y-61940342D02*
X50075200Y-62840342D01*
X49903771Y-62197485D01*
X49732342Y-62840342D01*
X49518057Y-61940342D01*
X48703771Y-62840342D02*
X49218057Y-62840342D01*
X48960914Y-62840342D02*
X48960914Y-61940342D01*
X49046628Y-62068914D01*
X49132342Y-62154628D01*
X49218057Y-62197485D01*
X48360914Y-62026057D02*
X48318057Y-61983200D01*
X48232342Y-61940342D01*
X48018057Y-61940342D01*
X47932342Y-61983200D01*
X47889485Y-62026057D01*
X47846628Y-62111771D01*
X47846628Y-62197485D01*
X47889485Y-62326057D01*
X48403771Y-62840342D01*
X47846628Y-62840342D01*
X69103771Y-55939485D02*
X68975200Y-55982342D01*
X68760914Y-55982342D01*
X68675200Y-55939485D01*
X68632342Y-55896628D01*
X68589485Y-55810914D01*
X68589485Y-55725200D01*
X68632342Y-55639485D01*
X68675200Y-55596628D01*
X68760914Y-55553771D01*
X68932342Y-55510914D01*
X69018057Y-55468057D01*
X69060914Y-55425200D01*
X69103771Y-55339485D01*
X69103771Y-55253771D01*
X69060914Y-55168057D01*
X69018057Y-55125200D01*
X68932342Y-55082342D01*
X68718057Y-55082342D01*
X68589485Y-55125200D01*
X68289485Y-55082342D02*
X68075200Y-55982342D01*
X67903771Y-55339485D01*
X67732342Y-55982342D01*
X67518057Y-55082342D01*
X66703771Y-55982342D02*
X67218057Y-55982342D01*
X66960914Y-55982342D02*
X66960914Y-55082342D01*
X67046628Y-55210914D01*
X67132342Y-55296628D01*
X67218057Y-55339485D01*
X66403771Y-55082342D02*
X65846628Y-55082342D01*
X66146628Y-55425200D01*
X66018057Y-55425200D01*
X65932342Y-55468057D01*
X65889485Y-55510914D01*
X65846628Y-55596628D01*
X65846628Y-55810914D01*
X65889485Y-55896628D01*
X65932342Y-55939485D01*
X66018057Y-55982342D01*
X66275200Y-55982342D01*
X66360914Y-55939485D01*
X66403771Y-55896628D01*
X87103771Y-61273485D02*
X86975200Y-61316342D01*
X86760914Y-61316342D01*
X86675200Y-61273485D01*
X86632342Y-61230628D01*
X86589485Y-61144914D01*
X86589485Y-61059200D01*
X86632342Y-60973485D01*
X86675200Y-60930628D01*
X86760914Y-60887771D01*
X86932342Y-60844914D01*
X87018057Y-60802057D01*
X87060914Y-60759200D01*
X87103771Y-60673485D01*
X87103771Y-60587771D01*
X87060914Y-60502057D01*
X87018057Y-60459200D01*
X86932342Y-60416342D01*
X86718057Y-60416342D01*
X86589485Y-60459200D01*
X86289485Y-60416342D02*
X86075200Y-61316342D01*
X85903771Y-60673485D01*
X85732342Y-61316342D01*
X85518057Y-60416342D01*
X84703771Y-61316342D02*
X85218057Y-61316342D01*
X84960914Y-61316342D02*
X84960914Y-60416342D01*
X85046628Y-60544914D01*
X85132342Y-60630628D01*
X85218057Y-60673485D01*
X83932342Y-60716342D02*
X83932342Y-61316342D01*
X84146628Y-60373485D02*
X84360914Y-61016342D01*
X83803771Y-61016342D01*
X105083771Y-63813485D02*
X104955200Y-63856342D01*
X104740914Y-63856342D01*
X104655200Y-63813485D01*
X104612342Y-63770628D01*
X104569485Y-63684914D01*
X104569485Y-63599200D01*
X104612342Y-63513485D01*
X104655200Y-63470628D01*
X104740914Y-63427771D01*
X104912342Y-63384914D01*
X104998057Y-63342057D01*
X105040914Y-63299200D01*
X105083771Y-63213485D01*
X105083771Y-63127771D01*
X105040914Y-63042057D01*
X104998057Y-62999200D01*
X104912342Y-62956342D01*
X104698057Y-62956342D01*
X104569485Y-62999200D01*
X104269485Y-62956342D02*
X104055200Y-63856342D01*
X103883771Y-63213485D01*
X103712342Y-63856342D01*
X103498057Y-62956342D01*
X102683771Y-63856342D02*
X103198057Y-63856342D01*
X102940914Y-63856342D02*
X102940914Y-62956342D01*
X103026628Y-63084914D01*
X103112342Y-63170628D01*
X103198057Y-63213485D01*
X101869485Y-62956342D02*
X102298057Y-62956342D01*
X102340914Y-63384914D01*
X102298057Y-63342057D01*
X102212342Y-63299200D01*
X101998057Y-63299200D01*
X101912342Y-63342057D01*
X101869485Y-63384914D01*
X101826628Y-63470628D01*
X101826628Y-63684914D01*
X101869485Y-63770628D01*
X101912342Y-63813485D01*
X101998057Y-63856342D01*
X102212342Y-63856342D01*
X102298057Y-63813485D01*
X102340914Y-63770628D01*
X101502003Y-96335977D02*
X101634778Y-96363147D01*
X101820355Y-96470290D01*
X101873157Y-96550263D01*
X101888844Y-96608807D01*
X101883102Y-96704466D01*
X101840245Y-96778697D01*
X101760273Y-96831499D01*
X101701729Y-96847186D01*
X101606069Y-96841444D01*
X101436179Y-96792845D01*
X101340520Y-96787103D01*
X101281976Y-96802790D01*
X101202003Y-96855592D01*
X101159146Y-96929823D01*
X101153405Y-97025482D01*
X101169091Y-97084026D01*
X101221894Y-97163999D01*
X101407470Y-97271142D01*
X101540245Y-97298312D01*
X101778624Y-97485427D02*
X102414201Y-96813147D01*
X102241234Y-97455592D01*
X102711124Y-96984576D01*
X102446701Y-97871142D01*
X103601893Y-97498862D02*
X103156509Y-97241719D01*
X103379201Y-97370290D02*
X102929201Y-98149713D01*
X102919256Y-97995510D01*
X102887882Y-97878422D01*
X102835080Y-97798449D01*
X103411701Y-98428285D02*
X103931316Y-98728285D01*
X104047278Y-97756005D01*
X83612338Y-90565723D02*
X83747621Y-90557603D01*
X83954605Y-90613064D01*
X84026306Y-90676645D01*
X84056611Y-90729134D01*
X84075823Y-90823020D01*
X84053639Y-90905814D01*
X83990057Y-90977515D01*
X83937568Y-91007820D01*
X83843683Y-91027032D01*
X83667003Y-91024060D01*
X83573117Y-91043272D01*
X83520628Y-91073577D01*
X83457047Y-91145278D01*
X83434862Y-91228072D01*
X83454075Y-91321958D01*
X83484379Y-91374447D01*
X83556081Y-91438028D01*
X83763065Y-91493489D01*
X83898347Y-91485369D01*
X84177033Y-91604412D02*
X84616954Y-90790540D01*
X84616158Y-91455861D01*
X84948129Y-90879278D01*
X84922176Y-91804072D01*
X85941652Y-91145492D02*
X85444891Y-91012385D01*
X85693271Y-91078938D02*
X85460334Y-91948271D01*
X85410817Y-91801896D01*
X85350208Y-91696918D01*
X85278507Y-91633337D01*
X86453858Y-92214485D02*
X86288271Y-92170116D01*
X86216569Y-92106535D01*
X86186265Y-92054046D01*
X86136748Y-91907671D01*
X86139720Y-91730991D01*
X86228458Y-91399817D01*
X86292039Y-91328115D01*
X86344528Y-91297811D01*
X86438414Y-91278599D01*
X86604002Y-91322967D01*
X86675703Y-91386549D01*
X86706007Y-91439038D01*
X86725220Y-91532924D01*
X86669759Y-91739908D01*
X86606177Y-91811609D01*
X86553688Y-91841914D01*
X86459802Y-91861126D01*
X86294215Y-91816757D01*
X86222514Y-91753176D01*
X86192209Y-91700687D01*
X86172997Y-91606801D01*
D13*
X72175214Y-47512500D02*
X73175214Y-47512500D01*
X72222833Y-47512500D02*
X72175214Y-47607738D01*
X72175214Y-47798214D01*
X72222833Y-47893452D01*
X72270452Y-47941071D01*
X72365690Y-47988690D01*
X72651404Y-47988690D01*
X72746642Y-47941071D01*
X72794261Y-47893452D01*
X72841880Y-47798214D01*
X72841880Y-47607738D01*
X72794261Y-47512500D01*
X72175214Y-48845833D02*
X72841880Y-48845833D01*
X72175214Y-48417261D02*
X72699023Y-48417261D01*
X72794261Y-48464880D01*
X72841880Y-48560119D01*
X72841880Y-48702976D01*
X72794261Y-48798214D01*
X72746642Y-48845833D01*
X72794261Y-49750595D02*
X72841880Y-49655357D01*
X72841880Y-49464880D01*
X72794261Y-49369642D01*
X72746642Y-49322023D01*
X72651404Y-49274404D01*
X72365690Y-49274404D01*
X72270452Y-49322023D01*
X72222833Y-49369642D01*
X72175214Y-49464880D01*
X72175214Y-49655357D01*
X72222833Y-49750595D01*
X72841880Y-50179166D02*
X71841880Y-50179166D01*
X72460928Y-50274404D02*
X72841880Y-50560119D01*
X72175214Y-50560119D02*
X72556166Y-50179166D01*
X72111714Y-33558500D02*
X72111714Y-33939452D01*
X71778380Y-33701357D02*
X72635523Y-33701357D01*
X72730761Y-33748976D01*
X72778380Y-33844214D01*
X72778380Y-33939452D01*
X72730761Y-34653738D02*
X72778380Y-34558500D01*
X72778380Y-34368023D01*
X72730761Y-34272785D01*
X72635523Y-34225166D01*
X72254571Y-34225166D01*
X72159333Y-34272785D01*
X72111714Y-34368023D01*
X72111714Y-34558500D01*
X72159333Y-34653738D01*
X72254571Y-34701357D01*
X72349809Y-34701357D01*
X72445047Y-34225166D01*
X72111714Y-35129928D02*
X72778380Y-35129928D01*
X72206952Y-35129928D02*
X72159333Y-35177547D01*
X72111714Y-35272785D01*
X72111714Y-35415642D01*
X72159333Y-35510880D01*
X72254571Y-35558500D01*
X72778380Y-35558500D01*
X72111714Y-35891833D02*
X72111714Y-36272785D01*
X71778380Y-36034690D02*
X72635523Y-36034690D01*
X72730761Y-36082309D01*
X72778380Y-36177547D01*
X72778380Y-36272785D01*
X72778380Y-36606119D02*
X72111714Y-36606119D01*
X71778380Y-36606119D02*
X71826000Y-36558500D01*
X71873619Y-36606119D01*
X71826000Y-36653738D01*
X71778380Y-36606119D01*
X71873619Y-36606119D01*
X72111714Y-37082309D02*
X72778380Y-37082309D01*
X72206952Y-37082309D02*
X72159333Y-37129928D01*
X72111714Y-37225166D01*
X72111714Y-37368023D01*
X72159333Y-37463261D01*
X72254571Y-37510880D01*
X72778380Y-37510880D01*
X72111714Y-38415642D02*
X72921238Y-38415642D01*
X73016476Y-38368023D01*
X73064095Y-38320404D01*
X73111714Y-38225166D01*
X73111714Y-38082309D01*
X73064095Y-37987071D01*
X72730761Y-38415642D02*
X72778380Y-38320404D01*
X72778380Y-38129928D01*
X72730761Y-38034690D01*
X72683142Y-37987071D01*
X72587904Y-37939452D01*
X72302190Y-37939452D01*
X72206952Y-37987071D01*
X72159333Y-38034690D01*
X72111714Y-38129928D01*
X72111714Y-38320404D01*
X72159333Y-38415642D01*
D11*
X96457635Y-26410556D02*
X96617978Y-25832378D01*
X96397719Y-25771295D01*
X96335019Y-25783556D01*
X96299852Y-25803453D01*
X96257049Y-25850882D01*
X96234143Y-25933479D01*
X96246404Y-25996179D01*
X96266301Y-26031347D01*
X96313730Y-26074150D01*
X96533989Y-26135233D01*
X95929670Y-25641493D02*
X95819541Y-25610951D01*
X95756841Y-25623213D01*
X95686506Y-25663007D01*
X95628432Y-25765501D01*
X95574984Y-25958227D01*
X95571975Y-26075991D01*
X95611769Y-26146327D01*
X95659198Y-26189130D01*
X95769327Y-26219671D01*
X95832027Y-26207410D01*
X95902363Y-26167616D01*
X95960437Y-26065122D01*
X96013884Y-25872396D01*
X96016893Y-25754631D01*
X95977100Y-25684296D01*
X95929670Y-25641493D01*
X95489154Y-25519327D02*
X95191149Y-26059328D01*
X95195551Y-25615802D01*
X94970891Y-25998245D01*
X94993572Y-25381890D01*
X94696960Y-25596130D02*
X94504234Y-25542682D01*
X94337648Y-25822631D02*
X94612971Y-25898985D01*
X94773314Y-25320807D01*
X94497991Y-25244453D01*
X93759470Y-25662288D02*
X94028549Y-25440413D01*
X94089857Y-25753913D02*
X94250200Y-25175735D01*
X94029942Y-25114652D01*
X93967242Y-25126913D01*
X93932074Y-25146810D01*
X93889271Y-25194239D01*
X93866365Y-25276836D01*
X93878626Y-25339536D01*
X93898523Y-25374704D01*
X93945953Y-25417507D01*
X94166211Y-25478590D01*
X93106330Y-25451507D02*
X93016097Y-25456133D01*
X92878436Y-25417956D01*
X92831007Y-25375153D01*
X92811110Y-25339985D01*
X92798848Y-25277285D01*
X92814119Y-25222221D01*
X92856922Y-25174792D01*
X92892090Y-25154895D01*
X92954790Y-25142633D01*
X93072554Y-25145642D01*
X93135254Y-25133381D01*
X93170422Y-25113484D01*
X93213225Y-25066055D01*
X93228496Y-25010990D01*
X93216234Y-24948290D01*
X93196337Y-24913122D01*
X93148908Y-24870319D01*
X93011247Y-24832143D01*
X92921014Y-24836769D01*
X92735924Y-24755789D02*
X92437919Y-25295790D01*
X92442321Y-24852264D01*
X92217661Y-25234707D01*
X92240342Y-24618352D01*
X86084180Y-25163580D02*
X86417514Y-24687390D01*
X86655609Y-25163580D02*
X86655609Y-24163580D01*
X86274657Y-24163580D01*
X86179419Y-24211200D01*
X86131800Y-24258819D01*
X86084180Y-24354057D01*
X86084180Y-24496914D01*
X86131800Y-24592152D01*
X86179419Y-24639771D01*
X86274657Y-24687390D01*
X86655609Y-24687390D01*
X85655609Y-24639771D02*
X85322276Y-24639771D01*
X85179419Y-25163580D02*
X85655609Y-25163580D01*
X85655609Y-24163580D01*
X85179419Y-24163580D01*
X84798466Y-25115961D02*
X84655609Y-25163580D01*
X84417514Y-25163580D01*
X84322276Y-25115961D01*
X84274657Y-25068342D01*
X84227038Y-24973104D01*
X84227038Y-24877866D01*
X84274657Y-24782628D01*
X84322276Y-24735009D01*
X84417514Y-24687390D01*
X84607990Y-24639771D01*
X84703228Y-24592152D01*
X84750847Y-24544533D01*
X84798466Y-24449295D01*
X84798466Y-24354057D01*
X84750847Y-24258819D01*
X84703228Y-24211200D01*
X84607990Y-24163580D01*
X84369895Y-24163580D01*
X84227038Y-24211200D01*
X83798466Y-24639771D02*
X83465133Y-24639771D01*
X83322276Y-25163580D02*
X83798466Y-25163580D01*
X83798466Y-24163580D01*
X83322276Y-24163580D01*
X83036561Y-24163580D02*
X82465133Y-24163580D01*
X82750847Y-25163580D02*
X82750847Y-24163580D01*
X125492000Y-46974000D02*
X125492000Y-44974000D01*
X127492000Y-44974000D02*
X127492000Y-46974000D01*
X127492000Y-46974000D02*
X125492000Y-46974000D01*
X125492000Y-44974000D02*
X127492000Y-44974000D01*
X110252000Y-46974000D02*
X110252000Y-44974000D01*
X112252000Y-46974000D02*
X110252000Y-46974000D01*
X110252000Y-44974000D02*
X112252000Y-44974000D01*
X112252000Y-44974000D02*
X112252000Y-46974000D01*
D10*
X33938000Y-39222000D02*
X33938000Y-41254000D01*
X33938000Y-39222000D02*
X31906000Y-39222000D01*
X51938000Y-27222000D02*
X51938000Y-29254000D01*
X51938000Y-27222000D02*
X49906000Y-27222000D01*
X69938000Y-20222000D02*
X67906000Y-20222000D01*
X69938000Y-20222000D02*
X69938000Y-22254000D01*
X87938000Y-25722000D02*
X87938000Y-27754000D01*
X87938000Y-25722000D02*
X85906000Y-25722000D01*
X105938000Y-28222000D02*
X105938000Y-30254000D01*
X105938000Y-28222000D02*
X103906000Y-28222000D01*
X33938000Y-56222000D02*
X33938000Y-58254000D01*
X33938000Y-56222000D02*
X31906000Y-56222000D01*
X51938000Y-44196000D02*
X51938000Y-46228000D01*
X51938000Y-44196000D02*
X49906000Y-44196000D01*
X69938000Y-37338000D02*
X69938000Y-39370000D01*
X69938000Y-37338000D02*
X67906000Y-37338000D01*
X87938000Y-42672000D02*
X87938000Y-44704000D01*
X87938000Y-42672000D02*
X85906000Y-42672000D01*
X105918000Y-45212000D02*
X105918000Y-47244000D01*
X105918000Y-45212000D02*
X103886000Y-45212000D01*
X33938000Y-73222000D02*
X31906000Y-73222000D01*
X33938000Y-73222000D02*
X33938000Y-75254000D01*
X51938000Y-61214000D02*
X49906000Y-61214000D01*
X51938000Y-61214000D02*
X51938000Y-63246000D01*
X69938000Y-54356000D02*
X69938000Y-56388000D01*
X69938000Y-54356000D02*
X67906000Y-54356000D01*
X87938000Y-59690000D02*
X87938000Y-61722000D01*
X87938000Y-59690000D02*
X85906000Y-59690000D01*
X105918000Y-62230000D02*
X103886000Y-62230000D01*
X105918000Y-62230000D02*
X105918000Y-64262000D01*
X99987798Y-97290202D02*
X101747561Y-98306202D01*
X99987798Y-97290202D02*
X101003798Y-95530439D01*
X82396700Y-91879338D02*
X84359461Y-92405259D01*
X82396700Y-91879338D02*
X82922620Y-89916577D01*
D11*
X127762000Y-47752000D02*
X127762000Y-78232000D01*
X109982000Y-47752000D02*
X127762000Y-47752000D01*
X127762000Y-78232000D02*
X109982000Y-78232000D01*
X109982000Y-47752000D02*
X109982000Y-78232000D01*
D14*
X69722500Y-22659999D02*
G75*
G03*
X65571954Y-23693865I2857500J-20320001D01*
G01*
X52259999Y-45837500D02*
G75*
G03*
X53293865Y-49988046I20320001J2857500D01*
G01*
X53293865Y-35971956D02*
G75*
G03*
X52260000Y-40122500I19286255J-7008074D01*
G01*
X91866134Y-49988048D02*
G75*
G03*
X92900000Y-45837500I-19286134J7008048D01*
G01*
X71451615Y-53715864D02*
G75*
G03*
X72580000Y-53775000I1128379J10735785D01*
G01*
X72580000Y-32185000D02*
G75*
G03*
X71451615Y-32244136I-6J-10794921D01*
G01*
X75437500Y-63300000D02*
G75*
G03*
X79588045Y-62266135I-2857506J20320019D01*
G01*
X73708385Y-32244137D02*
G75*
G03*
X72580000Y-32185000I-1128385J-10735763D01*
G01*
X65571955Y-62266135D02*
G75*
G03*
X69722500Y-63300000I7008045J19286135D01*
G01*
X92900000Y-40122500D02*
G75*
G03*
X91866134Y-35971952I-20320000J-2857500D01*
G01*
X79588049Y-23693867D02*
G75*
G03*
X75437500Y-22660000I-7008049J-19286133D01*
G01*
X72580000Y-53775001D02*
G75*
G03*
X73708385Y-53715864I0J10794901D01*
G01*
G36*
X72457717Y-57410364D02*
G01*
X72455104Y-57438759D01*
X72446235Y-57485209D01*
X72408682Y-57612369D01*
X72353516Y-57738232D01*
X72283824Y-57856414D01*
X72202693Y-57960534D01*
X72194299Y-57969700D01*
X72085987Y-58070026D01*
X71963567Y-58154023D01*
X71830394Y-58220002D01*
X71689826Y-58266277D01*
X71545218Y-58291158D01*
X71444972Y-58295641D01*
X71296551Y-58284242D01*
X71153132Y-58251989D01*
X71016896Y-58199966D01*
X70890021Y-58129252D01*
X70774688Y-58040930D01*
X70673075Y-57936081D01*
X70587363Y-57815788D01*
X70530108Y-57708869D01*
X70476963Y-57569633D01*
X70445607Y-57425069D01*
X70439103Y-57328705D01*
X70934342Y-57328705D01*
X70934624Y-57333995D01*
X70938942Y-57389298D01*
X70946299Y-57431590D01*
X70958944Y-57470198D01*
X70979125Y-57514444D01*
X71000613Y-57552771D01*
X71042098Y-57611565D01*
X71090155Y-57667021D01*
X71139478Y-57713215D01*
X71184764Y-57744219D01*
X71200931Y-57751995D01*
X71241836Y-57769355D01*
X71284833Y-57785441D01*
X71357660Y-57804729D01*
X71461361Y-57813250D01*
X71562902Y-57800456D01*
X71659688Y-57767324D01*
X71749120Y-57714831D01*
X71828601Y-57643954D01*
X71895535Y-57555671D01*
X71924189Y-57501526D01*
X71954621Y-57407507D01*
X71965193Y-57309958D01*
X71956887Y-57212010D01*
X71930685Y-57116797D01*
X71887572Y-57027450D01*
X71828529Y-56947104D01*
X71754539Y-56878890D01*
X71666587Y-56825941D01*
X71652584Y-56819655D01*
X71554238Y-56789030D01*
X71452886Y-56778848D01*
X71351982Y-56788168D01*
X71254983Y-56816046D01*
X71165347Y-56861542D01*
X71086530Y-56923712D01*
X71021988Y-57001616D01*
X71004218Y-57030145D01*
X70960566Y-57123568D01*
X70937710Y-57221460D01*
X70934342Y-57328705D01*
X70439103Y-57328705D01*
X70435316Y-57272591D01*
X70438877Y-57182921D01*
X70461558Y-57032642D01*
X70504310Y-56890673D01*
X70566120Y-56758688D01*
X70645978Y-56638363D01*
X70742872Y-56531374D01*
X70855792Y-56439394D01*
X70983725Y-56364101D01*
X71053576Y-56331462D01*
X71128714Y-56302245D01*
X71200366Y-56282753D01*
X71276849Y-56270816D01*
X71366484Y-56264264D01*
X71384296Y-56263596D01*
X71523497Y-56270034D01*
X71653880Y-56297710D01*
X71776096Y-56346814D01*
X71890793Y-56417536D01*
X71914927Y-56434738D01*
X71939773Y-56451081D01*
X71952204Y-56457395D01*
X71953112Y-56453365D01*
X71954561Y-56429558D01*
X71955888Y-56386435D01*
X71957057Y-56326360D01*
X71958033Y-56251698D01*
X71958783Y-56164812D01*
X71959272Y-56068067D01*
X71959464Y-55963827D01*
X71959612Y-55470259D01*
X72467316Y-55980285D01*
X72467229Y-56671999D01*
X72467226Y-56683735D01*
X72466965Y-56834209D01*
X72466301Y-56971481D01*
X72465257Y-57094137D01*
X72463854Y-57200766D01*
X72462115Y-57289955D01*
X72461531Y-57309958D01*
X72460062Y-57360292D01*
X72457717Y-57410364D01*
G37*
D15*
X72457717Y-57410364D02*
X72455104Y-57438759D01*
X72446235Y-57485209D01*
X72408682Y-57612369D01*
X72353516Y-57738232D01*
X72283824Y-57856414D01*
X72202693Y-57960534D01*
X72194299Y-57969700D01*
X72085987Y-58070026D01*
X71963567Y-58154023D01*
X71830394Y-58220002D01*
X71689826Y-58266277D01*
X71545218Y-58291158D01*
X71444972Y-58295641D01*
X71296551Y-58284242D01*
X71153132Y-58251989D01*
X71016896Y-58199966D01*
X70890021Y-58129252D01*
X70774688Y-58040930D01*
X70673075Y-57936081D01*
X70587363Y-57815788D01*
X70530108Y-57708869D01*
X70476963Y-57569633D01*
X70445607Y-57425069D01*
X70439103Y-57328705D01*
X70934342Y-57328705D01*
X70934624Y-57333995D01*
X70938942Y-57389298D01*
X70946299Y-57431590D01*
X70958944Y-57470198D01*
X70979125Y-57514444D01*
X71000613Y-57552771D01*
X71042098Y-57611565D01*
X71090155Y-57667021D01*
X71139478Y-57713215D01*
X71184764Y-57744219D01*
X71200931Y-57751995D01*
X71241836Y-57769355D01*
X71284833Y-57785441D01*
X71357660Y-57804729D01*
X71461361Y-57813250D01*
X71562902Y-57800456D01*
X71659688Y-57767324D01*
X71749120Y-57714831D01*
X71828601Y-57643954D01*
X71895535Y-57555671D01*
X71924189Y-57501526D01*
X71954621Y-57407507D01*
X71965193Y-57309958D01*
X71956887Y-57212010D01*
X71930685Y-57116797D01*
X71887572Y-57027450D01*
X71828529Y-56947104D01*
X71754539Y-56878890D01*
X71666587Y-56825941D01*
X71652584Y-56819655D01*
X71554238Y-56789030D01*
X71452886Y-56778848D01*
X71351982Y-56788168D01*
X71254983Y-56816046D01*
X71165347Y-56861542D01*
X71086530Y-56923712D01*
X71021988Y-57001616D01*
X71004218Y-57030145D01*
X70960566Y-57123568D01*
X70937710Y-57221460D01*
X70934342Y-57328705D01*
X70439103Y-57328705D01*
X70435316Y-57272591D01*
X70438877Y-57182921D01*
X70461558Y-57032642D01*
X70504310Y-56890673D01*
X70566120Y-56758688D01*
X70645978Y-56638363D01*
X70742872Y-56531374D01*
X70855792Y-56439394D01*
X70983725Y-56364101D01*
X71053576Y-56331462D01*
X71128714Y-56302245D01*
X71200366Y-56282753D01*
X71276849Y-56270816D01*
X71366484Y-56264264D01*
X71384296Y-56263596D01*
X71523497Y-56270034D01*
X71653880Y-56297710D01*
X71776096Y-56346814D01*
X71890793Y-56417536D01*
X71914927Y-56434738D01*
X71939773Y-56451081D01*
X71952204Y-56457395D01*
X71953112Y-56453365D01*
X71954561Y-56429558D01*
X71955888Y-56386435D01*
X71957057Y-56326360D01*
X71958033Y-56251698D01*
X71958783Y-56164812D01*
X71959272Y-56068067D01*
X71959464Y-55963827D01*
X71959612Y-55470259D01*
X72467316Y-55980285D01*
X72467229Y-56671999D01*
X72467226Y-56683735D01*
X72466965Y-56834209D01*
X72466301Y-56971481D01*
X72465257Y-57094137D01*
X72463854Y-57200766D01*
X72462115Y-57289955D01*
X72461531Y-57309958D01*
X72460062Y-57360292D01*
X72457717Y-57410364D01*
G36*
X74660952Y-58206356D02*
G01*
X74570108Y-58114080D01*
X74556327Y-58100084D01*
X74524466Y-58067731D01*
X74478519Y-58021077D01*
X74419703Y-57961359D01*
X74349236Y-57889814D01*
X74268337Y-57807677D01*
X74178222Y-57716184D01*
X74080110Y-57616573D01*
X73975218Y-57510080D01*
X73864764Y-57397940D01*
X73749965Y-57281391D01*
X73632040Y-57161668D01*
X72784816Y-56301531D01*
X73073184Y-56298438D01*
X73361552Y-56295344D01*
X74164498Y-57098044D01*
X74164498Y-55464486D01*
X74660952Y-55464486D01*
X74660952Y-58206356D01*
G37*
X74660952Y-58206356D02*
X74570108Y-58114080D01*
X74556327Y-58100084D01*
X74524466Y-58067731D01*
X74478519Y-58021077D01*
X74419703Y-57961359D01*
X74349236Y-57889814D01*
X74268337Y-57807677D01*
X74178222Y-57716184D01*
X74080110Y-57616573D01*
X73975218Y-57510080D01*
X73864764Y-57397940D01*
X73749965Y-57281391D01*
X73632040Y-57161668D01*
X72784816Y-56301531D01*
X73073184Y-56298438D01*
X73361552Y-56295344D01*
X74164498Y-57098044D01*
X74164498Y-55464486D01*
X74660952Y-55464486D01*
X74660952Y-58206356D01*
G36*
X73367184Y-57496669D02*
G01*
X73379413Y-57506717D01*
X73404895Y-57530337D01*
X73441042Y-57565050D01*
X73485266Y-57608375D01*
X73534979Y-57657830D01*
X73696014Y-57819174D01*
X73662132Y-57856989D01*
X73658955Y-57860481D01*
X73637087Y-57883690D01*
X73602741Y-57919436D01*
X73558925Y-57964616D01*
X73508642Y-58016129D01*
X73454900Y-58070872D01*
X73281550Y-58246941D01*
X72661536Y-58246941D01*
X72689837Y-58213306D01*
X72692130Y-58210615D01*
X72712798Y-58187386D01*
X72745556Y-58151546D01*
X72788416Y-58105201D01*
X72839388Y-58050458D01*
X72896484Y-57989423D01*
X72957714Y-57924204D01*
X73021089Y-57856906D01*
X73084622Y-57789636D01*
X73146321Y-57724501D01*
X73204200Y-57663607D01*
X73256267Y-57609061D01*
X73300536Y-57562969D01*
X73335015Y-57527438D01*
X73357718Y-57504575D01*
X73366653Y-57496486D01*
X73367184Y-57496669D01*
G37*
X73367184Y-57496669D02*
X73379413Y-57506717D01*
X73404895Y-57530337D01*
X73441042Y-57565050D01*
X73485266Y-57608375D01*
X73534979Y-57657830D01*
X73696014Y-57819174D01*
X73662132Y-57856989D01*
X73658955Y-57860481D01*
X73637087Y-57883690D01*
X73602741Y-57919436D01*
X73558925Y-57964616D01*
X73508642Y-58016129D01*
X73454900Y-58070872D01*
X73281550Y-58246941D01*
X72661536Y-58246941D01*
X72689837Y-58213306D01*
X72692130Y-58210615D01*
X72712798Y-58187386D01*
X72745556Y-58151546D01*
X72788416Y-58105201D01*
X72839388Y-58050458D01*
X72896484Y-57989423D01*
X72957714Y-57924204D01*
X73021089Y-57856906D01*
X73084622Y-57789636D01*
X73146321Y-57724501D01*
X73204200Y-57663607D01*
X73256267Y-57609061D01*
X73300536Y-57562969D01*
X73335015Y-57527438D01*
X73357718Y-57504575D01*
X73366653Y-57496486D01*
X73367184Y-57496669D01*
D10*
X83108800Y-23672800D02*
X83108800Y-23372800D01*
X86408800Y-23372800D02*
X86408800Y-23672800D01*
X86408800Y-23672800D02*
X83108800Y-23672800D01*
X86408800Y-21172800D02*
X86408800Y-20872800D01*
X83108800Y-20872800D02*
X83108800Y-21172800D01*
X86408800Y-20872800D02*
X83108800Y-20872800D01*
%LPC*%
D16*
X119759000Y-69342000D02*
G75*
G03*
X119759000Y-69342000I-125000J0D01*
G01*
X118235000Y-69342000D02*
G75*
G03*
X118235000Y-69342000I-125000J0D01*
G01*
X118235000Y-71882000D02*
G75*
G03*
X118235000Y-71882000I-125000J0D01*
G01*
X119759000Y-54102000D02*
G75*
G03*
X119759000Y-54102000I-125000J0D01*
G01*
X118235000Y-61722000D02*
G75*
G03*
X118235000Y-61722000I-125000J0D01*
G01*
X119759000Y-56642000D02*
G75*
G03*
X119759000Y-56642000I-125000J0D01*
G01*
X119759000Y-76962000D02*
G75*
G03*
X119759000Y-76962000I-125000J0D01*
G01*
X118235000Y-56642000D02*
G75*
G03*
X118235000Y-56642000I-125000J0D01*
G01*
X118235000Y-76962000D02*
G75*
G03*
X118235000Y-76962000I-125000J0D01*
G01*
X119759000Y-61722000D02*
G75*
G03*
X119759000Y-61722000I-125000J0D01*
G01*
X119759000Y-64262000D02*
G75*
G03*
X119759000Y-64262000I-125000J0D01*
G01*
X119759000Y-71882000D02*
G75*
G03*
X119759000Y-71882000I-125000J0D01*
G01*
X118235000Y-49022000D02*
G75*
G03*
X118235000Y-49022000I-125000J0D01*
G01*
X119759000Y-66802000D02*
G75*
G03*
X119759000Y-66802000I-125000J0D01*
G01*
X118235000Y-64262000D02*
G75*
G03*
X118235000Y-64262000I-125000J0D01*
G01*
X118235000Y-74422000D02*
G75*
G03*
X118235000Y-74422000I-125000J0D01*
G01*
X118235000Y-51562000D02*
G75*
G03*
X118235000Y-51562000I-125000J0D01*
G01*
X119759000Y-49022000D02*
G75*
G03*
X119759000Y-49022000I-125000J0D01*
G01*
X118235000Y-54102000D02*
G75*
G03*
X118235000Y-54102000I-125000J0D01*
G01*
X118235000Y-59182000D02*
G75*
G03*
X118235000Y-59182000I-125000J0D01*
G01*
X118235000Y-66802000D02*
G75*
G03*
X118235000Y-66802000I-125000J0D01*
G01*
X119759000Y-74422000D02*
G75*
G03*
X119759000Y-74422000I-125000J0D01*
G01*
X119759000Y-59182000D02*
G75*
G03*
X119759000Y-59182000I-125000J0D01*
G01*
X119759000Y-51562000D02*
G75*
G03*
X119759000Y-51562000I-125000J0D01*
G01*
G36*
X124968000Y-64770000D02*
G01*
X123952000Y-64770000D01*
X123952000Y-63754000D01*
X124968000Y-63754000D01*
X124968000Y-64770000D01*
G37*
D13*
X124968000Y-64770000D02*
X123952000Y-64770000D01*
X123952000Y-63754000D01*
X124968000Y-63754000D01*
X124968000Y-64770000D01*
G36*
X113792000Y-77470000D02*
G01*
X112776000Y-77470000D01*
X112776000Y-76454000D01*
X113792000Y-76454000D01*
X113792000Y-77470000D01*
G37*
X113792000Y-77470000D02*
X112776000Y-77470000D01*
X112776000Y-76454000D01*
X113792000Y-76454000D01*
X113792000Y-77470000D01*
G36*
X124968000Y-59690000D02*
G01*
X123952000Y-59690000D01*
X123952000Y-58674000D01*
X124968000Y-58674000D01*
X124968000Y-59690000D01*
G37*
X124968000Y-59690000D02*
X123952000Y-59690000D01*
X123952000Y-58674000D01*
X124968000Y-58674000D01*
X124968000Y-59690000D01*
G36*
X124968000Y-62230000D02*
G01*
X123952000Y-62230000D01*
X123952000Y-61214000D01*
X124968000Y-61214000D01*
X124968000Y-62230000D01*
G37*
X124968000Y-62230000D02*
X123952000Y-62230000D01*
X123952000Y-61214000D01*
X124968000Y-61214000D01*
X124968000Y-62230000D01*
G36*
X124968000Y-69850000D02*
G01*
X123952000Y-69850000D01*
X123952000Y-68834000D01*
X124968000Y-68834000D01*
X124968000Y-69850000D01*
G37*
X124968000Y-69850000D02*
X123952000Y-69850000D01*
X123952000Y-68834000D01*
X124968000Y-68834000D01*
X124968000Y-69850000D01*
G36*
X124968000Y-54610000D02*
G01*
X123952000Y-54610000D01*
X123952000Y-53594000D01*
X124968000Y-53594000D01*
X124968000Y-54610000D01*
G37*
X124968000Y-54610000D02*
X123952000Y-54610000D01*
X123952000Y-53594000D01*
X124968000Y-53594000D01*
X124968000Y-54610000D01*
G36*
X113792000Y-67310000D02*
G01*
X112776000Y-67310000D01*
X112776000Y-66294000D01*
X113792000Y-66294000D01*
X113792000Y-67310000D01*
G37*
X113792000Y-67310000D02*
X112776000Y-67310000D01*
X112776000Y-66294000D01*
X113792000Y-66294000D01*
X113792000Y-67310000D01*
G36*
X124968000Y-52070000D02*
G01*
X123952000Y-52070000D01*
X123952000Y-51054000D01*
X124968000Y-51054000D01*
X124968000Y-52070000D01*
G37*
X124968000Y-52070000D02*
X123952000Y-52070000D01*
X123952000Y-51054000D01*
X124968000Y-51054000D01*
X124968000Y-52070000D01*
G36*
X113792000Y-54610000D02*
G01*
X112776000Y-54610000D01*
X112776000Y-53594000D01*
X113792000Y-53594000D01*
X113792000Y-54610000D01*
G37*
X113792000Y-54610000D02*
X112776000Y-54610000D01*
X112776000Y-53594000D01*
X113792000Y-53594000D01*
X113792000Y-54610000D01*
G36*
X124968000Y-77470000D02*
G01*
X123952000Y-77470000D01*
X123952000Y-76454000D01*
X124968000Y-76454000D01*
X124968000Y-77470000D01*
G37*
X124968000Y-77470000D02*
X123952000Y-77470000D01*
X123952000Y-76454000D01*
X124968000Y-76454000D01*
X124968000Y-77470000D01*
G36*
X113792000Y-69850000D02*
G01*
X112776000Y-69850000D01*
X112776000Y-68834000D01*
X113792000Y-68834000D01*
X113792000Y-69850000D01*
G37*
X113792000Y-69850000D02*
X112776000Y-69850000D01*
X112776000Y-68834000D01*
X113792000Y-68834000D01*
X113792000Y-69850000D01*
G36*
X113792000Y-49530000D02*
G01*
X112776000Y-49530000D01*
X112776000Y-48514000D01*
X113792000Y-48514000D01*
X113792000Y-49530000D01*
G37*
X113792000Y-49530000D02*
X112776000Y-49530000D01*
X112776000Y-48514000D01*
X113792000Y-48514000D01*
X113792000Y-49530000D01*
G36*
X113792000Y-62230000D02*
G01*
X112776000Y-62230000D01*
X112776000Y-61214000D01*
X113792000Y-61214000D01*
X113792000Y-62230000D01*
G37*
X113792000Y-62230000D02*
X112776000Y-62230000D01*
X112776000Y-61214000D01*
X113792000Y-61214000D01*
X113792000Y-62230000D01*
G36*
X113792000Y-74930000D02*
G01*
X112776000Y-74930000D01*
X112776000Y-73914000D01*
X113792000Y-73914000D01*
X113792000Y-74930000D01*
G37*
X113792000Y-74930000D02*
X112776000Y-74930000D01*
X112776000Y-73914000D01*
X113792000Y-73914000D01*
X113792000Y-74930000D01*
G36*
X124968000Y-57150000D02*
G01*
X123952000Y-57150000D01*
X123952000Y-56134000D01*
X124968000Y-56134000D01*
X124968000Y-57150000D01*
G37*
X124968000Y-57150000D02*
X123952000Y-57150000D01*
X123952000Y-56134000D01*
X124968000Y-56134000D01*
X124968000Y-57150000D01*
G36*
X124968000Y-72390000D02*
G01*
X123952000Y-72390000D01*
X123952000Y-71374000D01*
X124968000Y-71374000D01*
X124968000Y-72390000D01*
G37*
X124968000Y-72390000D02*
X123952000Y-72390000D01*
X123952000Y-71374000D01*
X124968000Y-71374000D01*
X124968000Y-72390000D01*
G36*
X124968000Y-74930000D02*
G01*
X123952000Y-74930000D01*
X123952000Y-73914000D01*
X124968000Y-73914000D01*
X124968000Y-74930000D01*
G37*
X124968000Y-74930000D02*
X123952000Y-74930000D01*
X123952000Y-73914000D01*
X124968000Y-73914000D01*
X124968000Y-74930000D01*
G36*
X124968000Y-49530000D02*
G01*
X123952000Y-49530000D01*
X123952000Y-48514000D01*
X124968000Y-48514000D01*
X124968000Y-49530000D01*
G37*
X124968000Y-49530000D02*
X123952000Y-49530000D01*
X123952000Y-48514000D01*
X124968000Y-48514000D01*
X124968000Y-49530000D01*
G36*
X113792000Y-72390000D02*
G01*
X112776000Y-72390000D01*
X112776000Y-71374000D01*
X113792000Y-71374000D01*
X113792000Y-72390000D01*
G37*
X113792000Y-72390000D02*
X112776000Y-72390000D01*
X112776000Y-71374000D01*
X113792000Y-71374000D01*
X113792000Y-72390000D01*
G36*
X124968000Y-67310000D02*
G01*
X123952000Y-67310000D01*
X123952000Y-66294000D01*
X124968000Y-66294000D01*
X124968000Y-67310000D01*
G37*
X124968000Y-67310000D02*
X123952000Y-67310000D01*
X123952000Y-66294000D01*
X124968000Y-66294000D01*
X124968000Y-67310000D01*
G36*
X113792000Y-59690000D02*
G01*
X112776000Y-59690000D01*
X112776000Y-58674000D01*
X113792000Y-58674000D01*
X113792000Y-59690000D01*
G37*
X113792000Y-59690000D02*
X112776000Y-59690000D01*
X112776000Y-58674000D01*
X113792000Y-58674000D01*
X113792000Y-59690000D01*
G36*
X113792000Y-52070000D02*
G01*
X112776000Y-52070000D01*
X112776000Y-51054000D01*
X113792000Y-51054000D01*
X113792000Y-52070000D01*
G37*
X113792000Y-52070000D02*
X112776000Y-52070000D01*
X112776000Y-51054000D01*
X113792000Y-51054000D01*
X113792000Y-52070000D01*
G36*
X113792000Y-64770000D02*
G01*
X112776000Y-64770000D01*
X112776000Y-63754000D01*
X113792000Y-63754000D01*
X113792000Y-64770000D01*
G37*
X113792000Y-64770000D02*
X112776000Y-64770000D01*
X112776000Y-63754000D01*
X113792000Y-63754000D01*
X113792000Y-64770000D01*
G36*
X113792000Y-57150000D02*
G01*
X112776000Y-57150000D01*
X112776000Y-56134000D01*
X113792000Y-56134000D01*
X113792000Y-57150000D01*
G37*
X113792000Y-57150000D02*
X112776000Y-57150000D01*
X112776000Y-56134000D01*
X113792000Y-56134000D01*
X113792000Y-57150000D01*
D17*
X126492000Y-45974000D03*
X111252000Y-45974000D03*
D18*
X122098000Y-82750000D03*
X115098000Y-82750000D03*
D19*
X117478000Y-80420000D03*
X117498000Y-85050000D03*
X120498000Y-85050000D03*
X120478000Y-80420000D03*
X112398000Y-80450000D03*
X112378000Y-85020000D03*
X113478000Y-80420000D03*
X113498000Y-85050000D03*
D20*
X32300000Y-41880000D03*
D21*
X21580000Y-46080000D03*
D20*
X21860000Y-41880000D03*
D22*
X27080000Y-46080000D03*
D21*
X32580000Y-46080000D03*
D23*
X27080000Y-51980000D03*
X32080000Y-49880000D03*
X22080000Y-49880000D03*
D21*
X39580000Y-34080000D03*
D20*
X39860000Y-29880000D03*
D22*
X45080000Y-34080000D03*
D21*
X50580000Y-34080000D03*
D20*
X50300000Y-29880000D03*
D23*
X45080000Y-39980000D03*
X40080000Y-37880000D03*
X50080000Y-37880000D03*
D21*
X68580000Y-27080000D03*
X57580000Y-27080000D03*
D22*
X63080000Y-27080000D03*
D20*
X68300000Y-22880000D03*
X57860000Y-22880000D03*
D23*
X63080000Y-32980000D03*
X58080000Y-30880000D03*
X68080000Y-30880000D03*
D21*
X86580000Y-32580000D03*
D22*
X81080000Y-32580000D03*
D20*
X86300000Y-28380000D03*
D21*
X75580000Y-32580000D03*
D20*
X75860000Y-28380000D03*
D23*
X81080000Y-38480000D03*
X76080000Y-36380000D03*
X86080000Y-36380000D03*
D21*
X93580000Y-35080000D03*
D20*
X104300000Y-30880000D03*
X93860000Y-30880000D03*
D21*
X104580000Y-35080000D03*
D22*
X99080000Y-35080000D03*
D23*
X99080000Y-40980000D03*
X104080000Y-38880000D03*
X94080000Y-38880000D03*
D21*
X21580000Y-63080000D03*
X32580000Y-63080000D03*
D22*
X27080000Y-63080000D03*
D20*
X21860000Y-58880000D03*
X32300000Y-58880000D03*
D23*
X27080000Y-68980000D03*
X32080000Y-66880000D03*
X22080000Y-66880000D03*
D21*
X50580000Y-51054000D03*
D20*
X39860000Y-46854000D03*
D21*
X39580000Y-51054000D03*
D22*
X45080000Y-51054000D03*
D20*
X50300000Y-46854000D03*
D23*
X45080000Y-56954000D03*
X40080000Y-54854000D03*
X50080000Y-54854000D03*
D21*
X68580000Y-44196000D03*
X57580000Y-44196000D03*
D20*
X68300000Y-39996000D03*
D22*
X63080000Y-44196000D03*
D20*
X57860000Y-39996000D03*
D23*
X63080000Y-50096000D03*
X68080000Y-47996000D03*
X58080000Y-47996000D03*
D20*
X86300000Y-45330000D03*
X75860000Y-45330000D03*
D21*
X86580000Y-49530000D03*
X75580000Y-49530000D03*
D22*
X81080000Y-49530000D03*
D23*
X81080000Y-55430000D03*
X86080000Y-53330000D03*
X76080000Y-53330000D03*
D22*
X99060000Y-52070000D03*
D20*
X104280000Y-47870000D03*
D21*
X104560000Y-52070000D03*
D20*
X93840000Y-47870000D03*
D21*
X93560000Y-52070000D03*
D23*
X99060000Y-57970000D03*
X94060000Y-55870000D03*
X104060000Y-55870000D03*
D21*
X21580000Y-80080000D03*
D20*
X32300000Y-75880000D03*
D22*
X27080000Y-80080000D03*
D21*
X32580000Y-80080000D03*
D20*
X21860000Y-75880000D03*
D23*
X27080000Y-85980000D03*
X22080000Y-83880000D03*
X32080000Y-83880000D03*
D22*
X45080000Y-68072000D03*
D20*
X39860000Y-63872000D03*
D21*
X50580000Y-68072000D03*
X39580000Y-68072000D03*
D20*
X50300000Y-63872000D03*
D23*
X45080000Y-73972000D03*
X50080000Y-71872000D03*
X40080000Y-71872000D03*
D20*
X57860000Y-57014000D03*
D22*
X63080000Y-61214000D03*
D21*
X57580000Y-61214000D03*
D20*
X68300000Y-57014000D03*
D21*
X68580000Y-61214000D03*
D23*
X63080000Y-67114000D03*
X58080000Y-65014000D03*
X68080000Y-65014000D03*
D21*
X86580000Y-66548000D03*
D22*
X81080000Y-66548000D03*
D20*
X86300000Y-62348000D03*
X75860000Y-62348000D03*
D21*
X75580000Y-66548000D03*
D23*
X81080000Y-72448000D03*
X76080000Y-70348000D03*
X86080000Y-70348000D03*
D20*
X104280000Y-64888000D03*
X93840000Y-64888000D03*
D21*
X93560000Y-69088000D03*
D22*
X99060000Y-69088000D03*
D21*
X104560000Y-69088000D03*
D23*
X99060000Y-74988000D03*
X94060000Y-72888000D03*
X104060000Y-72888000D03*
D21*
X104592860Y-92030000D03*
D20*
X102735347Y-95807307D03*
X111776653Y-101027307D03*
D22*
X109356000Y-94780000D03*
D21*
X114119140Y-97530000D03*
D23*
X112306000Y-89670450D03*
X115586127Y-93989103D03*
X106925873Y-88989103D03*
D20*
X84666827Y-89735853D03*
D21*
X96108592Y-88453505D03*
D20*
X94751093Y-92437924D03*
D21*
X85483408Y-85606495D03*
D22*
X90796000Y-87030000D03*
D23*
X92323032Y-81331038D03*
X86949883Y-82065387D03*
X96609142Y-84653577D03*
D24*
X124714000Y-69342000D03*
D25*
X111252000Y-74422000D03*
D24*
X124714000Y-76962000D03*
D26*
X113030000Y-64262000D03*
D25*
X126492000Y-64262000D03*
D26*
X113030000Y-74422000D03*
D25*
X111252000Y-51562000D03*
D26*
X113030000Y-51562000D03*
X113030000Y-49022000D03*
D25*
X126492000Y-49022000D03*
D27*
X126492000Y-49022000D03*
D24*
X124714000Y-51562000D03*
D25*
X111252000Y-54102000D03*
X126492000Y-51562000D03*
D24*
X124714000Y-71882000D03*
D25*
X126492000Y-69342000D03*
D24*
X124714000Y-59182000D03*
D25*
X111252000Y-59182000D03*
X126492000Y-66802000D03*
X126492000Y-56642000D03*
X126492000Y-74422000D03*
D26*
X113030000Y-69342000D03*
D25*
X111252000Y-61722000D03*
D24*
X124714000Y-66802000D03*
D26*
X113030000Y-59182000D03*
D25*
X111252000Y-69342000D03*
X126492000Y-76962000D03*
D26*
X113030000Y-76962000D03*
D24*
X124714000Y-74422000D03*
D25*
X111252000Y-66802000D03*
D24*
X124714000Y-54102000D03*
D26*
X113030000Y-66802000D03*
X113030000Y-54102000D03*
X113030000Y-56642000D03*
D25*
X111252000Y-56642000D03*
X126492000Y-61722000D03*
X126492000Y-54102000D03*
D26*
X113030000Y-61722000D03*
D25*
X126492000Y-71882000D03*
X126492000Y-59182000D03*
D24*
X124714000Y-61722000D03*
D25*
X111252000Y-64262000D03*
D24*
X124714000Y-64262000D03*
D25*
X111252000Y-76962000D03*
D26*
X113030000Y-71882000D03*
D24*
X124714000Y-56642000D03*
D25*
X111252000Y-71882000D03*
X111252000Y-49022000D03*
D24*
X124714000Y-49022000D03*
D28*
X123698000Y-49022000D03*
X123698000Y-51562000D03*
X123698000Y-54102000D03*
X123698000Y-56642000D03*
X123698000Y-59182000D03*
X123698000Y-61722000D03*
X123698000Y-64262000D03*
X123698000Y-66802000D03*
X123698000Y-69342000D03*
X123698000Y-71882000D03*
X123698000Y-74422000D03*
X123698000Y-76962000D03*
D29*
X114046000Y-76962000D03*
X114046000Y-74422000D03*
X114046000Y-71882000D03*
X114046000Y-69342000D03*
X114046000Y-66802000D03*
X114046000Y-64262000D03*
X114046000Y-61722000D03*
X114046000Y-59182000D03*
X114046000Y-56642000D03*
X114046000Y-54102000D03*
X114046000Y-51562000D03*
X114046000Y-49022000D03*
D30*
X72580000Y-23930000D03*
X72580000Y-62030000D03*
X91630000Y-42980000D03*
X53530000Y-42980000D03*
D31*
X93194954Y-24169715D03*
X96085846Y-24971431D03*
D32*
X98499795Y-24499361D03*
X91368930Y-22521798D03*
X97911870Y-26619348D03*
X90781005Y-24641785D03*
D33*
X91917712Y-25968820D03*
X94808603Y-26770534D03*
X96254049Y-27171393D03*
D34*
X86485200Y-22250400D03*
X83085200Y-22250400D03*
M02*
