M48
; DRILL file {KiCad (6.0.10-0)} date Wednesday, April 12, 2023 at 09:39:46 AM
; FORMAT={-:-/ absolute / metric / decimal}
; #@! TF.CreationDate,2023-04-12T09:39:46-04:00
; #@! TF.GenerationSoftware,Kicad,Pcbnew,(6.0.10-0)
; #@! TF.FileFunction,Plated,1,2,PTH
FMAT,2
METRIC
; #@! TA.AperFunction,Plated,PTH,ViaDrill
T1C0.400
; #@! TA.AperFunction,Plated,PTH,ComponentDrill
T2C0.400
; #@! TA.AperFunction,Plated,PTH,ComponentDrill
T3C0.813
; #@! TA.AperFunction,Plated,PTH,ComponentDrill
T4C0.900
; #@! TA.AperFunction,Plated,PTH,ComponentDrill
T5C1.100
; #@! TA.AperFunction,Plated,PTH,ComponentDrill
T6C1.500
; #@! TA.AperFunction,Plated,PTH,ComponentDrill
T7C2.200
%
G90
G05
T1
X87.325Y-22.25
X89.357Y-22.454
X93.777Y-27.737
X94.336Y-25.298
X94.894Y-24.435
X106.02Y-70.002
X108.56Y-61.417
X108.56Y-67.513
X108.61Y-72.034
X109.372Y-45.669
X110.134Y-55.524
X114.046Y-47.854
X115.164Y-52.273
X115.214Y-47.072
T2
X118.11Y-49.022
X118.11Y-51.562
X118.11Y-54.102
X118.11Y-56.642
X118.11Y-59.182
X118.11Y-61.722
X118.11Y-64.262
X118.11Y-66.802
X118.11Y-69.342
X118.11Y-71.882
X118.11Y-74.422
X118.11Y-76.962
X119.634Y-49.022
X119.634Y-51.562
X119.634Y-54.102
X119.634Y-56.642
X119.634Y-59.182
X119.634Y-61.722
X119.634Y-64.262
X119.634Y-66.802
X119.634Y-69.342
X119.634Y-71.882
X119.634Y-74.422
X119.634Y-76.962
T3
X111.252Y-45.974
X126.492Y-45.974
T5
X111.252Y-49.022
X111.252Y-49.022
X111.252Y-51.562
X111.252Y-54.102
X111.252Y-56.642
X111.252Y-59.182
X111.252Y-61.722
X111.252Y-64.262
X111.252Y-66.802
X111.252Y-69.342
X111.252Y-71.882
X111.252Y-74.422
X111.252Y-76.962
X126.492Y-49.022
X126.492Y-49.022
X126.492Y-51.562
X126.492Y-54.102
X126.492Y-56.642
X126.492Y-59.182
X126.492Y-61.722
X126.492Y-64.262
X126.492Y-66.802
X126.492Y-69.342
X126.492Y-71.882
X126.492Y-74.422
X126.492Y-76.962
T6
X22.08Y-49.88
X22.08Y-66.88
X22.08Y-83.88
X27.08Y-51.98
X27.08Y-68.98
X27.08Y-85.98
X32.08Y-49.88
X32.08Y-66.88
X32.08Y-83.88
X40.08Y-37.88
X40.08Y-54.854
X40.08Y-71.872
X45.08Y-39.98
X45.08Y-56.954
X45.08Y-73.972
X50.08Y-37.88
X50.08Y-54.854
X50.08Y-71.872
X58.08Y-30.88
X58.08Y-47.996
X58.08Y-65.014
X63.08Y-32.98
X63.08Y-50.096
X63.08Y-67.114
X68.08Y-30.88
X68.08Y-47.996
X68.08Y-65.014
X76.08Y-36.38
X76.08Y-53.33
X76.08Y-70.348
X81.08Y-38.48
X81.08Y-55.43
X81.08Y-72.448
X86.08Y-36.38
X86.08Y-53.33
X86.08Y-70.348
X86.95Y-82.065
X92.323Y-81.331
X94.06Y-55.87
X94.06Y-72.888
X94.08Y-38.88
X96.609Y-84.654
X99.06Y-57.97
X99.06Y-74.988
X99.08Y-40.98
X104.06Y-55.87
X104.06Y-72.888
X104.08Y-38.88
X106.926Y-88.989
X112.306Y-89.67
X115.586Y-93.989
T7
X53.53Y-42.98
X72.58Y-23.93
X72.58Y-62.03
X91.63Y-42.98
T4
X112.178Y-85.02G85X112.578Y-85.02
G05
X112.598Y-80.45G85X112.198Y-80.45
G05
X113.278Y-80.42G85X113.678Y-80.42
G05
X113.698Y-85.05G85X113.298Y-85.05
G05
X117.278Y-80.42G85X117.678Y-80.42
G05
X117.698Y-85.05G85X117.298Y-85.05
G05
X120.278Y-80.42G85X120.678Y-80.42
G05
X120.698Y-85.05G85X120.298Y-85.05
G05
T0
M30
