<?xml version="1.0" standalone="no"?>
 <!DOCTYPE svg PUBLIC "-//W3C//DTD SVG 1.1//EN" 
 "http://www.w3.org/Graphics/SVG/1.1/DTD/svg11.dtd"> 
<svg
  xmlns:svg="http://www.w3.org/2000/svg"
  xmlns="http://www.w3.org/2000/svg"
  xmlns:xlink="http://www.w3.org/1999/xlink"
  version="1.1"
  width="11.684000cm" height="9.398000cm" viewBox="0 0 116840000 93980000">
<title>SVG Picture created as half-swept-Edge_Cuts.svg date 2023/04/21 07:05:32 </title>
  <desc>Picture generated by PCBNEW </desc>
<g style="fill:#000000; fill-opacity:1.000000;stroke:#000000; stroke-opacity:1.000000;
stroke-linecap:round; stroke-linejoin:round;"
 transform="translate(0 0) scale(1 1)">
</g>
<g style="fill:#000000; fill-opacity:0.0; 
stroke:#000000; stroke-width:0.000000; stroke-opacity:1; 
stroke-linecap:round; stroke-linejoin:round;">
</g>
<g style="fill:#000000; fill-opacity:0.0; 
stroke:#000000; stroke-width:50000.000000; stroke-opacity:1; 
stroke-linecap:round; stroke-linejoin:round;">
<path d="M112395000.000000 30122000.000000 A750000.000000 750000.000000 0.0 0 0 111645000.000000 29372000.000000" />
<path d="M3450055 21736702
L3490254 71005024
" />
<path d="M91982001.999759 11897418.998911 A750002.000000 750002.000000 0.0 0 0 91547289.998538 11216889.003156" />
<path d="M95698000.095849 89507999.839863 A86289220.000000 86289220.000000 0.0 0 0 74169133.920221 80321946.291379" />
<path d="M4876999.980738 19722999.974436 A4063010.000000 4063010.000000 0.0 0 0 3450055.303474 21736702.096506" />
<path d="M91982001.590345 27443998.979338 A2001223.000000 2001223.000000 0.0 0 0 94017001.997880 29374916.878802" />
<path d="M91547290.050379 11216888.860422 A148482272.000000 148482272.000000 0.0 0 0 54051777.005723 2960678.934444" />
<path d="M95697999.792767 89508000.319564 A1966571.000000 1966571.000000 0.0 0 0 98429999.870607 88909264.918155" />
<path d="M74169134.024610 80321945.887480 A323956757.000000 323956757.000000 0.0 0 0 5528000.000563 72841118.684486" />
<path d="M3490252.485075 71005024.112137 A1983409.000000 1983409.000000 0.0 0 0 5527999.994408 72841118.814469" />
<path d="M112395000 30122000
L112395000 47244000
" />
<path d="M91982001 27443999
L91982045 11897419
" />
<path d="M94017002 29374917
L111645000 29372000
" />
<path d="M46059999.799833 2969998.647981 A93763190.000000 93763190.000000 0.0 0 0 4877000.254842 19723000.352687" />
<path d="M110648304 68072000
L98430000 88909265
" />
<path d="M110648307.448347 68072001.710519 A16774403.000000 16774403.000000 0.0 0 0 112394999.636180 60747849.997181" />
<path d="M54051777 2960679
L46060000 2970000
" />
<path d="M112395000 47244000
L112407000 54610000
" />
<path d="M112407000 54610000
L112395000 60747850
" />
<g >
</g>
<g >
</g>
<g >
</g>
<g >
</g>
<g >
</g>
<g >
</g>
<g >
</g>
<g >
</g>
<g >
</g>
<g >
</g>
<g >
</g>
<g >
</g>
<g >
</g>
<g >
</g>
<g >
</g>
<g >
</g>
<g >
</g>
<g >
</g>
<g >
</g>
<g >
</g>
<g >
</g>
<g >
</g>
<g >
</g>
<g >
</g>
<g >
</g>
<g >
</g>
<g >
</g>
</g> 
</svg>
